SplineFontDB: 3.2
FontName: NotoSerifDevanagari-Black
FullName: Noto Serif Devanagari Black
FamilyName: Noto Serif Devanagari Black
Weight: Black
Copyright: Copyright 2019 Google Inc. All Rights Reserved.
Version: 2.000; ttfautohint (v1.8.2)
ItalicAngle: 0
UnderlinePosition: -125
UnderlineWidth: 50
Ascent: 800
Descent: 200
InvalidEm: 0
sfntRevision: 0x00020000
LayerCount: 2
Layer: 0 1 "+BBcEMAQ0BD0EOAQ5 +BD8EOwQwBD0A" 1
Layer: 1 1 "+BB8ENQRABDUENAQ9BDgEOQAA +BD8EOwQwBD0A" 0
XUID: [1021 42 1189819461 5072599]
StyleMap: 0x0040
FSType: 0
OS2Version: 4
OS2_WeightWidthSlopeOnly: 1
OS2_UseTypoMetrics: 0
CreationTime: 1555073790
ModificationTime: 1584531020
PfmFamily: 17
TTFWeight: 900
TTFWidth: 5
LineGap: 0
VLineGap: 0
Panose: 2 2 10 2 6 5 5 2 2 4
OS2TypoAscent: 930
OS2TypoAOffset: 0
OS2TypoDescent: -625
OS2TypoDOffset: 0
OS2TypoLinegap: 0
OS2WinAscent: 930
OS2WinAOffset: 0
OS2WinDescent: 625
OS2WinDOffset: 0
HheadAscent: 930
HheadAOffset: 0
HheadDescent: -625
HheadDOffset: 0
OS2SubXSize: 650
OS2SubYSize: 600
OS2SubXOff: 0
OS2SubYOff: 75
OS2SupXSize: 650
OS2SupYSize: 600
OS2SupXOff: 0
OS2SupYOff: 350
OS2StrikeYSize: 50
OS2StrikeYPos: 376
OS2CapHeight: 715
OS2XHeight: 627
OS2Vendor: 'GOOG'
OS2CodePages: 00000001.00000000
OS2UnicodeRanges: 80008023.00002046.00000000.00000000
Lookup: 4 0 0 "Ligature Substitution lookup 0" { "Ligature Substitution lookup 0 subtable"  } []
Lookup: 1 0 0 "Single Substitution lookup 1" { "Single Substitution lookup 1 subtable"  } []
Lookup: 1 0 0 "Single Substitution lookup 2" { "Single Substitution lookup 2 subtable"  } []
Lookup: 1 0 0 "Single Substitution lookup 3" { "Single Substitution lookup 3 subtable"  } []
Lookup: 1 0 0 "Single Substitution lookup 4" { "Single Substitution lookup 4 subtable"  } []
Lookup: 1 0 0 "Single Substitution lookup 5" { "Single Substitution lookup 5 subtable"  } []
Lookup: 1 0 0 "Single Substitution lookup 6" { "Single Substitution lookup 6 subtable"  } []

StartChar: .notdef
Encoding: 65536 -1 0
Width: 596
Flags: W
LayerCount: 2
Fore
SplineSet
93 0 m 1,0,-1
 93 714 l 1,1,-1
 503 714 l 1,2,-1
 503 0 l 1,3,-1
 93 0 l 1,0,-1
144 51 m 1,4,-1
 453 51 l 1,5,-1
 453 663 l 1,6,-1
 144 663 l 1,7,-1
 144 51 l 1,4,-1
EndSplineSet
EndChar

StartChar: uni0905
Encoding: 2309 2309 5
Width: 769
GlyphClass: 2
Flags: W
AnchorPoint: "Anchor-7" 273 -50 basechar 0
AnchorPoint: "Anchor-6" 400 0 basechar 0
AnchorPoint: "Anchor-5" 709 20 basechar 0
AnchorPoint: "Anchor-1" 709 627 basechar 0
AnchorPoint: "Anchor-0" 709 627 basechar 0
LayerCount: 2
Fore
SplineSet
295 51 m 0,0,1
 222 51 222 51 169 85.5 c 128,-1,2
 116 120 116 120 77.5 179 c 128,-1,3
 39 238 39 238 10 313 c 1,4,-1
 84 345 l 1,5,6
 121 264 121 264 161 227 c 128,-1,7
 201 190 201 190 257 190 c 0,8,9
 294 190 294 190 317 208.5 c 128,-1,10
 340 227 340 227 340 258 c 0,11,12
 340 280 340 280 332 299 c 1,13,14
 295 280 295 280 242 266 c 1,15,-1
 177 396 l 1,16,17
 250 414 250 414 299 434 c 128,-1,18
 348 454 348 454 348 481 c 0,19,20
 348 505 348 505 308 505 c 0,21,22
 279 505 279 505 242 492.5 c 128,-1,23
 205 480 205 480 167 463 c 1,24,-1
 95 600 l 1,25,26
 130 617 130 617 166 625.5 c 128,-1,27
 202 634 202 634 240 634 c 0,28,29
 299 634 299 634 339.5 609.5 c 128,-1,30
 380 585 380 585 405 549 c 0,31,32
 422 524 422 524 430 495.5 c 128,-1,33
 438 467 438 467 438 441 c 0,34,35
 438 391 438 391 408 354 c 1,36,37
 437 348 437 348 466 348 c 0,38,39
 492 348 492 348 512.5 353.5 c 128,-1,40
 533 359 533 359 549 367 c 1,41,-1
 549 502 l 1,42,-1
 499 502 l 1,43,-1
 433 611 l 1,44,-1
 433 627 l 1,45,-1
 777 627 l 1,46,-1
 843 518 l 1,47,-1
 843 502 l 1,48,-1
 709 502 l 1,49,-1
 709 -10 l 1,50,-1
 692 -10 l 1,51,-1
 549 82 l 1,52,-1
 549 241 l 1,53,54
 532 237 532 237 514 237 c 0,55,56
 472 237 472 237 435 256 c 1,57,58
 448 224 448 224 448 185 c 0,59,60
 448 125 448 125 405 88 c 128,-1,61
 362 51 362 51 295 51 c 0,0,1
EndSplineSet
EndChar

StartChar: uni0907
Encoding: 2311 2311 7
Width: 508
GlyphClass: 2
Flags: W
AnchorPoint: "Anchor-7" 72 -97 basechar 0
AnchorPoint: "Anchor-6" 264 -125 basechar 0
AnchorPoint: "Anchor-5" 249 -166 basechar 0
AnchorPoint: "Anchor-1" 402 627 basechar 0
AnchorPoint: "Anchor-0" 402 627 basechar 0
LayerCount: 2
Fore
SplineSet
344 -161 m 1,0,1
 303 -129 303 -129 268 -87.5 c 128,-1,2
 233 -46 233 -46 208 -3 c 1,3,4
 171 2 171 2 137 15 c 128,-1,5
 103 28 103 28 81 49.5 c 128,-1,6
 59 71 59 71 59 102 c 0,7,8
 59 135 59 135 80.5 151 c 128,-1,9
 102 167 102 167 128 167 c 0,10,11
 163 167 163 167 188 148.5 c 128,-1,12
 213 130 213 130 234 106 c 1,13,14
 268 108 268 108 300.5 117.5 c 128,-1,15
 333 127 333 127 354 141.5 c 128,-1,16
 375 156 375 156 375 172 c 0,17,18
 375 182 375 182 367.5 188.5 c 128,-1,19
 360 195 360 195 346 195 c 0,20,21
 322 195 322 195 295 182.5 c 128,-1,22
 268 170 268 170 233 146 c 1,23,24
 154 187 154 187 103.5 238.5 c 128,-1,25
 53 290 53 290 53 348 c 0,26,27
 53 404 53 404 97.5 434 c 128,-1,28
 142 464 142 464 215 464 c 0,29,30
 236 464 236 464 251 463 c 1,31,-1
 251 502 l 1,32,-1
 -8 502 l 1,33,-1
 -74 611 l 1,34,-1
 -74 627 l 1,35,-1
 516 627 l 1,36,-1
 582 518 l 1,37,-1
 582 502 l 1,38,-1
 402 502 l 1,39,-1
 402 353 l 1,40,41
 388 355 388 355 368.5 355.5 c 128,-1,42
 349 356 349 356 330 356 c 0,43,44
 254 356 254 356 211.5 339.5 c 128,-1,45
 169 323 169 323 169 295 c 0,46,47
 169 284 169 284 174 276 c 1,48,49
 204 296 204 296 233.5 307 c 128,-1,50
 263 318 263 318 297 318 c 0,51,52
 334 318 334 318 369 302.5 c 128,-1,53
 404 287 404 287 429 259 c 0,54,55
 449 237 449 237 461 208 c 128,-1,56
 473 179 473 179 473 148 c 0,57,58
 473 107 473 107 450 75.5 c 128,-1,59
 427 44 427 44 389 24 c 128,-1,60
 351 4 351 4 306 -3 c 1,61,62
 336 -21 336 -21 370 -35.5 c 128,-1,63
 404 -50 404 -50 429 -58 c 1,64,-1
 344 -161 l 1,0,1
EndSplineSet
EndChar

StartChar: uni0909
Encoding: 2313 2313 9
Width: 524
GlyphClass: 2
Flags: W
AnchorPoint: "Anchor-7" 304 -105 basechar 0
AnchorPoint: "Anchor-6" 270 13 basechar 0
AnchorPoint: "Anchor-5" 267 0 basechar 0
AnchorPoint: "Anchor-1" 350 627 basechar 0
AnchorPoint: "Anchor-0" 350 627 basechar 0
LayerCount: 2
Fore
SplineSet
318 13 m 0,0,1
 215 13 215 13 145 82.5 c 128,-1,2
 75 152 75 152 18 295 c 1,3,-1
 90 325 l 1,4,5
 125 245 125 245 167 203 c 128,-1,6
 209 161 209 161 267 161 c 0,7,8
 305 161 305 161 326.5 180.5 c 128,-1,9
 348 200 348 200 348 228 c 0,10,11
 348 255 348 255 336 275 c 1,12,13
 295 258 295 258 243 247 c 1,14,-1
 178 377 l 1,15,16
 334 412 334 412 334 471 c 0,17,18
 334 488 334 488 324 502 c 1,19,-1
 -8 502 l 1,20,-1
 -74 611 l 1,21,-1
 -74 627 l 1,22,-1
 532 627 l 1,23,-1
 598 518 l 1,24,-1
 598 502 l 1,25,-1
 417 502 l 1,26,27
 433 482 433 482 442.5 458 c 128,-1,28
 452 434 452 434 452 405 c 0,29,30
 452 352 452 352 402 312 c 1,31,32
 480 240 480 240 480 152 c 0,33,34
 480 91 480 91 434.5 52 c 128,-1,35
 389 13 389 13 318 13 c 0,0,1
EndSplineSet
EndChar

StartChar: uni090A
Encoding: 2314 2314 10
Width: 729
GlyphClass: 2
Flags: W
AnchorPoint: "Anchor-7" 304 -105 basechar 0
AnchorPoint: "Anchor-6" 364 0 basechar 0
AnchorPoint: "Anchor-5" 265 0 basechar 0
AnchorPoint: "Anchor-1" 399 627 basechar 0
AnchorPoint: "Anchor-0" 399 627 basechar 0
LayerCount: 2
Fore
SplineSet
323 13 m 0,0,1
 221 13 221 13 151 82.5 c 128,-1,2
 81 152 81 152 24 295 c 1,3,-1
 95 325 l 1,4,5
 131 245 131 245 173 203 c 128,-1,6
 215 161 215 161 272 161 c 0,7,8
 311 161 311 161 332.5 180.5 c 128,-1,9
 354 200 354 200 354 228 c 0,10,11
 354 255 354 255 341 275 c 1,12,13
 301 258 301 258 249 247 c 1,14,-1
 184 377 l 1,15,16
 339 411 339 411 339 471 c 0,17,18
 339 489 339 489 329 502 c 1,19,-1
 -8 502 l 1,20,-1
 -74 611 l 1,21,-1
 -74 627 l 1,22,-1
 737 627 l 1,23,-1
 803 518 l 1,24,-1
 803 502 l 1,25,-1
 423 502 l 1,26,27
 438 482 438 482 447.5 458 c 128,-1,28
 457 434 457 434 457 405 c 0,29,30
 457 352 457 352 407 312 c 1,31,32
 415 306 415 306 422 298 c 1,33,34
 454 319 454 319 482 330 c 128,-1,35
 510 341 510 341 542 341 c 0,36,37
 575 341 575 341 604.5 328 c 128,-1,38
 634 315 634 315 656 292 c 0,39,40
 680 267 680 267 694.5 232.5 c 128,-1,41
 709 198 709 198 709 159 c 0,42,43
 709 107 709 107 688 65.5 c 128,-1,44
 667 24 667 24 629 -14 c 1,45,-1
 507 63 l 1,46,47
 565 111 565 111 596 146 c 128,-1,48
 627 181 627 181 627 208 c 0,49,50
 627 222 627 222 617 231 c 128,-1,51
 607 240 607 240 591 240 c 0,52,53
 569 240 569 240 543 221 c 128,-1,54
 517 202 517 202 485 166 c 1,55,56
 486 159 486 159 486 152 c 0,57,58
 486 91 486 91 440 52 c 128,-1,59
 394 13 394 13 323 13 c 0,0,1
EndSplineSet
EndChar

StartChar: uni090B
Encoding: 2315 2315 11
Width: 888
GlyphClass: 2
Flags: W
AnchorPoint: "Anchor-7" 293 -44 basechar 0
AnchorPoint: "Anchor-6" 439 0 basechar 0
AnchorPoint: "Anchor-5" 445 0 basechar 0
AnchorPoint: "Anchor-1" 526 627 basechar 0
AnchorPoint: "Anchor-0" 526 627 basechar 0
LayerCount: 2
Fore
SplineSet
182 43 m 1,0,-1
 82 168 l 1,1,-1
 324 289 l 1,2,3
 294 305 294 305 261 305 c 0,4,5
 236 305 236 305 206.5 295.5 c 128,-1,6
 177 286 177 286 139 264 c 1,7,-1
 34 430 l 1,8,9
 68 447 68 447 103.5 456 c 128,-1,10
 139 465 139 465 171 465 c 0,11,12
 206 465 206 465 236 456.5 c 128,-1,13
 266 448 266 448 297 426.5 c 128,-1,14
 328 405 328 405 365 366 c 1,15,-1
 365 502 l 1,16,-1
 -8 502 l 1,17,-1
 -74 611 l 1,18,-1
 -74 627 l 1,19,-1
 896 627 l 1,20,-1
 962 518 l 1,21,-1
 962 502 l 1,22,-1
 526 502 l 1,23,-1
 526 340 l 1,24,25
 571 350 571 350 602 378 c 1,26,27
 597 394 597 394 597 409 c 0,28,29
 597 441 597 441 620 462 c 128,-1,30
 643 483 643 483 678 483 c 0,31,32
 716 483 716 483 740.5 458.5 c 128,-1,33
 765 434 765 434 765 396 c 0,34,35
 765 376 765 376 754.5 358 c 128,-1,36
 744 340 744 340 725 325 c 1,37,-1
 819 200 l 1,38,39
 743 173 743 173 715 157 c 128,-1,40
 687 141 687 141 687 124 c 0,41,42
 687 104 687 104 713 104 c 0,43,44
 731 104 731 104 754 115 c 128,-1,45
 777 126 777 126 817 152 c 1,46,-1
 893 25 l 1,47,48
 848 -2 848 -2 784 -2 c 0,49,50
 745 -2 745 -2 707 12 c 128,-1,51
 669 26 669 26 639 49 c 256,52,53
 609 72 609 72 591 100.5 c 128,-1,54
 573 129 573 129 573 159 c 0,55,56
 573 231 573 231 662 269 c 1,57,-1
 650 286 l 1,58,59
 592 266 592 266 526 264 c 1,60,-1
 526 -10 l 1,61,-1
 509 -10 l 1,62,-1
 365 82 l 1,63,-1
 365 157 l 1,64,-1
 182 43 l 1,0,-1
EndSplineSet
EndChar

StartChar: uni0960
Encoding: 2400 2400 12
Width: 879
GlyphClass: 2
Flags: W
AnchorPoint: "Anchor-7" 293 -45 basechar 0
AnchorPoint: "Anchor-6" 439 -70 basechar 0
AnchorPoint: "Anchor-5" 447 0 basechar 0
AnchorPoint: "Anchor-1" 528 627 basechar 0
AnchorPoint: "Anchor-0" 528 627 basechar 0
LayerCount: 2
Fore
SplineSet
183 43 m 1,0,-1
 84 168 l 1,1,-1
 326 289 l 1,2,3
 296 305 296 305 263 305 c 0,4,5
 238 305 238 305 208.5 295.5 c 128,-1,6
 179 286 179 286 141 264 c 1,7,-1
 36 430 l 1,8,9
 69 447 69 447 105 456 c 128,-1,10
 141 465 141 465 173 465 c 0,11,12
 208 465 208 465 238 456.5 c 128,-1,13
 268 448 268 448 299 426.5 c 128,-1,14
 330 405 330 405 367 366 c 1,15,-1
 367 502 l 1,16,-1
 -8 502 l 1,17,-1
 -74 611 l 1,18,-1
 -74 627 l 1,19,-1
 887 627 l 1,20,-1
 953 518 l 1,21,-1
 953 502 l 1,22,-1
 528 502 l 1,23,-1
 528 340 l 1,24,25
 573 350 573 350 604 378 c 1,26,27
 599 394 599 394 599 409 c 0,28,29
 599 441 599 441 622 462 c 128,-1,30
 645 483 645 483 680 483 c 0,31,32
 717 483 717 483 742 458.5 c 128,-1,33
 767 434 767 434 767 396 c 0,34,35
 767 376 767 376 757 358.5 c 128,-1,36
 747 341 747 341 729 326 c 1,37,-1
 824 201 l 1,38,39
 680 167 680 167 680 122 c 0,40,41
 680 106 680 106 691 96 c 1,42,43
 728 136 728 136 799 158 c 1,44,-1
 854 50 l 1,45,46
 796 33 796 33 771.5 18.5 c 128,-1,47
 747 4 747 4 747 -13 c 0,48,49
 747 -32 747 -32 772 -32 c 0,50,51
 808 -32 808 -32 871 24 c 1,52,-1
 927 -94 l 1,53,54
 875 -124 875 -124 817 -124 c 0,55,56
 787 -124 787 -124 759 -113 c 128,-1,57
 731 -102 731 -102 709 -84 c 0,58,59
 686 -64 686 -64 672 -39 c 128,-1,60
 658 -14 658 -14 658 13 c 0,61,62
 658 24 658 24 660 34 c 1,63,64
 656 36 656 36 652 39 c 0,65,66
 618 63 618 63 597 95 c 128,-1,67
 576 127 576 127 576 159 c 0,68,69
 576 196 576 196 597 222 c 128,-1,70
 618 248 618 248 663 268 c 1,71,-1
 652 286 l 1,72,73
 594 266 594 266 528 264 c 1,74,-1
 528 -10 l 1,75,-1
 510 -10 l 1,76,-1
 367 82 l 1,77,-1
 367 157 l 1,78,-1
 183 43 l 1,0,-1
EndSplineSet
EndChar

StartChar: uni090C
Encoding: 2316 2316 13
Width: 772
GlyphClass: 2
Flags: W
AnchorPoint: "Anchor-7" 268 -137 basechar 0
AnchorPoint: "Anchor-6" 386 -100 basechar 0
AnchorPoint: "Anchor-5" 661 -176 basechar 0
AnchorPoint: "Anchor-1" 589 627 basechar 0
AnchorPoint: "Anchor-0" 589 627 basechar 0
LayerCount: 2
Fore
SplineSet
265 -22 m 1,0,1
 156 60 156 60 104 134 c 128,-1,2
 52 208 52 208 52 278 c 0,3,4
 52 343 52 343 94.5 384.5 c 128,-1,5
 137 426 137 426 205 426 c 0,6,7
 280 426 280 426 343 368 c 1,8,9
 379 414 379 414 439 431 c 1,10,-1
 439 502 l 1,11,-1
 -8 502 l 1,12,-1
 -74 611 l 1,13,-1
 -74 627 l 1,14,-1
 780 627 l 1,15,-1
 846 518 l 1,16,-1
 846 502 l 1,17,-1
 589 502 l 1,18,-1
 589 418 l 1,19,20
 622 402 622 402 649 375 c 0,21,22
 678 345 678 345 695.5 308 c 128,-1,23
 713 271 713 271 713 233 c 0,24,25
 713 203 713 203 698.5 176.5 c 128,-1,26
 684 150 684 150 662 127 c 128,-1,27
 640 104 640 104 618 84 c 128,-1,28
 596 64 596 64 581.5 46 c 128,-1,29
 567 28 567 28 567 11 c 0,30,31
 567 -13 567 -13 595 -13 c 0,32,33
 614 -13 614 -13 637.5 1 c 128,-1,34
 661 15 661 15 701 49 c 1,35,-1
 779 -79 l 1,36,37
 747 -101 747 -101 718.5 -110.5 c 128,-1,38
 690 -120 690 -120 655 -120 c 0,39,40
 618 -120 618 -120 580.5 -103.5 c 128,-1,41
 543 -87 543 -87 512 -61 c 0,42,43
 480 -33 480 -33 459 2.5 c 128,-1,44
 438 38 438 38 438 73 c 0,45,46
 438 102 438 102 452 126.5 c 128,-1,47
 466 151 466 151 487 172 c 128,-1,48
 508 193 508 193 529 212 c 128,-1,49
 550 231 550 231 564 249.5 c 128,-1,50
 578 268 578 268 578 288 c 0,51,52
 578 305 578 305 567 316.5 c 128,-1,53
 556 328 556 328 536 328 c 0,54,55
 501 328 501 328 478 298.5 c 128,-1,56
 455 269 455 269 455 222 c 0,57,58
 455 200 455 200 458 180 c 1,59,-1
 308 209 l 1,60,61
 304 227 304 227 304 246 c 256,62,63
 304 265 304 265 307 283 c 1,64,65
 296 285 296 285 284 285 c 0,66,67
 247 285 247 285 224.5 262.5 c 128,-1,68
 202 240 202 240 202 204 c 0,69,70
 202 165 202 165 229.5 126 c 128,-1,71
 257 87 257 87 317 37 c 1,72,-1
 265 -22 l 1,0,1
EndSplineSet
EndChar

StartChar: uni0961
Encoding: 2401 2401 14
Width: 775
GlyphClass: 2
Flags: W
AnchorPoint: "Anchor-7" 268 -137 basechar 0
AnchorPoint: "Anchor-6" 386 -100 basechar 0
AnchorPoint: "Anchor-1" 589 627 basechar 0
AnchorPoint: "Anchor-0" 589 627 basechar 0
LayerCount: 2
Fore
SplineSet
265 -22 m 1,0,1
 52 139 52 139 52 278 c 0,2,3
 52 343 52 343 95 384.5 c 128,-1,4
 138 426 138 426 205 426 c 0,5,6
 280 426 280 426 344 368 c 1,7,8
 380 414 380 414 439 431 c 1,9,-1
 439 502 l 1,10,-1
 -11 502 l 1,11,-1
 -75 611 l 1,12,-1
 -75 627 l 1,13,-1
 786 627 l 1,14,-1
 850 518 l 1,15,-1
 850 502 l 1,16,-1
 589 502 l 1,17,-1
 589 418 l 1,18,19
 629 399 629 399 657 368 c 0,20,21
 680 344 680 344 693 314.5 c 128,-1,22
 706 285 706 285 706 255 c 0,23,24
 706 222 706 222 687.5 195.5 c 128,-1,25
 669 169 669 169 645.5 147.5 c 128,-1,26
 622 126 622 126 603.5 107 c 128,-1,27
 585 88 585 88 585 69 c 0,28,29
 585 56 585 56 595 47 c 1,30,31
 612 66 612 66 640.5 80 c 128,-1,32
 669 94 669 94 711 104 c 1,33,-1
 764 2 l 1,34,35
 712 -16 712 -16 685 -30 c 128,-1,36
 658 -44 658 -44 658 -61 c 0,37,38
 658 -80 658 -80 683 -80 c 0,39,40
 704 -80 704 -80 727 -68 c 128,-1,41
 750 -56 750 -56 782 -33 c 1,42,-1
 835 -144 l 1,43,44
 815 -156 815 -156 792 -164 c 128,-1,45
 769 -172 769 -172 743 -172 c 0,46,47
 710 -172 710 -172 678 -156 c 128,-1,48
 646 -140 646 -140 621 -117 c 0,49,50
 598 -95 598 -95 583.5 -69 c 128,-1,51
 569 -43 569 -43 569 -19 c 1,52,53
 549 -11 549 -11 532 1 c 0,54,55
 501 23 501 23 483 49.5 c 128,-1,56
 465 76 465 76 465 107 c 0,57,58
 465 139 465 139 483.5 164 c 128,-1,59
 502 189 502 189 525.5 209.5 c 128,-1,60
 549 230 549 230 567.5 249.5 c 128,-1,61
 586 269 586 269 586 291 c 0,62,63
 586 308 586 308 575.5 318.5 c 128,-1,64
 565 329 565 329 542 329 c 0,65,66
 504 329 504 329 479.5 299 c 128,-1,67
 455 269 455 269 455 222 c 0,68,69
 455 211 455 211 456.5 200.5 c 128,-1,70
 458 190 458 190 459 180 c 1,71,-1
 308 209 l 1,72,73
 307 216 307 216 306 227.5 c 128,-1,74
 305 239 305 239 305 246 c 0,75,76
 305 265 305 265 308 283 c 1,77,78
 297 285 297 285 284 285 c 0,79,80
 248 285 248 285 225.5 263 c 128,-1,81
 203 241 203 241 203 204 c 0,82,83
 203 165 203 165 230 126 c 128,-1,84
 257 87 257 87 317 37 c 1,85,-1
 265 -22 l 1,0,1
EndSplineSet
EndChar

StartChar: uni090F
Encoding: 2319 2319 15
Width: 574
GlyphClass: 2
Flags: W
AnchorPoint: "Anchor-7" 202 -50 basechar 0
AnchorPoint: "Anchor-6" 299 -156 basechar 0
AnchorPoint: "Anchor-5" 391 -156 basechar 0
AnchorPoint: "Anchor-1" 514 627 basechar 0
AnchorPoint: "Anchor-0" 514 627 basechar 0
LayerCount: 2
Fore
SplineSet
452 177 m 1,0,-1
 309 267 l 1,1,2
 329 287 329 287 341 310 c 128,-1,3
 353 333 353 333 353 361 c 2,4,-1
 353 502 l 1,5,-1
 220 502 l 1,6,-1
 220 262 l 2,7,8
 220 227 220 227 232.5 204.5 c 128,-1,9
 245 182 245 182 279 160 c 2,10,-1
 438 60 l 2,11,12
 473 38 473 38 499.5 7 c 128,-1,13
 526 -24 526 -24 526 -75 c 0,14,15
 526 -104 526 -104 516.5 -130.5 c 128,-1,16
 507 -157 507 -157 496 -173 c 1,17,-1
 338 -110 l 1,18,19
 364 -78 364 -78 364 -49 c 0,20,21
 364 -23 364 -23 345 -2.5 c 128,-1,22
 326 18 326 18 276 49 c 2,23,-1
 155 125 l 2,24,25
 127 143 127 143 105.5 162 c 128,-1,26
 84 181 84 181 72 211 c 128,-1,27
 60 241 60 241 60 292 c 2,28,-1
 60 502 l 1,29,-1
 -8 502 l 1,30,-1
 -74 611 l 1,31,-1
 -74 627 l 1,32,-1
 582 627 l 1,33,-1
 648 518 l 1,34,-1
 648 502 l 1,35,-1
 514 502 l 1,36,-1
 514 331 l 2,37,38
 514 286 514 286 497 248 c 128,-1,39
 480 210 480 210 452 177 c 1,0,-1
EndSplineSet
EndChar

StartChar: uni093E
Encoding: 2366 2366 30
Width: 280
GlyphClass: 2
Flags: W
AnchorPoint: "Anchor-6" -32 -10 basechar 0
AnchorPoint: "Anchor-5" 220 20 basechar 0
AnchorPoint: "Anchor-1" 220 627 basechar 0
AnchorPoint: "Anchor-0" 220 627 basechar 0
LayerCount: 2
Fore
SplineSet
203 -10 m 1,0,-1
 60 82 l 1,1,-1
 60 502 l 1,2,-1
 -8 502 l 1,3,-1
 -74 611 l 1,4,-1
 -74 627 l 1,5,-1
 288 627 l 1,6,-1
 354 518 l 1,7,-1
 354 502 l 1,8,-1
 220 502 l 1,9,-1
 220 -10 l 1,10,-1
 203 -10 l 1,0,-1
EndSplineSet
EndChar

StartChar: uni0940
Encoding: 2368 2368 32
Width: 280
Flags: W
LayerCount: 2
Fore
SplineSet
203 -10 m 1,0,-1
 60 82 l 1,1,-1
 60 502 l 1,2,-1
 -8 502 l 1,3,-1
 -74 611 l 1,4,-1
 -74 627 l 1,5,-1
 109 627 l 1,6,7
 80 688 80 688 49 720 c 128,-1,8
 18 752 18 752 -28 752 c 0,9,10
 -59 752 -59 752 -78 733.5 c 128,-1,11
 -97 715 -97 715 -97 684 c 0,12,13
 -97 662 -97 662 -90 644 c 128,-1,14
 -83 626 -83 626 -74 613 c 1,15,-1
 -154 613 l 1,16,17
 -186 640 -186 640 -212 681 c 128,-1,18
 -238 722 -238 722 -238 768 c 0,19,20
 -238 825 -238 825 -196 862 c 128,-1,21
 -154 899 -154 899 -87 899 c 0,22,23
 -32 899 -32 899 10.5 875 c 128,-1,24
 53 851 53 851 85.5 811 c 128,-1,25
 118 771 118 771 142.5 723 c 128,-1,26
 167 675 167 675 187 627 c 1,27,-1
 288 627 l 1,28,-1
 354 518 l 1,29,-1
 354 502 l 1,30,-1
 220 502 l 1,31,-1
 220 -10 l 1,32,-1
 203 -10 l 1,0,-1
EndSplineSet
Substitution2: "Single Substitution lookup 845 subtable" uni0940.03
Substitution2: "Single Substitution lookup 843 subtable" uni0940.02
Substitution2: "Single Substitution lookup 841 subtable" uni0940.01
EndChar

StartChar: uni0941
Encoding: 2369 2369 33
Width: 0
GlyphClass: 4
Flags: W
AnchorPoint: "Anchor-11" -80 0 mark 0
AnchorPoint: "Anchor-8" -151 -286 basemark 0
AnchorPoint: "Anchor-8" -80 0 mark 0
AnchorPoint: "Anchor-5" -80 0 mark 0
LayerCount: 2
Fore
SplineSet
-151 -300 m 0,0,1
 -247 -300 -247 -300 -326.5 -251.5 c 128,-1,2
 -406 -203 -406 -203 -477 -119 c 1,3,-1
 -386 -42 l 1,4,5
 -341 -121 -341 -121 -291.5 -158.5 c 128,-1,6
 -242 -196 -242 -196 -201 -196 c 0,7,8
 -157 -196 -157 -196 -125.5 -174.5 c 128,-1,9
 -94 -153 -94 -153 -94 -126 c 0,10,11
 -94 -117 -94 -117 -100 -110.5 c 128,-1,12
 -106 -104 -106 -104 -119 -104 c 0,13,14
 -139 -104 -139 -104 -161.5 -116.5 c 128,-1,15
 -184 -129 -184 -129 -210 -149 c 1,16,-1
 -301 -34 l 1,17,18
 -271 -11 -271 -11 -238.5 2 c 128,-1,19
 -206 15 -206 15 -172 15 c 0,20,21
 -134 15 -134 15 -98 -3.5 c 128,-1,22
 -62 -22 -62 -22 -35 -51 c 0,23,24
 -13 -74 -13 -74 -0.5 -102 c 128,-1,25
 12 -130 12 -130 12 -159 c 0,26,27
 12 -222 12 -222 -32 -261 c 128,-1,28
 -76 -300 -76 -300 -151 -300 c 0,0,1
EndSplineSet
Substitution2: "Single Substitution lookup 822 subtable" uni0941.short
Substitution2: "Single Substitution lookup 821 subtable" uni0941.01
Substitution2: "Single Substitution lookup 231 subtable" uni093C0941.01
Substitution2: "Single Substitution lookup 228 subtable" uni093C0941
EndChar

StartChar: uni0942
Encoding: 2370 2370 34
Width: 0
GlyphClass: 4
Flags: W
AnchorPoint: "Anchor-11" -101 0 mark 0
AnchorPoint: "Anchor-8" -101 0 mark 0
AnchorPoint: "Anchor-5" -101 0 mark 0
LayerCount: 2
Fore
SplineSet
-134 -309 m 0,0,1
 -180 -309 -180 -309 -214.5 -291.5 c 128,-1,2
 -249 -274 -249 -274 -278 -249 c 0,3,4
 -309 -221 -309 -221 -330 -185.5 c 128,-1,5
 -351 -150 -351 -150 -351 -107 c 0,6,7
 -351 -73 -351 -73 -333 -45.5 c 128,-1,8
 -315 -18 -315 -18 -283.5 -1.5 c 128,-1,9
 -252 15 -252 15 -213 15 c 0,10,11
 -168 15 -168 15 -131 1 c 128,-1,12
 -94 -13 -94 -13 -56 -43.5 c 128,-1,13
 -18 -74 -18 -74 27.5 -123.5 c 128,-1,14
 73 -173 73 -173 134 -244 c 1,15,-1
 59 -300 l 1,16,17
 16 -238 16 -238 -16.5 -197 c 128,-1,18
 -49 -156 -49 -156 -80.5 -135 c 128,-1,19
 -112 -114 -112 -114 -155 -114 c 0,20,21
 -192 -114 -192 -114 -214.5 -131 c 128,-1,22
 -237 -148 -237 -148 -237 -171 c 0,23,24
 -237 -185 -237 -185 -227.5 -193 c 128,-1,25
 -218 -201 -218 -201 -202 -201 c 0,26,27
 -179 -201 -179 -201 -152.5 -189 c 128,-1,28
 -126 -177 -126 -177 -96 -156 c 1,29,-1
 -47 -288 l 1,30,31
 -69 -299 -69 -299 -88 -304 c 128,-1,32
 -107 -309 -107 -309 -134 -309 c 0,0,1
EndSplineSet
Substitution2: "Single Substitution lookup 822 subtable" uni0942.short
Substitution2: "Single Substitution lookup 232 subtable" uni093C0942.01
Substitution2: "Single Substitution lookup 229 subtable" uni093C0942
EndChar

StartChar: uni0943
Encoding: 2371 2371 35
Width: 0
GlyphClass: 4
Flags: W
AnchorPoint: "Anchor-11" -62 0 mark 0
AnchorPoint: "Anchor-8" -62 0 mark 0
AnchorPoint: "Anchor-5" -62 0 mark 0
LayerCount: 2
Fore
SplineSet
-68 -285 m 0,0,1
 -107 -285 -107 -285 -148 -268 c 128,-1,2
 -189 -251 -189 -251 -223 -224 c 0,3,4
 -258 -195 -258 -195 -280.5 -159.5 c 128,-1,5
 -303 -124 -303 -124 -303 -90 c 0,6,7
 -303 -4 -303 -4 -168 36 c 1,8,-1
 -60 -51 l 1,9,10
 -123 -72 -123 -72 -153 -92 c 128,-1,11
 -183 -112 -183 -112 -183 -138 c 0,12,13
 -183 -153 -183 -153 -172 -162 c 128,-1,14
 -161 -171 -161 -171 -143 -171 c 0,15,16
 -119 -171 -119 -171 -91.5 -157 c 128,-1,17
 -64 -143 -64 -143 -25 -112 c 1,18,-1
 91 -215 l 1,19,20
 48 -252 48 -252 11 -268.5 c 128,-1,21
 -26 -285 -26 -285 -68 -285 c 0,0,1
EndSplineSet
Substitution2: "Single Substitution lookup 782 subtable" uni0930094D
Substitution2: "Single Substitution lookup 239 subtable" uni094D09300943
Substitution2: "Single Substitution lookup 233 subtable" uni093C0943
EndChar

StartChar: uni0944
Encoding: 2372 2372 36
Width: 0
GlyphClass: 4
Flags: W
AnchorPoint: "Anchor-11" -62 0 mark 0
AnchorPoint: "Anchor-8" -62 0 mark 0
AnchorPoint: "Anchor-5" -62 0 mark 0
LayerCount: 2
Fore
SplineSet
-9 -386 m 0,0,1
 -43 -386 -43 -386 -76.5 -372 c 128,-1,2
 -110 -358 -110 -358 -137 -336 c 0,3,4
 -163 -314 -163 -314 -179.5 -286.5 c 128,-1,5
 -196 -259 -196 -259 -196 -231 c 0,6,7
 -196 -221 -196 -221 -194 -212 c 1,8,9
 -221 -198 -221 -198 -242 -178 c 0,10,11
 -280 -142 -280 -142 -280 -96 c 0,12,13
 -280 -54 -280 -54 -246 -18.5 c 128,-1,14
 -212 17 -212 17 -151 36 c 1,15,-1
 -61 -51 l 1,16,17
 -125 -73 -125 -73 -153 -91 c 128,-1,18
 -181 -109 -181 -109 -181 -132 c 0,19,20
 -181 -152 -181 -152 -158 -157 c 1,21,22
 -125 -129 -125 -129 -63 -107 c 1,23,-1
 31 -191 l 1,24,25
 -41 -212 -41 -212 -70.5 -230 c 128,-1,26
 -100 -248 -100 -248 -100 -271 c 0,27,28
 -100 -282 -100 -282 -91 -289 c 128,-1,29
 -82 -296 -82 -296 -68 -296 c 0,30,31
 -45 -296 -45 -296 -19.5 -284.5 c 128,-1,32
 6 -273 6 -273 45 -245 c 1,33,-1
 128 -330 l 1,34,35
 65 -386 65 -386 -9 -386 c 0,0,1
EndSplineSet
Substitution2: "Single Substitution lookup 782 subtable" uni0930094D
Substitution2: "Single Substitution lookup 240 subtable" uni094D09300944
Substitution2: "Single Substitution lookup 234 subtable" uni093C0944
EndChar

StartChar: uni0962
Encoding: 2402 2402 37
Width: 0
GlyphClass: 4
Flags: W
AnchorPoint: "Anchor-11" -32 0 mark 0
AnchorPoint: "Anchor-8" -32 0 mark 0
AnchorPoint: "Anchor-5" -32 0 mark 0
LayerCount: 2
Fore
SplineSet
-214 -269 m 1,0,1
 -257 -233 -257 -233 -288 -192.5 c 128,-1,2
 -319 -152 -319 -152 -319 -104 c 0,3,4
 -319 -63 -319 -63 -291.5 -37 c 128,-1,5
 -264 -11 -264 -11 -218 -11 c 0,6,7
 -192 -11 -192 -11 -171 -19.5 c 128,-1,8
 -150 -28 -150 -28 -128 -43 c 1,9,10
 -96 -10 -96 -10 -45 -10 c 0,11,12
 -15 -10 -15 -10 11.5 -23 c 128,-1,13
 38 -36 38 -36 58 -58 c 0,14,15
 78 -79 78 -79 90 -104 c 128,-1,16
 102 -129 102 -129 102 -158 c 0,17,18
 102 -180 102 -180 88 -197.5 c 128,-1,19
 74 -215 74 -215 55.5 -228.5 c 128,-1,20
 37 -242 37 -242 23 -253.5 c 128,-1,21
 9 -265 9 -265 9 -276 c 0,22,23
 9 -288 9 -288 23 -288 c 0,24,25
 34 -288 34 -288 48.5 -280.5 c 128,-1,26
 63 -273 63 -273 83 -257 c 1,27,-1
 142 -329 l 1,28,29
 109 -360 109 -360 68 -360 c 0,30,31
 43 -360 43 -360 19.5 -349.5 c 128,-1,32
 -4 -339 -4 -339 -24 -323 c 0,33,34
 -48 -303 -48 -303 -64 -281.5 c 128,-1,35
 -80 -260 -80 -260 -80 -234 c 0,36,37
 -80 -212 -80 -212 -68 -195.5 c 128,-1,38
 -56 -179 -56 -179 -39.5 -165.5 c 128,-1,39
 -23 -152 -23 -152 -11 -139 c 128,-1,40
 1 -126 1 -126 1 -112 c 0,41,42
 1 -101 1 -101 -5.5 -93.5 c 128,-1,43
 -12 -86 -12 -86 -25 -86 c 0,44,45
 -44 -86 -44 -86 -56.5 -102.5 c 128,-1,46
 -69 -119 -69 -119 -69 -140 c 0,47,48
 -69 -154 -69 -154 -66 -172 c 1,49,-1
 -156 -155 l 1,50,51
 -159 -140 -159 -140 -159 -124 c 0,52,53
 -159 -113 -159 -113 -157 -102 c 1,54,55
 -163 -101 -163 -101 -170 -101 c 0,56,57
 -189 -101 -189 -101 -201.5 -113 c 128,-1,58
 -214 -125 -214 -125 -214 -145 c 0,59,60
 -214 -168 -214 -168 -202 -187 c 128,-1,61
 -190 -206 -190 -206 -170 -225 c 1,62,-1
 -214 -269 l 1,0,1
EndSplineSet
Substitution2: "Single Substitution lookup 241 subtable" uni094D09300962
Substitution2: "Single Substitution lookup 235 subtable" uni093C0962
EndChar

StartChar: uni0963
Encoding: 2403 2403 38
Width: 0
GlyphClass: 4
Flags: W
AnchorPoint: "Anchor-11" -32 0 mark 0
AnchorPoint: "Anchor-8" -32 0 mark 0
AnchorPoint: "Anchor-5" -32 0 mark 0
LayerCount: 2
Fore
SplineSet
-213 -269 m 1,0,1
 -256 -233 -256 -233 -287.5 -192.5 c 128,-1,2
 -319 -152 -319 -152 -319 -104 c 0,3,4
 -319 -63 -319 -63 -291.5 -37 c 128,-1,5
 -264 -11 -264 -11 -218 -11 c 0,6,7
 -192 -11 -192 -11 -171 -19.5 c 128,-1,8
 -150 -28 -150 -28 -128 -43 c 1,9,10
 -96 -10 -96 -10 -45 -10 c 0,11,12
 -19 -10 -19 -10 5 -22 c 128,-1,13
 29 -34 29 -34 48 -54 c 0,14,15
 65 -72 65 -72 76 -93 c 128,-1,16
 87 -114 87 -114 87 -137 c 0,17,18
 87 -156 87 -156 77.5 -170 c 128,-1,19
 68 -184 68 -184 55.5 -196 c 128,-1,20
 43 -208 43 -208 33.5 -219 c 128,-1,21
 24 -230 24 -230 24 -242 c 0,22,23
 24 -250 24 -250 32 -256 c 1,24,25
 53 -236 53 -236 95 -224 c 1,26,-1
 158 -293 l 1,27,28
 127 -306 127 -306 108.5 -319 c 128,-1,29
 90 -332 90 -332 90 -345 c 0,30,31
 90 -356 90 -356 105 -356 c 0,32,33
 132 -356 132 -356 166 -322 c 1,34,-1
 231 -379 l 1,35,36
 215 -399 215 -399 195 -410.5 c 128,-1,37
 175 -422 175 -422 148 -422 c 0,38,39
 124 -422 124 -422 100.5 -411.5 c 128,-1,40
 77 -401 77 -401 58 -386 c 0,41,42
 39 -370 39 -370 24.5 -346.5 c 128,-1,43
 10 -323 10 -323 10 -304 c 0,44,45
 10 -299 10 -299 11 -294 c 1,46,47
 -1 -288 -1 -288 -10 -282 c 0,48,49
 -31 -268 -31 -268 -44 -251.5 c 128,-1,50
 -57 -235 -57 -235 -57 -213 c 0,51,52
 -57 -189 -57 -189 -42.5 -172.5 c 128,-1,53
 -28 -156 -28 -156 -13.5 -142 c 128,-1,54
 1 -128 1 -128 1 -112 c 0,55,56
 1 -101 1 -101 -5.5 -93.5 c 128,-1,57
 -12 -86 -12 -86 -25 -86 c 0,58,59
 -44 -86 -44 -86 -56.5 -102.5 c 128,-1,60
 -69 -119 -69 -119 -69 -140 c 0,61,62
 -69 -154 -69 -154 -66 -172 c 1,63,-1
 -156 -155 l 1,64,65
 -159 -140 -159 -140 -159 -124 c 0,66,67
 -159 -113 -159 -113 -157 -102 c 1,68,69
 -163 -101 -163 -101 -170 -101 c 0,70,71
 -189 -101 -189 -101 -201.5 -113 c 128,-1,72
 -214 -125 -214 -125 -214 -146 c 0,73,74
 -214 -168 -214 -168 -201.5 -187 c 128,-1,75
 -189 -206 -189 -206 -169 -225 c 1,76,-1
 -213 -269 l 1,0,1
EndSplineSet
Substitution2: "Single Substitution lookup 242 subtable" uni094D09300963
Substitution2: "Single Substitution lookup 236 subtable" uni093C0963
EndChar

StartChar: uni0947
Encoding: 2375 2375 39
Width: 0
GlyphClass: 4
Flags: W
AnchorPoint: "Anchor-12" 0 628 mark 0
AnchorPoint: "Anchor-3" 0 628 mark 0
AnchorPoint: "Anchor-0" 0 628 mark 0
LayerCount: 2
Fore
SplineSet
-100 614 m 1,0,1
 -114 645 -114 645 -127 668 c 128,-1,2
 -140 691 -140 691 -156 707 c 0,3,4
 -187 740 -187 740 -243 740 c 0,5,6
 -287 740 -287 740 -337 721 c 1,7,-1
 -412 872 l 1,8,9
 -384 883 -384 883 -356.5 888 c 128,-1,10
 -329 893 -329 893 -298 893 c 0,11,12
 -238 893 -238 893 -188 866 c 128,-1,13
 -138 839 -138 839 -96.5 778 c 128,-1,14
 -55 717 -55 717 -19 614 c 1,15,-1
 -100 614 l 1,0,1
EndSplineSet
Substitution2: "Single Substitution lookup 207 subtable" uni0947.alt
EndChar

StartChar: uni0947.alt
Encoding: 65537 -1 40
Width: 0
GlyphClass: 4
Flags: W
AnchorPoint: "Anchor-12" 0 628 mark 0
AnchorPoint: "Anchor-3" 0 628 mark 0
AnchorPoint: "Anchor-0" 0 628 mark 0
LayerCount: 2
Fore
SplineSet
-91 614 m 1,0,-1
 -103 650 l 2,1,2
 -129 730 -129 730 -190 730 c 0,3,4
 -214 730 -214 730 -239 719 c 1,5,-1
 -281 884 l 1,6,7
 -252 893 -252 893 -219 893 c 0,8,9
 -170 893 -170 893 -135.5 872 c 128,-1,10
 -101 851 -101 851 -76 802 c 128,-1,11
 -51 753 -51 753 -32 669 c 2,12,-1
 -19 614 l 1,13,-1
 -91 614 l 1,0,-1
EndSplineSet
EndChar

StartChar: uni0948
Encoding: 2376 2376 41
Width: 0
GlyphClass: 4
Flags: W
AnchorPoint: "Anchor-12" 0 627 mark 0
AnchorPoint: "Anchor-3" 0 627 mark 0
AnchorPoint: "Anchor-0" 0 627 mark 0
LayerCount: 2
Fore
SplineSet
-110 614 m 1,0,1
 -144 649 -144 649 -174 665.5 c 128,-1,2
 -204 682 -204 682 -248 682 c 0,3,4
 -287 682 -287 682 -328 664 c 1,5,-1
 -369 776 l 1,6,7
 -351 783 -351 783 -330.5 787 c 128,-1,8
 -310 791 -310 791 -288 791 c 0,9,10
 -229 791 -229 791 -186 763.5 c 128,-1,11
 -143 736 -143 736 -100 682 c 1,12,-1
 -95 683 l 1,13,14
 -131 755 -131 755 -164.5 785 c 128,-1,15
 -198 815 -198 815 -251 815 c 0,16,17
 -272 815 -272 815 -290 811.5 c 128,-1,18
 -308 808 -308 808 -325 801 c 1,19,-1
 -366 909 l 1,20,21
 -346 917 -346 917 -322 921.5 c 128,-1,22
 -298 926 -298 926 -273 926 c 0,23,24
 -225 926 -225 926 -189 911.5 c 128,-1,25
 -153 897 -153 897 -123.5 861.5 c 128,-1,26
 -94 826 -94 826 -66.5 766 c 128,-1,27
 -39 706 -39 706 -9 614 c 1,28,-1
 -110 614 l 1,0,1
EndSplineSet
EndChar

StartChar: uni0945
Encoding: 2373 2373 44
Width: 0
GlyphClass: 4
Flags: W
AnchorPoint: "Anchor-13" 0 627 mark 0
AnchorPoint: "Anchor-4" -129 814 basemark 0
AnchorPoint: "Anchor-2" 0 627 mark 0
AnchorPoint: "Anchor-1" 0 627 mark 0
LayerCount: 2
Fore
SplineSet
-76 660 m 0,0,1
 -180 660 -180 660 -246.5 717 c 128,-1,2
 -313 774 -313 774 -332 874 c 1,3,-1
 -250 896 l 1,4,5
 -241 841 -241 841 -206.5 806.5 c 128,-1,6
 -172 772 -172 772 -118 772 c 0,7,8
 -63 772 -63 772 -33 806.5 c 128,-1,9
 -3 841 -3 841 5 896 c 1,10,-1
 147 859 l 1,11,12
 131 767 131 767 72 713.5 c 128,-1,13
 13 660 13 660 -76 660 c 0,0,1
EndSplineSet
EndChar

StartChar: uni0946
Encoding: 2374 2374 46
Width: 0
GlyphClass: 4
Flags: W
AnchorPoint: "Anchor-12" 0 627 mark 0
AnchorPoint: "Anchor-3" 0 627 mark 0
AnchorPoint: "Anchor-0" 0 627 mark 0
LayerCount: 2
Fore
SplineSet
-80 612 m 1,0,1
 -90 656 -90 656 -105.5 672 c 128,-1,2
 -121 688 -121 688 -153 688 c 0,3,4
 -177 688 -177 688 -204 686 c 128,-1,5
 -231 684 -231 684 -255 684 c 0,6,7
 -325 684 -325 684 -367 728 c 128,-1,8
 -409 772 -409 772 -432 872 c 1,9,-1
 -356 894 l 1,10,11
 -343 860 -343 860 -323.5 845.5 c 128,-1,12
 -304 831 -304 831 -270 831 c 0,13,14
 -246 831 -246 831 -219 834 c 128,-1,15
 -192 837 -192 837 -168 837 c 0,16,17
 -118 837 -118 837 -85.5 815.5 c 128,-1,18
 -53 794 -53 794 -33.5 745 c 128,-1,19
 -14 696 -14 696 -5 612 c 1,20,-1
 -80 612 l 1,0,1
EndSplineSet
EndChar

StartChar: uni0956
Encoding: 2390 2390 48
Width: 0
GlyphClass: 4
Flags: W
AnchorPoint: "Anchor-14" -345 0 mark 0
AnchorPoint: "Anchor-9" -345 0 mark 0
AnchorPoint: "Anchor-6" -345 0 mark 0
LayerCount: 2
Fore
SplineSet
-318 -202 m 0,0,1
 -390 -202 -390 -202 -450.5 -171 c 128,-1,2
 -511 -140 -511 -140 -560 -85 c 1,3,-1
 -514 -40 l 1,4,5
 -439 -103 -439 -103 -346 -103 c 0,6,7
 -296 -103 -296 -103 -254.5 -85 c 128,-1,8
 -213 -67 -213 -67 -177 -33 c 1,9,-1
 -98 -112 l 1,10,11
 -139 -152 -139 -152 -194.5 -177 c 128,-1,12
 -250 -202 -250 -202 -318 -202 c 0,0,1
EndSplineSet
EndChar

StartChar: uni0957
Encoding: 2391 2391 49
Width: 0
GlyphClass: 4
Flags: W
AnchorPoint: "Anchor-14" -345 0 mark 0
AnchorPoint: "Anchor-9" -345 0 mark 0
AnchorPoint: "Anchor-6" -345 0 mark 0
LayerCount: 2
Fore
SplineSet
-318 -202 m 0,0,1
 -390 -202 -390 -202 -450.5 -171 c 128,-1,2
 -511 -140 -511 -140 -560 -85 c 1,3,-1
 -514 -40 l 1,4,5
 -439 -103 -439 -103 -346 -103 c 0,6,7
 -296 -103 -296 -103 -254.5 -85 c 128,-1,8
 -213 -67 -213 -67 -177 -33 c 1,9,-1
 -98 -112 l 1,10,11
 -139 -152 -139 -152 -194.5 -177 c 128,-1,12
 -250 -202 -250 -202 -318 -202 c 0,0,1
-318 -365 m 0,13,14
 -390 -365 -390 -365 -450.5 -334 c 128,-1,15
 -511 -303 -511 -303 -560 -248 c 1,16,-1
 -514 -203 l 1,17,18
 -439 -266 -439 -266 -346 -266 c 0,19,20
 -296 -266 -296 -266 -254.5 -248 c 128,-1,21
 -213 -230 -213 -230 -177 -196 c 1,22,-1
 -98 -275 l 1,23,24
 -139 -315 -139 -315 -194.5 -340 c 128,-1,25
 -250 -365 -250 -365 -318 -365 c 0,13,14
EndSplineSet
EndChar

StartChar: uni093A
Encoding: 2362 2362 50
Width: 0
GlyphClass: 4
Flags: W
AnchorPoint: "Anchor-12" -56 627 mark 0
AnchorPoint: "Anchor-3" 113 662 basemark 0
AnchorPoint: "Anchor-3" -56 627 mark 0
AnchorPoint: "Anchor-2" 218 622 basemark 0
AnchorPoint: "Anchor-0" -56 627 mark 0
LayerCount: 2
Fore
SplineSet
-198 828 m 1,0,-1
 -56 743 l 1,1,-1
 -56 613 l 1,2,-1
 -214 613 l 1,3,-1
 -214 828 l 1,4,-1
 -198 828 l 1,0,-1
EndSplineSet
EndChar

StartChar: uni094F
Encoding: 2383 2383 52
Width: 280
GlyphClass: 2
Flags: W
AnchorPoint: "Anchor-1" 466 621 basechar 0
AnchorPoint: "Anchor-0" 388 694 basechar 0
LayerCount: 2
Fore
SplineSet
203 -10 m 1,0,-1
 60 82 l 1,1,-1
 60 502 l 1,2,-1
 -8 502 l 1,3,-1
 -74 611 l 1,4,-1
 -74 627 l 1,5,-1
 49 627 l 1,6,7
 47 642 47 642 34.5 653.5 c 128,-1,8
 22 665 22 665 -6 665 c 0,9,10
 -31 665 -31 665 -61.5 661.5 c 128,-1,11
 -92 658 -92 658 -121 658 c 0,12,13
 -196 658 -196 658 -231.5 704 c 128,-1,14
 -267 750 -267 750 -281 826 c 1,15,-1
 -218 842 l 1,16,17
 -211 814 -211 814 -191.5 799 c 128,-1,18
 -172 784 -172 784 -137 784 c 0,19,20
 -110 784 -110 784 -78.5 787.5 c 128,-1,21
 -47 791 -47 791 -22 791 c 0,22,23
 28 791 28 791 59 771 c 128,-1,24
 90 751 90 751 104.5 718 c 128,-1,25
 119 685 119 685 119 644 c 0,26,27
 119 637 119 637 118 627 c 1,28,-1
 150 627 l 1,29,30
 153 641 153 641 153 654 c 0,31,32
 153 696 153 696 141 724 c 128,-1,33
 129 752 129 752 93 770 c 0,34,35
 72 781 72 781 47 796.5 c 128,-1,36
 22 812 22 812 4 833 c 128,-1,37
 -14 854 -14 854 -14 880 c 0,38,39
 -14 897 -14 897 -10.5 908 c 128,-1,40
 -7 919 -7 919 0 930 c 1,41,-1
 70 926 l 1,42,43
 69 921 69 921 69 916 c 0,44,45
 69 900 69 900 92.5 887.5 c 128,-1,46
 116 875 116 875 148 863 c 0,47,48
 244 827 244 827 244 728 c 0,49,50
 244 705 244 705 237.5 680 c 128,-1,51
 231 655 231 655 219 627 c 1,52,-1
 288 627 l 1,53,-1
 354 518 l 1,54,-1
 354 502 l 1,55,-1
 220 502 l 1,56,-1
 220 -10 l 1,57,-1
 203 -10 l 1,0,-1
EndSplineSet
EndChar

StartChar: uni094E
Encoding: 2382 2382 53
Width: 289
GlyphClass: 2
Flags: W
AnchorPoint: "Anchor-1" 229 627 basechar 0
AnchorPoint: "Anchor-0" 229 627 basechar 0
LayerCount: 2
Fore
SplineSet
212 -10 m 1,0,-1
 69 82 l 1,1,-1
 69 502 l 1,2,-1
 3 611 l 1,3,-1
 3 627 l 1,4,-1
 297 627 l 1,5,-1
 363 518 l 1,6,-1
 363 502 l 1,7,-1
 229 502 l 1,8,-1
 229 -10 l 1,9,-1
 212 -10 l 1,0,-1
EndSplineSet
EndChar

StartChar: uni0955
Encoding: 2389 2389 54
Width: 0
GlyphClass: 4
Flags: W
AnchorPoint: "Anchor-13" 0 627 mark 0
AnchorPoint: "Anchor-2" 0 627 mark 0
AnchorPoint: "Anchor-1" 0 627 mark 0
LayerCount: 2
Fore
SplineSet
-77 773 m 256,0,1
 -171 773 -171 773 -237 810.5 c 128,-1,2
 -303 848 -303 848 -321 907 c 1,3,-1
 -239 930 l 1,4,5
 -229 908 -229 908 -196.5 886.5 c 128,-1,6
 -164 865 -164 865 -111 865 c 0,7,8
 -57 865 -57 865 -25.5 886.5 c 128,-1,9
 6 908 6 908 16 930 c 1,10,-1
 158 892 l 1,11,12
 142 840 142 840 79.5 806.5 c 128,-1,13
 17 773 17 773 -77 773 c 256,0,1
-259 667 m 1,14,-1
 -304 741 l 1,15,-1
 -304 757 l 1,16,-1
 109 757 l 1,17,-1
 154 683 l 1,18,-1
 154 667 l 1,19,-1
 -259 667 l 1,14,-1
EndSplineSet
EndChar

StartChar: uni0915
Encoding: 2325 2325 55
Width: 758
GlyphClass: 2
Flags: W
AnchorPoint: "Anchor-7" 154 22 basechar 0
AnchorPoint: "Anchor-6" 379 -10 basechar 0
AnchorPoint: "Anchor-5" 484 20 basechar 0
AnchorPoint: "Anchor-1" 484 627 basechar 0
AnchorPoint: "Anchor-0" 484 627 basechar 0
LayerCount: 2
Fore
SplineSet
271 113 m 0,0,1
 228 113 228 113 185 129 c 128,-1,2
 142 145 142 145 108 170 c 0,3,4
 71 198 71 198 48.5 235.5 c 128,-1,5
 26 273 26 273 26 316 c 0,6,7
 26 357 26 357 46.5 388 c 128,-1,8
 67 419 67 419 102.5 436.5 c 128,-1,9
 138 454 138 454 181 454 c 0,10,11
 223 454 223 454 258.5 441 c 128,-1,12
 294 428 294 428 323 409 c 1,13,-1
 323 502 l 1,14,-1
 -8 502 l 1,15,-1
 -74 611 l 1,16,-1
 -74 627 l 1,17,-1
 766 627 l 1,18,-1
 832 518 l 1,19,-1
 832 502 l 1,20,-1
 484 502 l 1,21,-1
 484 397 l 1,22,23
 498 404 498 404 514 407.5 c 128,-1,24
 530 411 530 411 550 411 c 0,25,26
 592 411 592 411 626.5 393.5 c 128,-1,27
 661 376 661 376 685 348 c 0,28,29
 731 294 731 294 731 230 c 0,30,31
 731 178 731 178 713.5 134.5 c 128,-1,32
 696 91 696 91 663 52 c 1,33,-1
 538 146 l 1,34,35
 584 189 584 189 609 220 c 128,-1,36
 634 251 634 251 634 274 c 0,37,38
 634 301 634 301 606 301 c 0,39,40
 581 301 581 301 551.5 283 c 128,-1,41
 522 265 522 265 484 232 c 1,42,-1
 484 -10 l 1,43,-1
 467 -10 l 1,44,-1
 323 82 l 1,45,-1
 323 124 l 1,46,47
 296 113 296 113 271 113 c 0,0,1
141 262 m 0,48,49
 141 243 141 243 154.5 232.5 c 128,-1,50
 168 222 168 222 191 222 c 0,51,52
 222 222 222 222 254.5 236.5 c 128,-1,53
 287 251 287 251 323 279 c 1,54,-1
 323 324 l 1,55,56
 309 329 309 329 292 331.5 c 128,-1,57
 275 334 275 334 256 334 c 0,58,59
 204 334 204 334 172.5 313 c 128,-1,60
 141 292 141 292 141 262 c 0,48,49
EndSplineSet
EndChar

StartChar: uni0916
Encoding: 2326 2326 56
Width: 782
GlyphClass: 2
Flags: W
AnchorPoint: "Anchor-7" 122 -18 basechar 0
AnchorPoint: "Anchor-6" 391 -10 basechar 0
AnchorPoint: "Anchor-5" 722 10 basechar 0
AnchorPoint: "Anchor-1" 722 627 basechar 0
AnchorPoint: "Anchor-0" 722 627 basechar 0
LayerCount: 2
Fore
SplineSet
436 -1 m 0,0,1
 243 -1 243 -1 98 174 c 0,2,3
 25 264 25 264 25 316 c 0,4,5
 25 380 25 380 96 380 c 0,6,7
 128 380 128 380 162 366 c 1,8,9
 176 399 176 399 176 437 c 0,10,11
 176 466 176 466 167 502 c 1,12,-1
 -8 502 l 1,13,-1
 -74 611 l 1,14,-1
 -74 627 l 1,15,-1
 790 627 l 1,16,-1
 856 518 l 1,17,-1
 856 502 l 1,18,-1
 722 502 l 1,19,-1
 722 -10 l 1,20,-1
 705 -10 l 1,21,-1
 612 49 l 1,22,23
 537 -1 537 -1 436 -1 c 0,0,1
541 177 m 0,24,25
 504 177 504 177 469.5 190.5 c 128,-1,26
 435 204 435 204 407 226 c 0,27,28
 379 249 379 249 361.5 279.5 c 128,-1,29
 344 310 344 310 344 342 c 0,30,31
 344 396 344 396 381 431 c 128,-1,32
 418 466 418 466 476 466 c 0,33,34
 530 466 530 466 573 432 c 1,35,-1
 573 502 l 1,36,-1
 294 502 l 1,37,38
 311 436 311 436 311 383 c 0,39,40
 311 251 311 251 175 219 c 1,41,42
 202 176 202 176 257.5 150.5 c 128,-1,43
 313 125 313 125 384 125 c 0,44,45
 435 125 435 125 480 136 c 128,-1,46
 525 147 525 147 573 171 c 1,47,-1
 573 181 l 1,48,49
 558 177 558 177 541 177 c 0,24,25
449 306 m 0,50,51
 449 292 449 292 459.5 282.5 c 128,-1,52
 470 273 470 273 486 273 c 0,53,54
 507 273 507 273 527 286 c 128,-1,55
 547 299 547 299 573 331 c 1,56,-1
 573 349 l 1,57,58
 553 355 553 355 527 355 c 0,59,60
 493 355 493 355 471 341.5 c 128,-1,61
 449 328 449 328 449 306 c 0,50,51
EndSplineSet
EndChar

StartChar: uni0917
Encoding: 2327 2327 57
Width: 587
GlyphClass: 2
Flags: W
AnchorPoint: "Anchor-7" 161 63 basechar 0
AnchorPoint: "Anchor-6" 293 -10 basechar 0
AnchorPoint: "Anchor-5" 527 20 basechar 0
AnchorPoint: "Anchor-1" 527 627 basechar 0
AnchorPoint: "Anchor-0" 527 627 basechar 0
LayerCount: 2
Fore
SplineSet
186 159 m 0,0,1
 158 159 158 159 128 174 c 128,-1,2
 98 189 98 189 72.5 213 c 128,-1,3
 47 237 47 237 31.5 264.5 c 128,-1,4
 16 292 16 292 16 316 c 0,5,6
 16 343 16 343 32.5 357.5 c 128,-1,7
 49 372 49 372 78 372 c 0,8,9
 90 372 90 372 102 370 c 1,10,11
 105 382 105 382 105 424 c 0,12,13
 105 465 105 465 103 502 c 1,14,-1
 -8 502 l 1,15,-1
 -74 611 l 1,16,-1
 -74 627 l 1,17,-1
 595 627 l 1,18,-1
 661 518 l 1,19,-1
 661 502 l 1,20,-1
 527 502 l 1,21,-1
 527 -10 l 1,22,-1
 510 -10 l 1,23,-1
 366 82 l 1,24,-1
 366 502 l 1,25,-1
 246 502 l 1,26,27
 255 446 255 446 262 387.5 c 128,-1,28
 269 329 269 329 269 287 c 0,29,30
 269 217 269 217 247.5 188 c 128,-1,31
 226 159 226 159 186 159 c 0,0,1
EndSplineSet
EndChar

StartChar: uni0918
Encoding: 2328 2328 58
Width: 603
GlyphClass: 2
Flags: W
AnchorPoint: "Anchor-7" 191 4 basechar 0
AnchorPoint: "Anchor-6" 301 -10 basechar 0
AnchorPoint: "Anchor-5" 543 20 basechar 0
AnchorPoint: "Anchor-1" 543 627 basechar 0
AnchorPoint: "Anchor-0" 543 627 basechar 0
LayerCount: 2
Fore
SplineSet
282 104 m 0,0,1
 241 104 241 104 209.5 116.5 c 128,-1,2
 178 129 178 129 146 153 c 0,3,4
 109 180 109 180 80.5 212 c 128,-1,5
 52 244 52 244 52 284 c 0,6,7
 52 346 52 346 119 384 c 1,8,9
 75 405 75 405 48.5 432.5 c 128,-1,10
 22 460 22 460 22 499 c 0,11,12
 22 501 22 501 22 502 c 1,13,-1
 -8 502 l 1,14,-1
 -74 611 l 1,15,-1
 -74 627 l 1,16,-1
 611 627 l 1,17,-1
 677 518 l 1,18,-1
 677 502 l 1,19,-1
 543 502 l 1,20,-1
 543 -10 l 1,21,-1
 526 -10 l 1,22,-1
 383 82 l 1,23,-1
 383 132 l 1,24,25
 361 118 361 118 336.5 111 c 128,-1,26
 312 104 312 104 282 104 c 0,0,1
177 237 m 0,27,28
 177 223 177 223 188.5 214.5 c 128,-1,29
 200 206 200 206 218 206 c 0,30,31
 251 206 251 206 294 229.5 c 128,-1,32
 337 253 337 253 383 297 c 1,33,-1
 383 502 l 1,34,-1
 160 502 l 1,35,36
 157 491 157 491 157 479 c 0,37,38
 157 443 157 443 192 413 c 1,39,40
 222 421 222 421 259 426 c 1,41,-1
 336 308 l 1,42,43
 263 301 263 301 220 283 c 128,-1,44
 177 265 177 265 177 237 c 0,27,28
EndSplineSet
EndChar

StartChar: uni0919
Encoding: 2329 2329 59
Width: 600
GlyphClass: 2
Flags: W
AnchorPoint: "Anchor-7" 317 -119 basechar 0
AnchorPoint: "Anchor-6" 297 0 basechar 0
AnchorPoint: "Anchor-5" 374 -14 basechar 0
AnchorPoint: "Anchor-1" 434 627 basechar 0
AnchorPoint: "Anchor-0" 434 627 basechar 0
LayerCount: 2
Fore
SplineSet
325 -3 m 0,0,1
 257 -3 257 -3 198 25.5 c 128,-1,2
 139 54 139 54 93 97 c 128,-1,3
 47 140 47 140 17 183 c 1,4,-1
 77 230 l 1,5,6
 115 180 115 180 170.5 148 c 128,-1,7
 226 116 226 116 284 116 c 0,8,9
 319 116 319 116 349.5 123.5 c 128,-1,10
 380 131 380 131 399 144 c 128,-1,11
 418 157 418 157 418 173 c 0,12,13
 418 195 418 195 390 195 c 0,14,15
 365 195 365 195 338 182.5 c 128,-1,16
 311 170 311 170 277 146 c 1,17,18
 198 187 198 187 147 238.5 c 128,-1,19
 96 290 96 290 96 348 c 0,20,21
 96 404 96 404 141 434 c 128,-1,22
 186 464 186 464 258 464 c 0,23,24
 272 464 272 464 283 464 c 1,25,-1
 283 502 l 1,26,-1
 -8 502 l 1,27,-1
 -74 611 l 1,28,-1
 -74 627 l 1,29,-1
 608 627 l 1,30,-1
 674 518 l 1,31,-1
 674 502 l 1,32,-1
 434 502 l 1,33,-1
 434 353 l 1,34,35
 420 355 420 355 400 355.5 c 128,-1,36
 380 356 380 356 361 356 c 0,37,38
 291 356 291 356 251.5 339.5 c 128,-1,39
 212 323 212 323 212 295 c 0,40,41
 212 290 212 290 214 285 c 128,-1,42
 216 280 216 280 218 276 c 1,43,44
 247 296 247 296 276.5 307 c 128,-1,45
 306 318 306 318 340 318 c 0,46,47
 377 318 377 318 412 302 c 128,-1,48
 447 286 447 286 472 259 c 0,49,50
 492 237 492 237 504 208.5 c 128,-1,51
 516 180 516 180 516 150 c 0,52,53
 516 80 516 80 463.5 38.5 c 128,-1,54
 411 -3 411 -3 325 -3 c 0,0,1
531 277 m 0,55,56
 470 277 470 277 470 344 c 0,57,58
 470 410 470 410 531 410 c 0,59,60
 594 410 594 410 594 344 c 0,61,62
 594 277 594 277 531 277 c 0,55,56
EndSplineSet
EndChar

StartChar: uni091A
Encoding: 2330 2330 60
Width: 658
GlyphClass: 2
Flags: W
AnchorPoint: "Anchor-7" 190 27 basechar 0
AnchorPoint: "Anchor-6" 329 -10 basechar 0
AnchorPoint: "Anchor-5" 598 20 basechar 0
AnchorPoint: "Anchor-1" 598 627 basechar 0
AnchorPoint: "Anchor-0" 598 627 basechar 0
LayerCount: 2
Fore
SplineSet
365 105 m 0,0,1
 323 105 323 105 281.5 122.5 c 128,-1,2
 240 140 240 140 207 167 c 256,3,4
 174 194 174 194 153.5 228.5 c 128,-1,5
 133 263 133 263 133 300 c 0,6,7
 133 312 133 312 137 325 c 1,8,-1
 87 325 l 1,9,-1
 16 429 l 1,10,-1
 16 445 l 1,11,-1
 323 445 l 1,12,-1
 394 341 l 1,13,-1
 395 325 l 1,14,-1
 383 325 l 2,15,16
 346 325 346 325 315 315 c 128,-1,17
 284 305 284 305 265 288.5 c 128,-1,18
 246 272 246 272 246 250 c 0,19,20
 246 235 246 235 258 225 c 128,-1,21
 270 215 270 215 290 215 c 0,22,23
 323 215 323 215 357.5 236 c 128,-1,24
 392 257 392 257 438 304 c 1,25,-1
 438 502 l 1,26,-1
 -8 502 l 1,27,-1
 -74 611 l 1,28,-1
 -74 627 l 1,29,-1
 666 627 l 1,30,-1
 732 518 l 1,31,-1
 732 502 l 1,32,-1
 598 502 l 1,33,-1
 598 -10 l 1,34,-1
 581 -10 l 1,35,-1
 438 82 l 1,36,-1
 438 125 l 1,37,38
 406 105 406 105 365 105 c 0,0,1
EndSplineSet
EndChar

StartChar: uni091B
Encoding: 2331 2331 61
Width: 667
GlyphClass: 2
Flags: W
AnchorPoint: "Anchor-7" 341 -119 basechar 0
AnchorPoint: "Anchor-6" 334 -30 basechar 0
AnchorPoint: "Anchor-5" 484 -22 basechar 0
AnchorPoint: "Anchor-1" 555 627 basechar 0
AnchorPoint: "Anchor-0" 555 627 basechar 0
LayerCount: 2
Fore
SplineSet
339 -8 m 0,0,1
 290 -8 290 -8 245.5 7.5 c 128,-1,2
 201 23 201 23 167 48 c 0,3,4
 129 77 129 77 106 113 c 128,-1,5
 83 149 83 149 83 185 c 0,6,7
 83 229 83 229 113 260 c 1,8,9
 74 277 74 277 52.5 306 c 128,-1,10
 31 335 31 335 31 368 c 0,11,12
 31 416 31 416 67.5 445.5 c 128,-1,13
 104 475 104 475 162 475 c 0,14,15
 242 475 242 475 293 424 c 1,16,-1
 271 364 l 1,17,18
 262 368 262 368 252.5 370 c 128,-1,19
 243 372 243 372 232 372 c 0,20,21
 208 372 208 372 192.5 359.5 c 128,-1,22
 177 347 177 347 177 327 c 0,23,24
 177 314 177 314 184 302 c 1,25,26
 225 316 225 316 280 319 c 1,27,-1
 323 190 l 1,28,29
 222 183 222 183 222 140 c 0,30,31
 222 123 222 123 239 112.5 c 128,-1,32
 256 102 256 102 284 102 c 0,33,34
 331 102 331 102 376 124.5 c 128,-1,35
 421 147 421 147 455 182 c 1,36,37
 392 216 392 216 357.5 261.5 c 128,-1,38
 323 307 323 307 323 357 c 0,39,40
 323 400 323 400 346 429.5 c 128,-1,41
 369 459 369 459 406 470 c 1,42,-1
 406 502 l 1,43,-1
 -8 502 l 1,44,-1
 -74 611 l 1,45,-1
 -74 627 l 1,46,-1
 676 627 l 1,47,-1
 742 518 l 1,48,-1
 742 502 l 1,49,-1
 555 502 l 1,50,-1
 555 430 l 1,51,-1
 555 430 l 1,52,53
 569 417 569 417 581 402 c 0,54,55
 605 371 605 371 619 331 c 128,-1,56
 633 291 633 291 633 246 c 0,57,58
 633 195 633 195 610.5 149 c 128,-1,59
 588 103 588 103 548 68 c 128,-1,60
 508 33 508 33 454.5 12.5 c 128,-1,61
 401 -8 401 -8 339 -8 c 0,0,1
445 336 m 0,62,63
 445 285 445 285 498 242 c 1,64,65
 520 285 520 285 520 327 c 0,66,67
 520 351 520 351 510 367.5 c 128,-1,68
 500 384 500 384 483 384 c 0,69,70
 465 384 465 384 455 370 c 128,-1,71
 445 356 445 356 445 336 c 0,62,63
EndSplineSet
EndChar

StartChar: uni091C
Encoding: 2332 2332 62
Width: 721
GlyphClass: 2
Flags: W
AnchorPoint: "Anchor-7" 248 -37 basechar 0
AnchorPoint: "Anchor-6" 360 -10 basechar 0
AnchorPoint: "Anchor-5" 661 20 basechar 0
AnchorPoint: "Anchor-1" 661 627 basechar 0
AnchorPoint: "Anchor-0" 661 627 basechar 0
LayerCount: 2
Fore
SplineSet
305 70 m 0,0,1
 211 70 211 70 140.5 151 c 128,-1,2
 70 232 70 232 31 386 c 1,3,-1
 107 410 l 1,4,5
 138 307 138 307 173.5 258.5 c 128,-1,6
 209 210 209 210 254 210 c 0,7,8
 305 210 305 210 305 264 c 0,9,10
 305 321 305 321 247 384 c 1,11,-1
 277 436 l 1,12,-1
 501 436 l 1,13,-1
 501 502 l 1,14,-1
 -8 502 l 1,15,-1
 -74 611 l 1,16,-1
 -74 627 l 1,17,-1
 729 627 l 1,18,-1
 795 518 l 1,19,-1
 795 502 l 1,20,-1
 661 502 l 1,21,-1
 661 -10 l 1,22,-1
 644 -10 l 1,23,-1
 501 82 l 1,24,-1
 501 309 l 1,25,-1
 476 309 l 2,26,27
 452 309 452 309 430 310 c 128,-1,28
 408 311 408 311 390 313 c 1,29,30
 409 283 409 283 419 254 c 128,-1,31
 429 225 429 225 429 195 c 0,32,33
 429 135 429 135 396.5 102.5 c 128,-1,34
 364 70 364 70 305 70 c 0,0,1
EndSplineSet
EndChar

StartChar: uni091D
Encoding: 2333 2333 63
Width: 759
GlyphClass: 2
Flags: W
AnchorPoint: "Anchor-7" 132 -103 basechar 0
AnchorPoint: "Anchor-6" 369 -115 basechar 0
AnchorPoint: "Anchor-5" 699 20 basechar 0
AnchorPoint: "Anchor-1" 699 627 basechar 0
AnchorPoint: "Anchor-0" 699 627 basechar 0
LayerCount: 2
Fore
SplineSet
344 -161 m 1,0,1
 303 -130 303 -130 268 -88 c 128,-1,2
 233 -46 233 -46 208 -4 c 1,3,4
 172 1 172 1 137.5 14 c 128,-1,5
 103 27 103 27 81 48.5 c 128,-1,6
 59 70 59 70 59 102 c 0,7,8
 59 135 59 135 80.5 151 c 128,-1,9
 102 167 102 167 128 167 c 0,10,11
 165 167 165 167 190.5 147.5 c 128,-1,12
 216 128 216 128 238 102 c 1,13,14
 271 104 271 104 302.5 114.5 c 128,-1,15
 334 125 334 125 354.5 141 c 128,-1,16
 375 157 375 157 375 174 c 0,17,18
 375 201 375 201 345 201 c 0,19,20
 320 201 320 201 291.5 188.5 c 128,-1,21
 263 176 263 176 228 153 c 1,22,23
 152 191 152 191 102.5 242 c 128,-1,24
 53 293 53 293 53 350 c 0,25,26
 53 405 53 405 97.5 434.5 c 128,-1,27
 142 464 142 464 212 464 c 0,28,29
 230 464 230 464 245 464 c 1,30,-1
 245 502 l 1,31,-1
 -8 502 l 1,32,-1
 -74 611 l 1,33,-1
 -74 627 l 1,34,-1
 767 627 l 1,35,-1
 833 518 l 1,36,-1
 833 502 l 1,37,-1
 699 502 l 1,38,-1
 699 -10 l 1,39,-1
 682 -10 l 1,40,-1
 539 82 l 1,41,-1
 539 191 l 1,42,43
 526 189 526 189 512 189 c 0,44,45
 490 189 490 189 464 199 c 1,46,47
 473 174 473 174 473 148 c 0,48,49
 473 108 473 108 450 76.5 c 128,-1,50
 427 45 427 45 389 25 c 128,-1,51
 351 5 351 5 305 -3 c 1,52,53
 335 -20 335 -20 369 -35 c 128,-1,54
 403 -50 403 -50 429 -58 c 1,55,-1
 344 -161 l 1,0,1
168 296 m 0,56,57
 168 288 168 288 171.5 282 c 128,-1,58
 175 276 175 276 179 272 c 1,59,60
 210 291 210 291 242.5 301.5 c 128,-1,61
 275 312 275 312 309 312 c 256,62,63
 343 312 343 312 370 307 c 128,-1,64
 397 302 397 302 423.5 297 c 128,-1,65
 450 292 450 292 479 292 c 0,66,67
 496 292 496 292 511 296 c 128,-1,68
 526 300 526 300 539 307 c 1,69,-1
 539 502 l 1,70,-1
 402 502 l 1,71,-1
 402 353 l 1,72,73
 388 355 388 355 368 355.5 c 128,-1,74
 348 356 348 356 328 356 c 0,75,76
 253 356 253 356 210.5 339.5 c 128,-1,77
 168 323 168 323 168 296 c 0,56,57
EndSplineSet
Substitution2: "Single Substitution lookup 819 subtable" uni091D.short
Substitution2: "'locl' Localized Forms lookup 746 subtable" uni091D.NEP
EndChar

StartChar: uni091D.short
Encoding: 65538 -1 64
Width: 759
GlyphClass: 2
Flags: W
AnchorPoint: "Anchor-7" 132 -103 basechar 0
AnchorPoint: "Anchor-6" 379 0 basechar 0
AnchorPoint: "Anchor-5" 699 20 basechar 0
AnchorPoint: "Anchor-1" 699 627 basechar 0
AnchorPoint: "Anchor-0" 699 627 basechar 0
LayerCount: 2
Fore
SplineSet
267 -132 m 1,0,-1
 207 -4 l 1,1,2
 171 1 171 1 137 14 c 128,-1,3
 103 27 103 27 81 48.5 c 128,-1,4
 59 70 59 70 59 102 c 0,5,6
 59 135 59 135 80.5 151 c 128,-1,7
 102 167 102 167 128 167 c 0,8,9
 165 167 165 167 190.5 147.5 c 128,-1,10
 216 128 216 128 238 102 c 1,11,12
 271 104 271 104 302.5 114.5 c 128,-1,13
 334 125 334 125 354.5 141 c 128,-1,14
 375 157 375 157 375 174 c 0,15,16
 375 201 375 201 345 201 c 0,17,18
 320 201 320 201 291.5 188.5 c 128,-1,19
 263 176 263 176 228 153 c 1,20,21
 152 191 152 191 102.5 242 c 128,-1,22
 53 293 53 293 53 350 c 0,23,24
 53 405 53 405 97.5 434.5 c 128,-1,25
 142 464 142 464 212 464 c 0,26,27
 230 464 230 464 245 464 c 1,28,-1
 245 502 l 1,29,-1
 -8 502 l 1,30,-1
 -74 611 l 1,31,-1
 -74 627 l 1,32,-1
 767 627 l 1,33,-1
 833 518 l 1,34,-1
 833 502 l 1,35,-1
 699 502 l 1,36,-1
 699 -10 l 1,37,-1
 682 -10 l 1,38,-1
 539 82 l 1,39,-1
 539 191 l 1,40,41
 526 189 526 189 512 189 c 0,42,43
 490 189 490 189 464 199 c 1,44,45
 473 174 473 174 473 148 c 0,46,47
 473 108 473 108 450.5 77 c 128,-1,48
 428 46 428 46 390 25.5 c 128,-1,49
 352 5 352 5 306 -3 c 1,50,-1
 381 -73 l 1,51,-1
 267 -132 l 1,0,-1
168 296 m 0,52,53
 168 288 168 288 171.5 282 c 128,-1,54
 175 276 175 276 179 272 c 1,55,56
 210 291 210 291 242.5 301.5 c 128,-1,57
 275 312 275 312 309 312 c 256,58,59
 343 312 343 312 370 307 c 128,-1,60
 397 302 397 302 423.5 297 c 128,-1,61
 450 292 450 292 479 292 c 0,62,63
 496 292 496 292 511 296 c 128,-1,64
 526 300 526 300 539 307 c 1,65,-1
 539 502 l 1,66,-1
 402 502 l 1,67,-1
 402 353 l 1,68,69
 388 355 388 355 368 355.5 c 128,-1,70
 348 356 348 356 328 356 c 0,71,72
 253 356 253 356 210.5 339.5 c 128,-1,73
 168 323 168 323 168 296 c 0,52,53
EndSplineSet
EndChar

StartChar: uni091E
Encoding: 2334 2334 65
Width: 739
GlyphClass: 2
Flags: W
AnchorPoint: "Anchor-7" 289 -37 basechar 0
AnchorPoint: "Anchor-6" 369 -10 basechar 0
AnchorPoint: "Anchor-5" 679 20 basechar 0
AnchorPoint: "Anchor-1" 679 627 basechar 0
AnchorPoint: "Anchor-0" 679 627 basechar 0
LayerCount: 2
Fore
SplineSet
311 86 m 0,0,1
 219 86 219 86 148.5 148 c 128,-1,2
 78 210 78 210 22 343 c 1,3,-1
 99 377 l 1,4,5
 126 320 126 320 149.5 286.5 c 128,-1,6
 173 253 173 253 200 238.5 c 128,-1,7
 227 224 227 224 262 224 c 256,8,9
 297 224 297 224 324 242 c 128,-1,10
 351 260 351 260 351 282 c 0,11,12
 351 310 351 310 319 310 c 0,13,14
 298 310 298 310 277 301.5 c 128,-1,15
 256 293 256 293 230 276 c 1,16,-1
 158 429 l 1,17,18
 190 446 190 446 220.5 453 c 128,-1,19
 251 460 251 460 281 460 c 0,20,21
 320 460 320 460 357 438.5 c 128,-1,22
 394 417 394 417 420 382 c 0,23,24
 439 356 439 356 451 324 c 1,25,26
 485 326 485 326 518 344 c 1,27,-1
 518 502 l 1,28,-1
 -8 502 l 1,29,-1
 -74 611 l 1,30,-1
 -74 627 l 1,31,-1
 747 627 l 1,32,-1
 813 518 l 1,33,-1
 813 502 l 1,34,-1
 679 502 l 1,35,-1
 679 -10 l 1,36,-1
 662 -10 l 1,37,-1
 518 82 l 1,38,-1
 518 234 l 1,39,40
 504 232 504 232 488 232 c 0,41,42
 478 232 478 232 469 233 c 1,43,-1
 469 231 l 2,44,45
 469 189 469 189 448.5 156 c 128,-1,46
 428 123 428 123 392.5 104.5 c 128,-1,47
 357 86 357 86 311 86 c 0,0,1
EndSplineSet
EndChar

StartChar: uni091F
Encoding: 2335 2335 66
Width: 500
GlyphClass: 2
Flags: W
AnchorPoint: "Anchor-7" 299 -105 basechar 0
AnchorPoint: "Anchor-6" 293 -20 basechar 0
AnchorPoint: "Anchor-5" 397 -12 basechar 0
AnchorPoint: "Anchor-1" 430 627 basechar 0
AnchorPoint: "Anchor-0" 430 627 basechar 0
LayerCount: 2
Fore
SplineSet
359 15 m 0,0,1
 301 15 301 15 244.5 37.5 c 128,-1,2
 188 60 188 60 142 97 c 128,-1,3
 96 134 96 134 68.5 178.5 c 128,-1,4
 41 223 41 223 41 267 c 0,5,6
 41 320 41 320 69 357.5 c 128,-1,7
 97 395 97 395 143 415.5 c 128,-1,8
 189 436 189 436 243 436 c 0,9,10
 257 436 257 436 273 434 c 1,11,-1
 273 502 l 1,12,-1
 -8 502 l 1,13,-1
 -74 611 l 1,14,-1
 -74 627 l 1,15,-1
 508 627 l 1,16,-1
 574 518 l 1,17,-1
 574 502 l 1,18,-1
 430 502 l 1,19,-1
 430 327 l 1,20,21
 423 327 423 327 412 327.5 c 128,-1,22
 401 328 401 328 393 328 c 0,23,24
 329 328 329 328 279 314 c 128,-1,25
 229 300 229 300 200.5 274.5 c 128,-1,26
 172 249 172 249 172 213 c 0,27,28
 172 179 172 179 196.5 158 c 128,-1,29
 221 137 221 137 264 137 c 0,30,31
 303 137 303 137 343.5 155 c 128,-1,32
 384 173 384 173 424 202 c 1,33,-1
 510 63 l 1,34,35
 485 43 485 43 446.5 29 c 128,-1,36
 408 15 408 15 359 15 c 0,0,1
EndSplineSet
EndChar

StartChar: uni0920
Encoding: 2336 2336 67
Width: 549
GlyphClass: 2
Flags: W
AnchorPoint: "Anchor-7" 279 -106 basechar 0
AnchorPoint: "Anchor-6" 281 -20 basechar 0
AnchorPoint: "Anchor-5" 352 -22 basechar 0
AnchorPoint: "Anchor-1" 394 627 basechar 0
AnchorPoint: "Anchor-0" 394 627 basechar 0
LayerCount: 2
Fore
SplineSet
320 14 m 0,0,1
 261 14 261 14 208.5 34.5 c 128,-1,2
 156 55 156 55 115.5 90 c 128,-1,3
 75 125 75 125 52 170 c 128,-1,4
 29 215 29 215 29 263 c 0,5,6
 29 315 29 315 55.5 355 c 128,-1,7
 82 395 82 395 128 418 c 128,-1,8
 174 441 174 441 231 441 c 0,9,10
 234 441 234 441 238 441 c 1,11,-1
 238 502 l 1,12,-1
 -8 502 l 1,13,-1
 -74 611 l 1,14,-1
 -74 627 l 1,15,-1
 558 627 l 1,16,-1
 624 518 l 1,17,-1
 624 502 l 1,18,-1
 394 502 l 1,19,-1
 394 393 l 1,20,21
 458 355 458 355 487.5 303.5 c 128,-1,22
 517 252 517 252 517 188 c 0,23,24
 517 112 517 112 464.5 63 c 128,-1,25
 412 14 412 14 320 14 c 0,0,1
167 208 m 0,26,27
 167 173 167 173 193 150.5 c 128,-1,28
 219 128 219 128 259 128 c 0,29,30
 291 128 291 128 318.5 142 c 128,-1,31
 346 156 346 156 362.5 180.5 c 128,-1,32
 379 205 379 205 379 236 c 0,33,34
 379 297 379 297 326 338 c 1,35,36
 291 336 291 336 254 321 c 128,-1,37
 217 306 217 306 192 278 c 128,-1,38
 167 250 167 250 167 208 c 0,26,27
EndSplineSet
EndChar

StartChar: uni0921
Encoding: 2337 2337 68
Width: 551
GlyphClass: 2
Flags: W
AnchorPoint: "Anchor-7" 317 -123 basechar 0
AnchorPoint: "Anchor-6" 299 0 basechar 0
AnchorPoint: "Anchor-5" 374 -14 basechar 0
AnchorPoint: "Anchor-1" 445 627 basechar 0
AnchorPoint: "Anchor-0" 445 627 basechar 0
LayerCount: 2
Fore
SplineSet
325 -3 m 0,0,1
 257 -3 257 -3 198 25.5 c 128,-1,2
 139 54 139 54 93 97 c 128,-1,3
 47 140 47 140 17 183 c 1,4,-1
 77 230 l 1,5,6
 115 180 115 180 170.5 148 c 128,-1,7
 226 116 226 116 284 116 c 0,8,9
 319 116 319 116 349.5 123.5 c 128,-1,10
 380 131 380 131 399 144 c 128,-1,11
 418 157 418 157 418 173 c 0,12,13
 418 195 418 195 390 195 c 0,14,15
 365 195 365 195 338 182.5 c 128,-1,16
 311 170 311 170 277 146 c 1,17,18
 198 187 198 187 147 238.5 c 128,-1,19
 96 290 96 290 96 348 c 0,20,21
 96 404 96 404 141 434 c 128,-1,22
 186 464 186 464 258 464 c 0,23,24
 279 464 279 464 295 463 c 1,25,-1
 295 502 l 1,26,-1
 -8 502 l 1,27,-1
 -74 611 l 1,28,-1
 -74 627 l 1,29,-1
 559 627 l 1,30,-1
 625 518 l 1,31,-1
 625 502 l 1,32,-1
 445 502 l 1,33,-1
 445 353 l 1,34,35
 432 355 432 355 412 355.5 c 128,-1,36
 392 356 392 356 373 356 c 0,37,38
 296 356 296 356 252.5 339 c 128,-1,39
 209 322 209 322 209 295 c 0,40,41
 209 284 209 284 219 277 c 1,42,43
 248 296 248 296 277 307 c 128,-1,44
 306 318 306 318 340 318 c 0,45,46
 377 318 377 318 412 302 c 128,-1,47
 447 286 447 286 472 259 c 0,48,49
 492 237 492 237 504 208.5 c 128,-1,50
 516 180 516 180 516 150 c 0,51,52
 516 80 516 80 463.5 38.5 c 128,-1,53
 411 -3 411 -3 325 -3 c 0,0,1
EndSplineSet
EndChar

StartChar: uni0922
Encoding: 2338 2338 69
Width: 549
GlyphClass: 2
Flags: W
AnchorPoint: "Anchor-7" 330 -113 basechar 0
AnchorPoint: "Anchor-6" 302 0 basechar 0
AnchorPoint: "Anchor-5" 403 -11 basechar 0
AnchorPoint: "Anchor-1" 454 627 basechar 0
AnchorPoint: "Anchor-0" 454 627 basechar 0
LayerCount: 2
Fore
SplineSet
346 7 m 0,0,1
 286 7 286 7 229.5 31.5 c 128,-1,2
 173 56 173 56 129 96 c 0,3,4
 90 133 90 133 66.5 178.5 c 128,-1,5
 43 224 43 224 43 273 c 0,6,7
 43 356 43 356 104.5 404 c 128,-1,8
 166 452 166 452 272 452 c 0,9,10
 283 452 283 452 294 452 c 1,11,-1
 294 502 l 1,12,-1
 -8 502 l 1,13,-1
 -74 611 l 1,14,-1
 -74 627 l 1,15,-1
 557 627 l 1,16,-1
 623 518 l 1,17,-1
 623 502 l 1,18,-1
 454 502 l 1,19,-1
 454 359 l 1,20,21
 438 360 438 360 417.5 360.5 c 128,-1,22
 397 361 397 361 374 361 c 0,23,24
 285 361 285 361 232 324 c 128,-1,25
 179 287 179 287 179 225 c 0,26,27
 179 182 179 182 201 154 c 128,-1,28
 223 126 223 126 262 117 c 1,29,30
 225 160 225 160 225 211 c 0,31,32
 225 259 225 259 259 288.5 c 128,-1,33
 293 318 293 318 349 318 c 0,34,35
 386 318 386 318 419.5 302 c 128,-1,36
 453 286 453 286 477 259 c 0,37,38
 497 236 497 236 508.5 207.5 c 128,-1,39
 520 179 520 179 520 147 c 0,40,41
 520 85 520 85 471.5 46 c 128,-1,42
 423 7 423 7 346 7 c 0,0,1
334 140 m 0,43,44
 334 130 334 130 335 120 c 1,45,46
 366 128 366 128 386.5 146.5 c 128,-1,47
 407 165 407 165 407 187 c 0,48,49
 407 213 407 213 382 213 c 0,50,51
 361 213 361 213 347.5 192.5 c 128,-1,52
 334 172 334 172 334 140 c 0,43,44
EndSplineSet
EndChar

StartChar: uni0923
Encoding: 2339 2339 70
Width: 768
GlyphClass: 2
Flags: W
AnchorPoint: "Anchor-7" 242 27 basechar 0
AnchorPoint: "Anchor-6" 384 -10 basechar 0
AnchorPoint: "Anchor-5" 712 20 basechar 0
AnchorPoint: "Anchor-1" 708 627 basechar 0
AnchorPoint: "Anchor-0" 708 627 basechar 0
LayerCount: 2
Fore
SplineSet
304 137 m 0,0,1
 223 137 223 137 146 201 c 0,2,3
 106 234 106 234 78 278 c 128,-1,4
 50 322 50 322 50 383 c 2,5,-1
 50 502 l 1,6,-1
 -8 502 l 1,7,-1
 -74 611 l 1,8,-1
 -74 627 l 1,9,-1
 776 627 l 1,10,-1
 842 518 l 1,11,-1
 842 502 l 1,12,-1
 708 502 l 1,13,-1
 708 -10 l 1,14,-1
 691 -10 l 1,15,-1
 547 82 l 1,16,-1
 547 502 l 1,17,-1
 467 502 l 1,18,-1
 467 307 l 2,19,20
 467 228 467 228 424 182.5 c 128,-1,21
 381 137 381 137 304 137 c 0,0,1
210 316 m 2,22,23
 210 254 210 254 257 254 c 0,24,25
 306 254 306 254 306 342 c 2,26,-1
 306 502 l 1,27,-1
 210 502 l 1,28,-1
 210 316 l 2,22,23
EndSplineSet
EndChar

StartChar: uni0924
Encoding: 2340 2340 71
Width: 594
GlyphClass: 2
Flags: W
AnchorPoint: "Anchor-7" 167 -116 basechar 0
AnchorPoint: "Anchor-6" 297 -20 basechar 0
AnchorPoint: "Anchor-5" 534 20 basechar 0
AnchorPoint: "Anchor-1" 534 627 basechar 0
AnchorPoint: "Anchor-0" 534 627 basechar 0
LayerCount: 2
Fore
SplineSet
247 -20 m 1,0,1
 153 46 153 46 94.5 114 c 128,-1,2
 36 182 36 182 36 263 c 0,3,4
 36 315 36 315 63.5 353.5 c 128,-1,5
 91 392 91 392 140.5 414 c 128,-1,6
 190 436 190 436 257 436 c 0,7,8
 287 436 287 436 318 432.5 c 128,-1,9
 349 429 349 429 374 425 c 1,10,-1
 374 502 l 1,11,-1
 -8 502 l 1,12,-1
 -74 611 l 1,13,-1
 -74 627 l 1,14,-1
 602 627 l 1,15,-1
 668 518 l 1,16,-1
 668 502 l 1,17,-1
 534 502 l 1,18,-1
 534 -10 l 1,19,-1
 517 -10 l 1,20,-1
 374 82 l 1,21,-1
 374 302 l 1,22,23
 360 303 360 303 343.5 304 c 128,-1,24
 327 305 327 305 311 305 c 0,25,26
 261 305 261 305 231 281 c 128,-1,27
 201 257 201 257 201 210 c 0,28,29
 201 162 201 162 226.5 121.5 c 128,-1,30
 252 81 252 81 303 43 c 1,31,-1
 247 -20 l 1,0,1
EndSplineSet
EndChar

StartChar: uni0925
Encoding: 2341 2341 72
Width: 660
GlyphClass: 2
Flags: W
AnchorPoint: "Anchor-7" 135 35 basechar 0
AnchorPoint: "Anchor-6" 385 -10 basechar 0
AnchorPoint: "Anchor-5" 600 20 basechar 0
AnchorPoint: "Anchor-1" 600 627 basechar 0
AnchorPoint: "Anchor-0" 600 627 basechar 0
LayerCount: 2
Fore
SplineSet
321 108 m 0,0,1
 229 108 229 108 155.5 167 c 128,-1,2
 82 226 82 226 37 337 c 1,3,4
 114 363 114 363 161 387 c 1,5,6
 111 411 111 411 80 445.5 c 128,-1,7
 49 480 49 480 49 528 c 256,8,9
 49 576 49 576 86.5 607.5 c 128,-1,10
 124 639 124 639 181 639 c 0,11,12
 217 639 217 639 251.5 624 c 128,-1,13
 286 609 286 609 313 583 c 0,14,15
 342 556 342 556 359 520 c 128,-1,16
 376 484 376 484 376 446 c 0,17,18
 376 385 376 385 344.5 346 c 128,-1,19
 313 307 313 307 239 268 c 0,20,21
 208 253 208 253 208 243 c 0,22,23
 208 235 208 235 219 229 c 256,24,25
 230 223 230 223 251 223 c 0,26,27
 301 223 301 223 350 254 c 128,-1,28
 399 285 399 285 439 342 c 1,29,-1
 439 502 l 1,30,-1
 407 502 l 1,31,-1
 341 611 l 1,32,-1
 341 627 l 1,33,-1
 668 627 l 1,34,-1
 734 518 l 1,35,-1
 734 502 l 1,36,-1
 600 502 l 1,37,-1
 600 -10 l 1,38,-1
 583 -10 l 1,39,-1
 439 82 l 1,40,-1
 439 146 l 1,41,42
 391 108 391 108 321 108 c 0,0,1
194 499 m 0,43,44
 194 465 194 465 229 429 c 1,45,46
 262 458 262 458 262 492 c 0,47,48
 262 509 262 509 253 521.5 c 128,-1,49
 244 534 244 534 227 534 c 0,50,51
 212 534 212 534 203 524.5 c 128,-1,52
 194 515 194 515 194 499 c 0,43,44
EndSplineSet
EndChar

StartChar: uni0926
Encoding: 2342 2342 73
Width: 523
GlyphClass: 2
Flags: W
AnchorPoint: "Anchor-7" 207 -63 basechar 0
AnchorPoint: "Anchor-6" 283 -80 basechar 0
AnchorPoint: "Anchor-5" 483 -59 basechar 0
AnchorPoint: "Anchor-1" 432 627 basechar 0
AnchorPoint: "Anchor-0" 432 627 basechar 0
LayerCount: 2
Fore
SplineSet
430 -94 m 1,0,1
 409 -66 409 -66 387 -28 c 128,-1,2
 365 10 365 10 348 49 c 1,3,4
 328 46 328 46 307 46 c 0,5,6
 264 46 264 46 225 60.5 c 128,-1,7
 186 75 186 75 145 106 c 0,8,9
 99 141 99 141 69 183 c 128,-1,10
 39 225 39 225 39 280 c 0,11,12
 39 333 39 333 65.5 370.5 c 128,-1,13
 92 408 92 408 138.5 427.5 c 128,-1,14
 185 447 185 447 243 447 c 0,15,16
 256 447 256 447 274 445 c 1,17,-1
 274 502 l 1,18,-1
 -8 502 l 1,19,-1
 -74 611 l 1,20,-1
 -74 627 l 1,21,-1
 532 627 l 1,22,-1
 598 518 l 1,23,-1
 598 502 l 1,24,-1
 432 502 l 1,25,-1
 432 341 l 1,26,27
 423 342 423 342 409.5 342 c 128,-1,28
 396 342 396 342 385 342 c 0,29,30
 279 342 279 342 220 314.5 c 128,-1,31
 161 287 161 287 161 234 c 0,32,33
 161 205 161 205 182.5 187.5 c 128,-1,34
 204 170 204 170 238 170 c 0,35,36
 267 170 267 170 290 180 c 1,37,38
 286 195 286 195 286 210 c 0,39,40
 286 242 286 242 308.5 263.5 c 128,-1,41
 331 285 331 285 366 285 c 256,42,43
 401 285 401 285 429 265.5 c 128,-1,44
 457 246 457 246 473.5 217 c 128,-1,45
 490 188 490 188 490 160 c 0,46,47
 490 131 490 131 475.5 110 c 128,-1,48
 461 89 461 89 436 75 c 1,49,50
 463 44 463 44 499 11.5 c 128,-1,51
 535 -21 535 -21 562 -39 c 1,52,-1
 430 -94 l 1,0,1
EndSplineSet
EndChar

StartChar: uni0927
Encoding: 2343 2343 74
Width: 642
GlyphClass: 2
Flags: W
AnchorPoint: "Anchor-7" 221 -12 basechar 0
AnchorPoint: "Anchor-6" 362 -10 basechar 0
AnchorPoint: "Anchor-5" 582 20 basechar 0
AnchorPoint: "Anchor-1" 582 627 basechar 0
AnchorPoint: "Anchor-0" 582 627 basechar 0
LayerCount: 2
Fore
SplineSet
305 91 m 0,0,1
 262 91 262 91 223.5 106 c 128,-1,2
 185 121 185 121 149 148 c 0,3,4
 120 171 120 171 96 202.5 c 128,-1,5
 72 234 72 234 72 271 c 0,6,7
 72 326 72 326 126 363 c 1,8,9
 72 400 72 400 40.5 441 c 128,-1,10
 9 482 9 482 9 534 c 0,11,12
 9 563 9 563 26 587 c 128,-1,13
 43 611 43 611 71.5 625 c 128,-1,14
 100 639 100 639 135 639 c 0,15,16
 175 639 175 639 203 626.5 c 128,-1,17
 231 614 231 614 255 591 c 0,18,19
 275 573 275 573 288.5 547.5 c 128,-1,20
 302 522 302 522 302 498 c 0,21,22
 302 470 302 470 281 453 c 128,-1,23
 260 436 260 436 224 436 c 0,24,25
 204 436 204 436 184 440.5 c 128,-1,26
 164 445 164 445 145 453 c 1,27,28
 157 419 157 419 197 395 c 1,29,30
 241 408 241 408 295 411 c 1,31,-1
 371 299 l 1,32,33
 283 287 283 287 246 269.5 c 128,-1,34
 209 252 209 252 209 228 c 0,35,36
 209 199 209 199 247 199 c 0,37,38
 281 199 281 199 327.5 223 c 128,-1,39
 374 247 374 247 422 295 c 1,40,-1
 422 502 l 1,41,-1
 379 502 l 1,42,-1
 313 611 l 1,43,-1
 313 627 l 1,44,-1
 650 627 l 1,45,-1
 716 518 l 1,46,-1
 716 502 l 1,47,-1
 582 502 l 1,48,-1
 582 -10 l 1,49,-1
 565 -10 l 1,50,-1
 422 82 l 1,51,-1
 422 126 l 1,52,53
 399 110 399 110 369 100.5 c 128,-1,54
 339 91 339 91 305 91 c 0,0,1
193 554 m 0,55,56
 172 554 172 554 157.5 536 c 128,-1,57
 143 518 143 518 140 492 c 1,58,-1
 145 492 l 2,59,60
 171 492 171 492 194 502 c 128,-1,61
 217 512 217 512 217 531 c 0,62,63
 217 541 217 541 210.5 547.5 c 128,-1,64
 204 554 204 554 193 554 c 0,55,56
EndSplineSet
EndChar

StartChar: uni0928
Encoding: 2344 2344 75
Width: 583
GlyphClass: 2
Flags: W
AnchorPoint: "Anchor-7" 162 35 basechar 0
AnchorPoint: "Anchor-6" 291 -10 basechar 0
AnchorPoint: "Anchor-5" 523 20 basechar 0
AnchorPoint: "Anchor-1" 523 627 basechar 0
AnchorPoint: "Anchor-0" 523 627 basechar 0
LayerCount: 2
Fore
SplineSet
190 152 m 0,0,1
 163 152 163 152 135 166 c 128,-1,2
 107 180 107 180 83 203.5 c 128,-1,3
 59 227 59 227 44.5 255.5 c 128,-1,4
 30 284 30 284 30 313 c 0,5,6
 30 354 30 354 61.5 376 c 128,-1,7
 93 398 93 398 150 398 c 0,8,9
 199 398 199 398 258.5 391 c 128,-1,10
 318 384 318 384 363 375 c 1,11,-1
 363 502 l 1,12,-1
 -8 502 l 1,13,-1
 -74 611 l 1,14,-1
 -74 627 l 1,15,-1
 591 627 l 1,16,-1
 657 518 l 1,17,-1
 657 502 l 1,18,-1
 523 502 l 1,19,-1
 523 -10 l 1,20,-1
 506 -10 l 1,21,-1
 363 82 l 1,22,-1
 363 268 l 1,23,24
 336 269 336 269 310 269.5 c 128,-1,25
 284 270 284 270 253 270 c 2,26,-1
 245 270 l 1,27,28
 248 243 248 243 248 217 c 0,29,30
 248 152 248 152 190 152 c 0,0,1
EndSplineSet
EndChar

StartChar: uni092A
Encoding: 2346 2346 76
Width: 553
GlyphClass: 2
Flags: W
AnchorPoint: "Anchor-7" 117 74 basechar 0
AnchorPoint: "Anchor-6" 276 -10 basechar 0
AnchorPoint: "Anchor-5" 493 20 basechar 0
AnchorPoint: "Anchor-1" 493 627 basechar 0
AnchorPoint: "Anchor-0" 493 627 basechar 0
LayerCount: 2
Fore
SplineSet
285 159 m 0,0,1
 239 159 239 159 200 180.5 c 128,-1,2
 161 202 161 202 121 242 c 0,3,4
 84 279 84 279 64 315.5 c 128,-1,5
 44 352 44 352 44 405 c 2,6,-1
 44 502 l 1,7,-1
 -8 502 l 1,8,-1
 -74 611 l 1,9,-1
 -74 627 l 1,10,-1
 561 627 l 1,11,-1
 627 518 l 1,12,-1
 627 502 l 1,13,-1
 493 502 l 1,14,-1
 493 -10 l 1,15,-1
 476 -10 l 1,16,-1
 333 82 l 1,17,-1
 333 168 l 1,18,19
 308 159 308 159 285 159 c 0,0,1
204 330 m 2,20,21
 204 280 204 280 245 280 c 256,22,23
 286 280 286 280 333 329 c 1,24,-1
 333 502 l 1,25,-1
 204 502 l 1,26,-1
 204 330 l 2,20,21
EndSplineSet
EndChar

StartChar: uni092B
Encoding: 2347 2347 77
Width: 795
GlyphClass: 2
Flags: W
AnchorPoint: "Anchor-7" 127 91 basechar 0
AnchorPoint: "Anchor-6" 397 -10 basechar 0
AnchorPoint: "Anchor-5" 498 20 basechar 0
AnchorPoint: "Anchor-1" 498 627 basechar 0
AnchorPoint: "Anchor-0" 498 627 basechar 0
LayerCount: 2
Fore
SplineSet
290 155 m 0,0,1
 245 155 245 155 204 180.5 c 128,-1,2
 163 206 163 206 128 243 c 0,3,4
 97 275 97 275 77.5 312.5 c 128,-1,5
 58 350 58 350 58 392 c 2,6,-1
 58 502 l 1,7,-1
 -8 502 l 1,8,-1
 -74 611 l 1,9,-1
 -74 627 l 1,10,-1
 803 627 l 1,11,-1
 869 518 l 1,12,-1
 869 502 l 1,13,-1
 498 502 l 1,14,-1
 498 403 l 1,15,16
 514 413 514 413 534.5 419.5 c 128,-1,17
 555 426 555 426 581 426 c 0,18,19
 623 426 623 426 657.5 408.5 c 128,-1,20
 692 391 692 391 716 363 c 0,21,22
 762 309 762 309 762 245 c 0,23,24
 762 193 762 193 744.5 150 c 128,-1,25
 727 107 727 107 694 67 c 1,26,-1
 569 162 l 1,27,28
 615 205 615 205 640 236 c 128,-1,29
 665 267 665 267 665 289 c 0,30,31
 665 301 665 301 658 309 c 128,-1,32
 651 317 651 317 637 317 c 0,33,34
 609 317 609 317 575.5 295 c 128,-1,35
 542 273 542 273 498 233 c 1,36,-1
 498 -10 l 1,37,-1
 481 -10 l 1,38,-1
 337 82 l 1,39,-1
 337 162 l 1,40,41
 317 155 317 155 290 155 c 0,0,1
219 329 m 2,42,43
 219 280 219 280 260 280 c 0,44,45
 280 280 280 280 298 289 c 128,-1,46
 316 298 316 298 337 316 c 1,47,-1
 337 502 l 1,48,-1
 219 502 l 1,49,-1
 219 329 l 2,42,43
EndSplineSet
EndChar

StartChar: uni092C
Encoding: 2348 2348 78
Width: 545
GlyphClass: 2
Flags: W
AnchorPoint: "Anchor-7" 138 13 basechar 0
AnchorPoint: "Anchor-6" 272 -10 basechar 0
AnchorPoint: "Anchor-5" 485 20 basechar 0
AnchorPoint: "Anchor-1" 485 627 basechar 0
AnchorPoint: "Anchor-0" 485 627 basechar 0
LayerCount: 2
Fore
SplineSet
262 103 m 0,0,1
 217 103 217 103 173.5 122 c 128,-1,2
 130 141 130 141 95 171 c 0,3,4
 61 200 61 200 40 237.5 c 128,-1,5
 19 275 19 275 19 313 c 0,6,7
 19 356 19 356 42.5 388.5 c 128,-1,8
 66 421 66 421 105 440 c 128,-1,9
 144 459 144 459 192 459 c 0,10,11
 234 459 234 459 267 448.5 c 128,-1,12
 300 438 300 438 325 422 c 1,13,-1
 325 502 l 1,14,-1
 -8 502 l 1,15,-1
 -74 611 l 1,16,-1
 -74 627 l 1,17,-1
 553 627 l 1,18,-1
 619 518 l 1,19,-1
 619 502 l 1,20,-1
 485 502 l 1,21,-1
 485 -10 l 1,22,-1
 468 -10 l 1,23,-1
 325 82 l 1,24,-1
 325 115 l 1,25,26
 296 103 296 103 262 103 c 0,0,1
248 344 m 0,27,28
 237 344 237 344 226 343 c 1,29,-1
 299 247 l 1,30,31
 311 255 311 255 325 265 c 1,32,-1
 325 332 l 1,33,34
 310 337 310 337 291 340.5 c 128,-1,35
 272 344 272 344 248 344 c 0,27,28
129 267 m 0,36,37
 129 242 129 242 148.5 227 c 128,-1,38
 168 212 168 212 198 212 c 0,39,40
 221 212 221 212 245 220 c 1,41,-1
 166 323 l 1,42,43
 149 313 149 313 139 298.5 c 128,-1,44
 129 284 129 284 129 267 c 0,36,37
EndSplineSet
EndChar

StartChar: uni092D
Encoding: 2349 2349 79
Width: 714
GlyphClass: 2
Flags: W
AnchorPoint: "Anchor-7" 289 5 basechar 0
AnchorPoint: "Anchor-6" 404 -10 basechar 0
AnchorPoint: "Anchor-5" 654 20 basechar 0
AnchorPoint: "Anchor-1" 654 627 basechar 0
AnchorPoint: "Anchor-0" 654 627 basechar 0
LayerCount: 2
Fore
SplineSet
327 104 m 0,0,1
 297 104 297 104 266 120 c 128,-1,2
 235 136 235 136 209 161.5 c 128,-1,3
 183 187 183 187 167 217 c 128,-1,4
 151 247 151 247 151 275 c 0,5,6
 151 310 151 310 172 325 c 128,-1,7
 193 340 193 340 235 343 c 1,8,-1
 235 368 l 1,9,10
 182 372 182 372 133 392.5 c 128,-1,11
 84 413 84 413 52.5 447.5 c 128,-1,12
 21 482 21 482 21 530 c 0,13,14
 21 579 21 579 57 609 c 128,-1,15
 93 639 93 639 157 639 c 0,16,17
 205 639 205 639 247 619.5 c 128,-1,18
 289 600 289 600 320 567 c 128,-1,19
 351 534 351 534 368.5 492 c 128,-1,20
 386 450 386 450 386 406 c 2,21,-1
 386 337 l 1,22,23
 414 334 414 334 442 329.5 c 128,-1,24
 470 325 470 325 494 321 c 1,25,-1
 494 502 l 1,26,-1
 433 502 l 1,27,-1
 368 611 l 1,28,-1
 368 627 l 1,29,-1
 722 627 l 1,30,-1
 788 518 l 1,31,-1
 788 502 l 1,32,-1
 654 502 l 1,33,-1
 654 -10 l 1,34,-1
 637 -10 l 1,35,-1
 494 82 l 1,36,-1
 494 212 l 1,37,-1
 386 212 l 1,38,-1
 386 178 l 2,39,40
 386 147 386 147 373.5 125.5 c 128,-1,41
 361 104 361 104 327 104 c 0,0,1
171 511 m 0,42,43
 171 486 171 486 189 467.5 c 128,-1,44
 207 449 207 449 235 436 c 1,45,-1
 235 517 l 2,46,47
 235 545 235 545 207 545 c 0,48,49
 191 545 191 545 181 535.5 c 128,-1,50
 171 526 171 526 171 511 c 0,42,43
EndSplineSet
EndChar

StartChar: uni092E
Encoding: 2350 2350 80
Width: 622
GlyphClass: 2
Flags: W
AnchorPoint: "Anchor-7" 155 15 basechar 0
AnchorPoint: "Anchor-6" 311 -10 basechar 0
AnchorPoint: "Anchor-5" 562 20 basechar 0
AnchorPoint: "Anchor-1" 562 627 basechar 0
AnchorPoint: "Anchor-0" 562 627 basechar 0
LayerCount: 2
Fore
SplineSet
227 117 m 0,0,1
 194 117 194 117 162 132 c 128,-1,2
 130 147 130 147 104.5 172 c 128,-1,3
 79 197 79 197 63.5 228.5 c 128,-1,4
 48 260 48 260 48 292 c 256,5,6
 48 324 48 324 67 337.5 c 128,-1,7
 86 351 86 351 123 355 c 1,8,-1
 123 502 l 1,9,-1
 -8 502 l 1,10,-1
 -74 611 l 1,11,-1
 -74 627 l 1,12,-1
 630 627 l 1,13,-1
 696 518 l 1,14,-1
 696 502 l 1,15,-1
 562 502 l 1,16,-1
 562 -10 l 1,17,-1
 545 -10 l 1,18,-1
 402 82 l 1,19,-1
 402 223 l 1,20,21
 373 224 373 224 341 224.5 c 128,-1,22
 309 225 309 225 290 225 c 2,23,-1
 283 225 l 1,24,-1
 283 201 l 2,25,26
 283 165 283 165 271 141 c 128,-1,27
 259 117 259 117 227 117 c 0,0,1
283 350 m 1,28,29
 315 346 315 346 345.5 341.5 c 128,-1,30
 376 337 376 337 402 332 c 1,31,-1
 402 502 l 1,32,-1
 283 502 l 1,33,-1
 283 350 l 1,28,29
EndSplineSet
EndChar

StartChar: uni092F
Encoding: 2351 2351 81
Width: 626
GlyphClass: 2
Flags: W
AnchorPoint: "Anchor-7" 218 23 basechar 0
AnchorPoint: "Anchor-6" 313 -10 basechar 0
AnchorPoint: "Anchor-5" 566 20 basechar 0
AnchorPoint: "Anchor-1" 566 627 basechar 0
AnchorPoint: "Anchor-0" 566 627 basechar 0
LayerCount: 2
Fore
SplineSet
344 110 m 0,0,1
 252 110 252 110 171 166 c 128,-1,2
 90 222 90 222 34 343 c 1,3,4
 108 373 108 373 141.5 402 c 128,-1,5
 175 431 175 431 175 468 c 0,6,7
 175 486 175 486 170 502 c 1,8,-1
 -8 502 l 1,9,-1
 -74 611 l 1,10,-1
 -74 627 l 1,11,-1
 634 627 l 1,12,-1
 700 518 l 1,13,-1
 700 502 l 1,14,-1
 566 502 l 1,15,-1
 566 -10 l 1,16,-1
 549 -10 l 1,17,-1
 406 82 l 1,18,-1
 406 120 l 1,19,20
 377 110 377 110 344 110 c 0,0,1
217 235 m 0,21,22
 230 230 230 230 250 230 c 0,23,24
 290 230 290 230 331 251 c 128,-1,25
 372 272 372 272 406 309 c 1,26,-1
 406 502 l 1,27,-1
 266 502 l 1,28,29
 287 475 287 475 299 449.5 c 128,-1,30
 311 424 311 424 311 399 c 0,31,32
 311 365 311 365 291.5 335.5 c 128,-1,33
 272 306 272 306 222 274 c 0,34,35
 203 262 203 262 203 253 c 0,36,37
 203 241 203 241 217 235 c 0,21,22
EndSplineSet
EndChar

StartChar: uni0930
Encoding: 2352 2352 82
Width: 440
GlyphClass: 2
Flags: W
AnchorPoint: "Anchor-7" 82 34 basechar 0
AnchorPoint: "Anchor-6" 237 0 basechar 0
AnchorPoint: "Anchor-5" 384 -7 basechar 0
AnchorPoint: "Anchor-1" 403 627 basechar 0
AnchorPoint: "Anchor-0" 335 627 basechar 0
LayerCount: 2
Fore
SplineSet
313 -25 m 1,0,1
 259 12 259 12 210 57 c 128,-1,2
 161 102 161 102 123 149 c 128,-1,3
 85 196 85 196 63 239.5 c 128,-1,4
 41 283 41 283 41 318 c 0,5,6
 41 347 41 347 59 363.5 c 128,-1,7
 77 380 77 380 113 380 c 0,8,9
 151 380 151 380 194 359 c 1,10,11
 201 375 201 375 205.5 393 c 128,-1,12
 210 411 210 411 210 433 c 0,13,14
 210 466 210 466 202 502 c 1,15,-1
 -8 502 l 1,16,-1
 -74 611 l 1,17,-1
 -74 627 l 1,18,-1
 448 627 l 1,19,-1
 514 518 l 1,20,-1
 514 502 l 1,21,-1
 339 502 l 1,22,23
 347 473 347 473 351.5 443 c 128,-1,24
 356 413 356 413 356 384 c 0,25,26
 356 320 356 320 319 273.5 c 128,-1,27
 282 227 282 227 210 216 c 0,28,29
 196 214 196 214 187 213 c 1,30,31
 236 174 236 174 297 141 c 128,-1,32
 358 108 358 108 419 83 c 1,33,-1
 313 -25 l 1,0,1
EndSplineSet
Substitution2: "Single Substitution lookup 780 subtable" uni0960
Substitution2: "Single Substitution lookup 779 subtable" uni090B
EndChar

StartChar: uni0932
Encoding: 2354 2354 83
Width: 751
GlyphClass: 2
Flags: W
AnchorPoint: "Anchor-7" 197 -111 basechar 0
AnchorPoint: "Anchor-6" 375 -10 basechar 0
AnchorPoint: "Anchor-5" 691 20 basechar 0
AnchorPoint: "Anchor-1" 692 627 basechar 0
AnchorPoint: "Anchor-0" 692 627 basechar 0
LayerCount: 2
Fore
SplineSet
290 -23 m 1,0,1
 165 68 165 68 106.5 147 c 128,-1,2
 48 226 48 226 48 305 c 0,3,4
 48 349 48 349 68.5 382.5 c 128,-1,5
 89 416 89 416 125 435.5 c 128,-1,6
 161 455 161 455 207 455 c 0,7,8
 288 455 288 455 354 396 c 1,9,10
 381 420 381 420 417.5 433.5 c 128,-1,11
 454 447 454 447 497 447 c 0,12,13
 515 447 515 447 531 445 c 1,14,-1
 531 502 l 1,15,-1
 -8 502 l 1,16,-1
 -74 611 l 1,17,-1
 -74 627 l 1,18,-1
 759 627 l 1,19,-1
 825 518 l 1,20,-1
 825 502 l 1,21,-1
 691 502 l 1,22,-1
 691 -10 l 1,23,-1
 674 -10 l 1,24,-1
 531 82 l 1,25,-1
 531 351 l 1,26,27
 490 351 490 351 467 319 c 128,-1,28
 444 287 444 287 444 234 c 0,29,30
 444 218 444 218 445.5 202 c 128,-1,31
 447 186 447 186 451 172 c 1,32,-1
 299 207 l 1,33,34
 294 227 294 227 294 253 c 0,35,36
 294 292 294 292 307 326 c 1,37,38
 293 333 293 333 276 333 c 0,39,40
 241 333 241 333 219.5 307.5 c 128,-1,41
 198 282 198 282 198 240 c 0,42,43
 198 130 198 130 342 38 c 1,44,-1
 290 -23 l 1,0,1
EndSplineSet
Substitution2: "'locl' Localized Forms lookup 745 subtable" uni0932.MAR
EndChar

StartChar: uni0935
Encoding: 2357 2357 84
Width: 540
GlyphClass: 2
Flags: W
AnchorPoint: "Anchor-7" 148 13 basechar 0
AnchorPoint: "Anchor-6" 270 -10 basechar 0
AnchorPoint: "Anchor-5" 480 20 basechar 0
AnchorPoint: "Anchor-1" 480 627 basechar 0
AnchorPoint: "Anchor-0" 480 627 basechar 0
LayerCount: 2
Fore
SplineSet
268 109 m 0,0,1
 225 109 225 109 183.5 125 c 128,-1,2
 142 141 142 141 109 166 c 0,3,4
 72 195 72 195 50 233.5 c 128,-1,5
 28 272 28 272 28 314 c 256,6,7
 28 356 28 356 49.5 388.5 c 128,-1,8
 71 421 71 421 107.5 440 c 128,-1,9
 144 459 144 459 190 459 c 0,10,11
 261 459 261 459 320 422 c 1,12,-1
 320 502 l 1,13,-1
 -8 502 l 1,14,-1
 -74 611 l 1,15,-1
 -74 627 l 1,16,-1
 548 627 l 1,17,-1
 614 518 l 1,18,-1
 614 502 l 1,19,-1
 480 502 l 1,20,-1
 480 -10 l 1,21,-1
 463 -10 l 1,22,-1
 320 82 l 1,23,-1
 320 119 l 1,24,25
 294 109 294 109 268 109 c 0,0,1
143 264 m 0,26,27
 143 244 143 244 159 231.5 c 128,-1,28
 175 219 175 219 200 219 c 0,29,30
 227 219 227 219 254.5 230.5 c 128,-1,31
 282 242 282 242 320 270 c 1,32,-1
 320 324 l 1,33,34
 287 334 287 334 246 334 c 0,35,36
 202 334 202 334 172.5 314 c 128,-1,37
 143 294 143 294 143 264 c 0,26,27
EndSplineSet
EndChar

StartChar: uni0936
Encoding: 2358 2358 85
Width: 735
GlyphClass: 2
Flags: W
AnchorPoint: "Anchor-7" 143 30 basechar 0
AnchorPoint: "Anchor-6" 421 -18 basechar 0
AnchorPoint: "Anchor-5" 675 20 basechar 0
AnchorPoint: "Anchor-1" 675 627 basechar 0
AnchorPoint: "Anchor-0" 675 627 basechar 0
LayerCount: 2
Fore
SplineSet
319 -18 m 1,0,-1
 211 165 l 1,1,2
 191 160 191 160 167 160 c 0,3,4
 132 160 132 160 101.5 173 c 128,-1,5
 71 186 71 186 52.5 208.5 c 128,-1,6
 34 231 34 231 34 261 c 0,7,8
 34 296 34 296 58.5 318 c 128,-1,9
 83 340 83 340 120 340 c 0,10,11
 139 340 139 340 155.5 334.5 c 128,-1,12
 172 329 172 329 191 315 c 1,13,14
 213 329 213 329 233 349 c 1,15,16
 161 380 161 380 113 422 c 128,-1,17
 65 464 65 464 65 530 c 0,18,19
 65 576 65 576 102 607.5 c 128,-1,20
 139 639 139 639 197 639 c 0,21,22
 234 639 234 639 266 625.5 c 128,-1,23
 298 612 298 612 326 587 c 0,24,25
 365 553 365 553 390 503 c 128,-1,26
 415 453 415 453 415 400 c 0,27,28
 415 336 415 336 382.5 286.5 c 128,-1,29
 350 237 350 237 296 203 c 1,30,-1
 461 69 l 1,31,-1
 319 -18 l 1,0,-1
658 -10 m 1,32,-1
 515 82 l 1,33,-1
 515 502 l 1,34,-1
 460 502 l 1,35,-1
 394 611 l 1,36,-1
 394 627 l 1,37,-1
 743 627 l 1,38,-1
 809 518 l 1,39,-1
 809 502 l 1,40,-1
 675 502 l 1,41,-1
 675 -10 l 1,42,-1
 658 -10 l 1,32,-1
206 477 m 0,43,44
 206 438 206 438 273 403 c 1,45,46
 292 439 292 439 292 471 c 0,47,48
 292 496 292 496 281 509 c 128,-1,49
 270 522 270 522 253 522 c 0,50,51
 233 522 233 522 219.5 509.5 c 128,-1,52
 206 497 206 497 206 477 c 0,43,44
EndSplineSet
Substitution2: "'locl' Localized Forms lookup 745 subtable" uni0936.MAR
EndChar

StartChar: uni0937
Encoding: 2359 2359 86
Width: 561
GlyphClass: 2
Flags: W
AnchorPoint: "Anchor-7" 112 79 basechar 0
AnchorPoint: "Anchor-6" 280 -10 basechar 0
AnchorPoint: "Anchor-5" 501 20 basechar 0
AnchorPoint: "Anchor-1" 501 627 basechar 0
AnchorPoint: "Anchor-0" 501 627 basechar 0
LayerCount: 2
Fore
SplineSet
291 135 m 0,0,1
 246 135 246 135 201 158 c 128,-1,2
 156 181 156 181 120 218 c 0,3,4
 86 253 86 253 65 295.5 c 128,-1,5
 44 338 44 338 44 379 c 2,6,-1
 44 502 l 1,7,-1
 -8 502 l 1,8,-1
 -74 611 l 1,9,-1
 -74 627 l 1,10,-1
 569 627 l 1,11,-1
 635 518 l 1,12,-1
 635 502 l 1,13,-1
 501 502 l 1,14,-1
 501 -10 l 1,15,-1
 484 -10 l 1,16,-1
 341 82 l 1,17,-1
 341 143 l 1,18,19
 317 135 317 135 291 135 c 0,0,1
206 502 m 1,20,-1
 341 376 l 1,21,-1
 341 502 l 1,22,-1
 206 502 l 1,20,-1
204 306 m 2,23,24
 204 256 204 256 249 256 c 0,25,26
 279 256 279 256 314 283 c 1,27,-1
 241 351 l 2,28,29
 224 367 224 367 204 392 c 1,30,-1
 204 306 l 2,23,24
EndSplineSet
EndChar

StartChar: uni0938
Encoding: 2360 2360 87
Width: 719
GlyphClass: 2
Flags: W
AnchorPoint: "Anchor-7" 82 34 basechar 0
AnchorPoint: "Anchor-6" 359 -25 basechar 0
AnchorPoint: "Anchor-5" 659 20 basechar 0
AnchorPoint: "Anchor-1" 659 627 basechar 0
AnchorPoint: "Anchor-0" 659 627 basechar 0
LayerCount: 2
Fore
SplineSet
313 -25 m 1,0,1
 259 12 259 12 210 57 c 128,-1,2
 161 102 161 102 123 148.5 c 128,-1,3
 85 195 85 195 63 239 c 128,-1,4
 41 283 41 283 41 317 c 0,5,6
 41 380 41 380 109 380 c 0,7,8
 127 380 127 380 148.5 374.5 c 128,-1,9
 170 369 170 369 194 360 c 1,10,11
 203 376 203 376 206 395 c 128,-1,12
 209 414 209 414 209 433 c 0,13,14
 209 466 209 466 201 502 c 1,15,-1
 -8 502 l 1,16,-1
 -74 611 l 1,17,-1
 -74 627 l 1,18,-1
 727 627 l 1,19,-1
 793 518 l 1,20,-1
 793 502 l 1,21,-1
 659 502 l 1,22,-1
 659 -10 l 1,23,-1
 642 -10 l 1,24,-1
 499 82 l 1,25,-1
 499 222 l 1,26,27
 477 217 477 217 450 217 c 0,28,29
 416 217 416 217 376.5 228.5 c 128,-1,30
 337 240 337 240 305 259 c 1,31,32
 267 224 267 224 207 215 c 0,33,34
 199 214 199 214 194 213 c 1,35,36
 241 174 241 174 300 141.5 c 128,-1,37
 359 109 359 109 418 83 c 1,38,-1
 313 -25 l 1,0,1
355 383 m 0,39,40
 355 358 355 358 350 336 c 1,41,42
 365 332 365 332 382 329.5 c 128,-1,43
 399 327 399 327 417 327 c 0,44,45
 463 327 463 327 499 343 c 1,46,-1
 499 502 l 1,47,-1
 338 502 l 1,48,49
 346 472 346 472 350.5 442 c 128,-1,50
 355 412 355 412 355 383 c 0,39,40
EndSplineSet
EndChar

StartChar: uni0939
Encoding: 2361 2361 88
Width: 512
GlyphClass: 2
Flags: W
AnchorPoint: "Anchor-7" 139 -158 basechar 0
AnchorPoint: "Anchor-6" 278 -80 basechar 0
AnchorPoint: "Anchor-5" 414 -107 basechar 0
AnchorPoint: "Anchor-1" 423 627 basechar 0
AnchorPoint: "Anchor-0" 423 627 basechar 0
LayerCount: 2
Fore
SplineSet
320 -122 m 1,0,1
 205 -84 205 -84 135.5 -19 c 128,-1,2
 66 46 66 46 66 131 c 0,3,4
 66 165 66 165 79.5 193.5 c 128,-1,5
 93 222 93 222 117 244 c 1,6,7
 90 267 90 267 72 295.5 c 128,-1,8
 54 324 54 324 54 356 c 0,9,10
 54 407 54 407 96.5 436 c 128,-1,11
 139 465 139 465 212 465 c 0,12,13
 227 465 227 465 240.5 464.5 c 128,-1,14
 254 464 254 464 267 463 c 1,15,-1
 267 502 l 1,16,-1
 -8 502 l 1,17,-1
 -74 611 l 1,18,-1
 -74 627 l 1,19,-1
 520 627 l 1,20,-1
 586 518 l 1,21,-1
 586 502 l 1,22,-1
 423 502 l 1,23,-1
 423 351 l 1,24,25
 405 353 405 353 381 354.5 c 128,-1,26
 357 356 357 356 328 356 c 0,27,28
 255 356 255 356 220 345.5 c 128,-1,29
 185 335 185 335 185 310 c 0,30,31
 185 297 185 297 193 286 c 1,32,33
 231 298 231 298 273 298 c 0,34,35
 317 298 317 298 355.5 283 c 128,-1,36
 394 268 394 268 423 242 c 0,37,38
 451 218 451 218 467 186.5 c 128,-1,39
 483 155 483 155 483 121 c 0,40,41
 483 88 483 88 467 60 c 128,-1,42
 451 32 451 32 428 9 c 1,43,-1
 322 85 l 1,44,45
 342 101 342 101 359.5 118 c 128,-1,46
 377 135 377 135 377 160 c 0,47,48
 377 177 377 177 363 188 c 128,-1,49
 349 199 349 199 321 199 c 256,50,51
 293 199 293 199 267 186 c 128,-1,52
 241 173 241 173 225 149 c 128,-1,53
 209 125 209 125 209 93 c 0,54,55
 209 44 209 44 247 9.5 c 128,-1,56
 285 -25 285 -25 365 -51 c 1,57,-1
 320 -122 l 1,0,1
EndSplineSet
EndChar

StartChar: uni0933
Encoding: 2355 2355 89
Width: 769
GlyphClass: 2
Flags: W
AnchorPoint: "Anchor-7" 411 -45 basechar 0
AnchorPoint: "Anchor-6" 380 0 basechar 0
AnchorPoint: "Anchor-5" 611 5 basechar 0
AnchorPoint: "Anchor-1" 594 627 basechar 0
AnchorPoint: "Anchor-0" 594 627 basechar 0
LayerCount: 2
Fore
SplineSet
272 39 m 0,0,1
 232 39 232 39 192 56.5 c 128,-1,2
 152 74 152 74 120 102 c 0,3,4
 86 133 86 133 65.5 174.5 c 128,-1,5
 45 216 45 216 45 260 c 0,6,7
 45 315 45 315 67.5 356 c 128,-1,8
 90 397 90 397 129.5 420.5 c 128,-1,9
 169 444 169 444 219 444 c 0,10,11
 262 444 262 444 299.5 428.5 c 128,-1,12
 337 413 337 413 373 380 c 1,13,14
 387 397 387 397 404 410.5 c 128,-1,15
 421 424 421 424 443 433 c 1,16,-1
 443 502 l 1,17,-1
 -8 502 l 1,18,-1
 -74 611 l 1,19,-1
 -74 627 l 1,20,-1
 777 627 l 1,21,-1
 843 518 l 1,22,-1
 843 502 l 1,23,-1
 594 502 l 1,24,-1
 594 422 l 1,25,26
 637 401 637 401 668 363 c 0,27,28
 694 333 694 333 708.5 296.5 c 128,-1,29
 723 260 723 260 723 222 c 0,30,31
 723 167 723 167 702 126 c 128,-1,32
 681 85 681 85 645.5 62 c 128,-1,33
 610 39 610 39 564 39 c 0,34,35
 515 39 515 39 476.5 57.5 c 128,-1,36
 438 76 438 76 406 107 c 1,37,38
 383 77 383 77 351 58 c 128,-1,39
 319 39 319 39 272 39 c 0,0,1
551 340 m 0,40,41
 524 340 524 340 507 315 c 128,-1,42
 490 290 490 290 476 252 c 128,-1,43
 462 214 462 214 444 174 c 1,44,45
 454 165 454 165 467 160 c 128,-1,46
 480 155 480 155 496 155 c 0,47,48
 524 155 524 155 546 174 c 128,-1,49
 568 193 568 193 581 222.5 c 128,-1,50
 594 252 594 252 594 282 c 0,51,52
 594 308 594 308 583 324 c 128,-1,53
 572 340 572 340 551 340 c 0,40,41
174 198 m 0,54,55
 174 173 174 173 185.5 158 c 128,-1,56
 197 143 197 143 214 143 c 0,57,58
 242 143 242 143 260.5 168 c 128,-1,59
 279 193 279 193 294.5 231.5 c 128,-1,60
 310 270 310 270 330 310 c 1,61,62
 309 328 309 328 280 328 c 0,63,64
 250 328 250 328 226 310 c 128,-1,65
 202 292 202 292 188 262.5 c 128,-1,66
 174 233 174 233 174 198 c 0,54,55
EndSplineSet
EndChar

StartChar: uni0915094D0937
Encoding: 65539 -1 90
Width: 780
GlyphClass: 2
Flags: W
AnchorPoint: "Anchor-6" 453 -132 basechar 0
AnchorPoint: "Anchor-5" 720 20 basechar 0
AnchorPoint: "Anchor-1" 720 627 basechar 0
AnchorPoint: "Anchor-0" 720 627 basechar 0
LayerCount: 2
Fore
SplineSet
451 -163 m 1,0,1
 436 -148 436 -148 417 -120.5 c 128,-1,2
 398 -93 398 -93 380.5 -63 c 128,-1,3
 363 -33 363 -33 351 -7 c 1,4,5
 337 -9 337 -9 323 -9 c 0,6,7
 272 -9 272 -9 224.5 12 c 128,-1,8
 177 33 177 33 139 64 c 0,9,10
 100 97 100 97 76 137 c 128,-1,11
 52 177 52 177 52 214 c 0,12,13
 52 250 52 250 69 278 c 128,-1,14
 86 306 86 306 113 328.5 c 128,-1,15
 140 351 140 351 170 370 c 1,16,17
 131 401 131 401 106 436 c 128,-1,18
 81 471 81 471 81 513 c 0,19,20
 81 566 81 566 120.5 601 c 128,-1,21
 160 636 160 636 227 636 c 0,22,23
 268 636 268 636 308.5 619 c 128,-1,24
 349 602 349 602 380 573 c 0,25,26
 410 545 410 545 428 507.5 c 128,-1,27
 446 470 446 470 446 432 c 0,28,29
 446 408 446 408 436 388 c 128,-1,30
 426 368 426 368 410 350 c 1,31,32
 449 354 449 354 487 367.5 c 128,-1,33
 525 381 525 381 559 402 c 1,34,-1
 559 502 l 1,35,-1
 497 502 l 1,36,-1
 431 611 l 1,37,-1
 431 627 l 1,38,-1
 788 627 l 1,39,-1
 854 518 l 1,40,-1
 854 502 l 1,41,-1
 720 502 l 1,42,-1
 720 -10 l 1,43,-1
 702 -10 l 1,44,-1
 559 82 l 1,45,-1
 559 257 l 1,46,47
 524 248 524 248 480 248 c 0,48,49
 440 248 440 248 400 257 c 128,-1,50
 360 266 360 266 322 282 c 1,51,52
 291 262 291 262 263.5 242 c 128,-1,53
 236 222 236 222 218.5 200.5 c 128,-1,54
 201 179 201 179 201 152 c 0,55,56
 201 133 201 133 216 122 c 128,-1,57
 231 111 231 111 254 111 c 0,58,59
 278 111 278 111 296 121 c 1,60,61
 294 127 294 127 292.5 135.5 c 128,-1,62
 291 144 291 144 291 154 c 0,63,64
 291 185 291 185 313 204 c 128,-1,65
 335 223 335 223 367 223 c 0,66,67
 401 223 401 223 427 204.5 c 128,-1,68
 453 186 453 186 468.5 158.5 c 128,-1,69
 484 131 484 131 484 104 c 0,70,71
 484 73 484 73 467.5 51 c 128,-1,72
 451 29 451 29 425 15 c 1,73,74
 460 -19 460 -19 507 -51 c 128,-1,75
 554 -83 554 -83 592 -105 c 1,76,-1
 451 -163 l 1,0,1
225 490 m 0,77,78
 225 472 225 472 231.5 454 c 128,-1,79
 238 436 238 436 250 420 c 1,80,81
 275 437 275 437 291.5 454.5 c 128,-1,82
 308 472 308 472 308 493 c 0,83,84
 308 513 308 513 298 527.5 c 128,-1,85
 288 542 288 542 269 542 c 256,86,87
 250 542 250 542 237.5 527.5 c 128,-1,88
 225 513 225 513 225 490 c 0,77,78
EndSplineSet
Substitution2: "Single Substitution lookup 819 subtable" uni0915094D0937.short
Ligature2: "'akhn' Akhand lookup 749 subtable" uni0915 uni094D uni0937
EndChar

StartChar: uni0915094D0937.short
Encoding: 65540 -1 91
Width: 780
GlyphClass: 2
Flags: W
AnchorPoint: "Anchor-6" 410 0 basechar 0
AnchorPoint: "Anchor-5" 720 0 basechar 0
AnchorPoint: "Anchor-1" 720 627 basechar 0
AnchorPoint: "Anchor-0" 720 627 basechar 0
LayerCount: 2
Fore
SplineSet
398 -88 m 1,0,1
 387 -76 387 -76 373.5 -52.5 c 128,-1,2
 360 -29 360 -29 351 -8 c 1,3,4
 337 -9 337 -9 323 -9 c 0,5,6
 272 -9 272 -9 224.5 12 c 128,-1,7
 177 33 177 33 139 64 c 0,8,9
 100 97 100 97 76 137 c 128,-1,10
 52 177 52 177 52 214 c 0,11,12
 52 250 52 250 69 278 c 128,-1,13
 86 306 86 306 113 328.5 c 128,-1,14
 140 351 140 351 170 370 c 1,15,16
 131 401 131 401 106 436 c 128,-1,17
 81 471 81 471 81 513 c 0,18,19
 81 566 81 566 120.5 601 c 128,-1,20
 160 636 160 636 227 636 c 0,21,22
 268 636 268 636 308.5 619 c 128,-1,23
 349 602 349 602 380 573 c 0,24,25
 410 545 410 545 428 507.5 c 128,-1,26
 446 470 446 470 446 432 c 0,27,28
 446 408 446 408 436 388 c 128,-1,29
 426 368 426 368 410 350 c 1,30,31
 449 354 449 354 487 367.5 c 128,-1,32
 525 381 525 381 559 402 c 1,33,-1
 559 502 l 1,34,-1
 497 502 l 1,35,-1
 431 611 l 1,36,-1
 431 627 l 1,37,-1
 788 627 l 1,38,-1
 854 518 l 1,39,-1
 854 502 l 1,40,-1
 720 502 l 1,41,-1
 720 -50 l 1,42,-1
 702 -50 l 1,43,-1
 559 42 l 1,44,-1
 559 257 l 1,45,46
 524 248 524 248 480 248 c 0,47,48
 440 248 440 248 400 257 c 128,-1,49
 360 266 360 266 322 282 c 1,50,51
 291 262 291 262 263.5 242 c 128,-1,52
 236 222 236 222 218.5 200.5 c 128,-1,53
 201 179 201 179 201 152 c 0,54,55
 201 133 201 133 216 122 c 128,-1,56
 231 111 231 111 254 111 c 0,57,58
 278 111 278 111 296 121 c 1,59,60
 294 127 294 127 292.5 135.5 c 128,-1,61
 291 144 291 144 291 154 c 0,62,63
 291 185 291 185 313 204 c 128,-1,64
 335 223 335 223 367 223 c 0,65,66
 401 223 401 223 427 204.5 c 128,-1,67
 453 186 453 186 468.5 158.5 c 128,-1,68
 484 131 484 131 484 104 c 0,69,70
 484 80 484 80 473 61 c 128,-1,71
 462 42 462 42 445 28 c 1,72,73
 464 14 464 14 485 1.5 c 128,-1,74
 506 -11 506 -11 524 -20 c 1,75,-1
 398 -88 l 1,0,1
225 490 m 0,76,77
 225 472 225 472 231.5 454 c 128,-1,78
 238 436 238 436 250 420 c 1,79,80
 275 437 275 437 291.5 454.5 c 128,-1,81
 308 472 308 472 308 493 c 0,82,83
 308 513 308 513 298 527.5 c 128,-1,84
 288 542 288 542 269 542 c 256,85,86
 250 542 250 542 237.5 527.5 c 128,-1,87
 225 513 225 513 225 490 c 0,76,77
EndSplineSet
EndChar

StartChar: uni091C094D091E
Encoding: 65541 -1 92
Width: 702
GlyphClass: 2
Flags: W
AnchorPoint: "Anchor-6" 351 -62 basechar 0
AnchorPoint: "Anchor-5" 642 0 basechar 0
AnchorPoint: "Anchor-1" 642 627 basechar 0
AnchorPoint: "Anchor-0" 642 627 basechar 0
LayerCount: 2
Fore
SplineSet
296 -120 m 1,0,1
 248 -77 248 -77 213.5 -32.5 c 128,-1,2
 179 12 179 12 160 59 c 1,3,4
 103 72 103 72 66 105 c 128,-1,5
 29 138 29 138 29 187 c 0,6,7
 29 219 29 219 48.5 239.5 c 128,-1,8
 68 260 68 260 103 260 c 0,9,10
 145 260 145 260 170.5 231 c 128,-1,11
 196 202 196 202 209 167 c 1,12,13
 241 170 241 170 263 192.5 c 128,-1,14
 285 215 285 215 285 243 c 0,15,16
 285 266 285 266 276.5 283 c 128,-1,17
 268 300 268 300 254 319 c 1,18,-1
 176 319 l 1,19,-1
 101 423 l 1,20,-1
 101 439 l 1,21,-1
 482 439 l 1,22,-1
 482 502 l 1,23,-1
 -8 502 l 1,24,-1
 -74 611 l 1,25,-1
 -74 627 l 1,26,-1
 710 627 l 1,27,-1
 776 518 l 1,28,-1
 776 502 l 1,29,-1
 642 502 l 1,30,-1
 642 -10 l 1,31,-1
 625 -10 l 1,32,-1
 482 82 l 1,33,-1
 482 319 l 1,34,-1
 357 319 l 1,35,36
 386 294 386 294 402.5 263.5 c 128,-1,37
 419 233 419 233 419 198 c 0,38,39
 419 165 419 165 400.5 134 c 128,-1,40
 382 103 382 103 347 80.5 c 128,-1,41
 312 58 312 58 261 53 c 1,42,43
 288 34 288 34 323.5 18.5 c 128,-1,44
 359 3 359 3 397 -10 c 1,45,-1
 296 -120 l 1,0,1
EndSplineSet
Ligature2: "'akhn' Akhand lookup 749 subtable" uni091C uni094D uni091E
EndChar

StartChar: uni097B
Encoding: 2427 2427 93
Width: 587
GlyphClass: 2
Flags: W
AnchorPoint: "Anchor-6" 293 -40 basechar 0
AnchorPoint: "Anchor-5" 527 -57 basechar 0
AnchorPoint: "Anchor-1" 527 627 basechar 0
AnchorPoint: "Anchor-0" 527 627 basechar 0
LayerCount: 2
Fore
SplineSet
77 -28 m 1,0,-1
 11 77 l 1,1,-1
 11 94 l 1,2,-1
 366 94 l 1,3,-1
 366 502 l 1,4,-1
 246 502 l 1,5,6
 255 446 255 446 262 387.5 c 128,-1,7
 269 329 269 329 269 287 c 0,8,9
 269 217 269 217 247.5 188 c 128,-1,10
 226 159 226 159 186 159 c 0,11,12
 158 159 158 159 128 174 c 128,-1,13
 98 189 98 189 72.5 213 c 128,-1,14
 47 237 47 237 31.5 264.5 c 128,-1,15
 16 292 16 292 16 316 c 0,16,17
 16 343 16 343 32.5 357.5 c 128,-1,18
 49 372 49 372 78 372 c 0,19,20
 90 372 90 372 102 370 c 1,21,22
 105 382 105 382 105 424 c 0,23,24
 105 465 105 465 103 502 c 1,25,-1
 -8 502 l 1,26,-1
 -74 611 l 1,27,-1
 -74 627 l 1,28,-1
 595 627 l 1,29,-1
 661 518 l 1,30,-1
 661 502 l 1,31,-1
 527 502 l 1,32,-1
 527 94 l 1,33,-1
 593 -11 l 1,34,-1
 593 -28 l 1,35,-1
 77 -28 l 1,0,-1
EndSplineSet
EndChar

StartChar: uni097C
Encoding: 2428 2428 94
Width: 721
GlyphClass: 2
Flags: W
AnchorPoint: "Anchor-6" 341 -58 basechar 0
AnchorPoint: "Anchor-5" 661 -57 basechar 0
AnchorPoint: "Anchor-1" 661 627 basechar 0
AnchorPoint: "Anchor-0" 661 627 basechar 0
LayerCount: 2
Fore
SplineSet
86 -28 m 1,0,-1
 20 77 l 1,1,-1
 20 94 l 1,2,-1
 506 94 l 1,3,-1
 506 320 l 1,4,-1
 482 320 l 2,5,6
 459 320 459 320 438 321 c 128,-1,7
 417 322 417 322 399 324 c 1,8,9
 416 303 416 303 423 281 c 128,-1,10
 430 259 430 259 430 237 c 0,11,12
 430 188 430 188 397.5 156 c 128,-1,13
 365 124 365 124 305 124 c 0,14,15
 211 124 211 124 146 190.5 c 128,-1,16
 81 257 81 257 29 390 c 1,17,-1
 106 419 l 1,18,19
 143 333 143 333 180 294.5 c 128,-1,20
 217 256 217 256 260 256 c 0,21,22
 283 256 283 256 295.5 268 c 128,-1,23
 308 280 308 280 308 300 c 0,24,25
 308 342 308 342 258 387 c 1,26,-1
 289 439 l 1,27,-1
 506 439 l 1,28,-1
 506 502 l 1,29,-1
 -8 502 l 1,30,-1
 -74 611 l 1,31,-1
 -74 627 l 1,32,-1
 729 627 l 1,33,-1
 795 518 l 1,34,-1
 795 502 l 1,35,-1
 661 502 l 1,36,-1
 661 94 l 1,37,-1
 727 -11 l 1,38,-1
 727 -28 l 1,39,-1
 86 -28 l 1,0,-1
EndSplineSet
EndChar

StartChar: uni097E
Encoding: 2430 2430 95
Width: 561
GlyphClass: 2
Flags: W
AnchorPoint: "Anchor-7" 317 -243 basechar 0
AnchorPoint: "Anchor-6" 277 -163 basechar 0
AnchorPoint: "Anchor-5" 393 -163 basechar 0
AnchorPoint: "Anchor-1" 454 627 basechar 0
AnchorPoint: "Anchor-0" 454 627 basechar 0
LayerCount: 2
Fore
SplineSet
331 23 m 0,0,1
 273 23 273 23 225 41.5 c 128,-1,2
 177 60 177 60 139.5 89.5 c 128,-1,3
 102 119 102 119 73.5 151.5 c 128,-1,4
 45 184 45 184 25 212 c 1,5,-1
 87 257 l 1,6,7
 106 232 106 232 134.5 204.5 c 128,-1,8
 163 177 163 177 202 157.5 c 128,-1,9
 241 138 241 138 292 138 c 0,10,11
 353 138 353 138 385 152.5 c 128,-1,12
 417 167 417 167 417 186 c 0,13,14
 417 209 417 209 382 209 c 0,15,16
 360 209 360 209 334 198 c 128,-1,17
 308 187 308 187 278 167 c 1,18,19
 231 187 231 187 191.5 214 c 128,-1,20
 152 241 152 241 128.5 275 c 128,-1,21
 105 309 105 309 105 347 c 0,22,23
 105 403 105 403 151.5 434 c 128,-1,24
 198 465 198 465 265 465 c 0,25,26
 290 465 290 465 307 464 c 1,27,-1
 307 502 l 1,28,-1
 -5 502 l 1,29,-1
 -69 611 l 1,30,-1
 -69 627 l 1,31,-1
 577 627 l 1,32,-1
 642 518 l 1,33,-1
 642 502 l 1,34,-1
 454 502 l 1,35,-1
 454 360 l 1,36,37
 442 361 442 361 418.5 361.5 c 128,-1,38
 395 362 395 362 372 362 c 0,39,40
 305 362 305 362 266.5 348 c 128,-1,41
 228 334 228 334 228 308 c 0,42,43
 228 293 228 293 234 287 c 1,44,45
 260 304 260 304 288 313.5 c 128,-1,46
 316 323 316 323 349 323 c 0,47,48
 383 323 383 323 415 310 c 128,-1,49
 447 297 447 297 469 273 c 0,50,51
 490 251 490 251 502 223 c 128,-1,52
 514 195 514 195 514 165 c 0,53,54
 514 104 514 104 466.5 63.5 c 128,-1,55
 419 23 419 23 331 23 c 0,0,1
113 -139 m 1,56,-1
 49 -37 l 1,57,-1
 49 -21 l 1,58,-1
 480 -21 l 1,59,-1
 544 -123 l 1,60,-1
 544 -139 l 1,61,-1
 113 -139 l 1,56,-1
EndSplineSet
EndChar

StartChar: uni097F
Encoding: 2431 2431 96
Width: 545
GlyphClass: 2
Flags: W
AnchorPoint: "Anchor-6" 273 -59 basechar 0
AnchorPoint: "Anchor-5" 485 -57 basechar 0
AnchorPoint: "Anchor-1" 485 627 basechar 0
AnchorPoint: "Anchor-0" 485 627 basechar 0
LayerCount: 2
Fore
SplineSet
89 -27 m 1,0,-1
 24 78 l 1,1,-1
 24 95 l 1,2,-1
 340 95 l 1,3,-1
 340 152 l 1,4,5
 301 130 301 130 250 130 c 0,6,7
 207 130 207 130 165.5 143.5 c 128,-1,8
 124 157 124 157 93 182 c 0,9,10
 60 209 60 209 39.5 244.5 c 128,-1,11
 19 280 19 280 19 318 c 0,12,13
 19 360 19 360 42.5 393 c 128,-1,14
 66 426 66 426 105.5 444.5 c 128,-1,15
 145 463 145 463 193 463 c 0,16,17
 238 463 238 463 272.5 451 c 128,-1,18
 307 439 307 439 333 421 c 1,19,-1
 333 502 l 1,20,-1
 -8 502 l 1,21,-1
 -74 611 l 1,22,-1
 -74 627 l 1,23,-1
 553 627 l 1,24,-1
 619 518 l 1,25,-1
 619 502 l 1,26,-1
 485 502 l 1,27,-1
 485 95 l 1,28,-1
 551 -10 l 1,29,-1
 551 -27 l 1,30,-1
 89 -27 l 1,0,-1
236 358 m 0,31,32
 230 358 230 358 224 358 c 1,33,-1
 296 264 l 1,34,35
 313 275 313 275 333 291 c 1,36,-1
 333 340 l 1,37,38
 315 348 315 348 291.5 353 c 128,-1,39
 268 358 268 358 236 358 c 0,31,32
124 284 m 0,40,41
 124 258 124 258 143 241.5 c 128,-1,42
 162 225 162 225 193 225 c 0,43,44
 218 225 218 225 243 235 c 1,45,-1
 162 340 l 1,46,47
 144 330 144 330 134 316 c 128,-1,48
 124 302 124 302 124 284 c 0,40,41
EndSplineSet
EndChar

StartChar: uni0979
Encoding: 2425 2425 97
Width: 721
GlyphClass: 2
Flags: W
AnchorPoint: "Anchor-6" 354 -206 basechar 0
AnchorPoint: "Anchor-5" 661 -40 basechar 0
AnchorPoint: "Anchor-1" 661 627 basechar 0
AnchorPoint: "Anchor-0" 661 627 basechar 0
LayerCount: 2
Fore
SplineSet
305 82 m 0,0,1
 211 82 211 82 140.5 160 c 128,-1,2
 70 238 70 238 31 386 c 1,3,-1
 107 410 l 1,4,5
 138 313 138 313 173 267 c 128,-1,6
 208 221 208 221 251 221 c 0,7,8
 305 221 305 221 305 274 c 0,9,10
 305 326 305 326 247 384 c 1,11,-1
 277 436 l 1,12,-1
 501 436 l 1,13,-1
 501 502 l 1,14,-1
 -8 502 l 1,15,-1
 -74 611 l 1,16,-1
 -74 627 l 1,17,-1
 729 627 l 1,18,-1
 795 518 l 1,19,-1
 795 502 l 1,20,-1
 661 502 l 1,21,-1
 661 -10 l 1,22,-1
 644 -10 l 1,23,-1
 501 82 l 1,24,-1
 501 309 l 1,25,-1
 476 309 l 2,26,27
 451 309 451 309 428 310 c 128,-1,28
 405 311 405 311 386 313 c 1,29,30
 429 254 429 254 429 195 c 0,31,32
 429 150 429 150 396.5 116 c 128,-1,33
 364 82 364 82 305 82 c 0,0,1
193 -52 m 256,34,35
 132 -52 132 -52 132 11 c 256,36,37
 132 74 132 74 193 74 c 256,38,39
 254 74 254 74 254 11 c 256,40,41
 254 -52 254 -52 193 -52 c 256,34,35
352 -52 m 0,42,43
 291 -52 291 -52 291 11 c 256,44,45
 291 74 291 74 352 74 c 0,46,47
 412 74 412 74 412 11 c 0,48,49
 412 -19 412 -19 396.5 -35.5 c 128,-1,50
 381 -52 381 -52 352 -52 c 0,42,43
275 -176 m 256,51,52
 214 -176 214 -176 214 -113 c 256,53,54
 214 -50 214 -50 275 -50 c 256,55,56
 336 -50 336 -50 336 -113 c 256,57,58
 336 -176 336 -176 275 -176 c 256,51,52
EndSplineSet
EndChar

StartChar: uni097A
Encoding: 2426 2426 98
Width: 626
GlyphClass: 2
Flags: W
AnchorPoint: "Anchor-7" 136 14 basechar 0
AnchorPoint: "Anchor-6" 313 -10 basechar 0
AnchorPoint: "Anchor-5" 566 20 basechar 0
AnchorPoint: "Anchor-1" 566 627 basechar 0
AnchorPoint: "Anchor-0" 566 627 basechar 0
LayerCount: 2
Fore
SplineSet
344 110 m 0,0,1
 252 110 252 110 171 166 c 128,-1,2
 90 222 90 222 34 343 c 1,3,4
 108 373 108 373 141.5 402 c 128,-1,5
 175 431 175 431 175 468 c 0,6,7
 175 486 175 486 170 502 c 1,8,-1
 -8 502 l 1,9,-1
 -74 611 l 1,10,-1
 -74 627 l 1,11,-1
 634 627 l 1,12,-1
 700 518 l 1,13,-1
 700 502 l 1,14,-1
 566 502 l 1,15,-1
 566 -10 l 1,16,-1
 549 -10 l 1,17,-1
 406 82 l 1,18,-1
 406 120 l 1,19,20
 377 110 377 110 344 110 c 0,0,1
265 502 m 1,21,-1
 406 291 l 1,22,-1
 406 292 l 1,23,-1
 406 502 l 1,24,-1
 265 502 l 1,21,-1
216 223 m 0,25,26
 224 219 224 219 234 217 c 128,-1,27
 244 215 244 215 255 215 c 0,28,29
 298 215 298 215 342 240 c 1,30,-1
 280 339 l 1,31,32
 272 323 272 323 258 306.5 c 128,-1,33
 244 290 244 290 222 274 c 0,34,35
 198 257 198 257 198 246 c 0,36,37
 198 233 198 233 216 223 c 0,25,26
EndSplineSet
EndChar

StartChar: uni0978
Encoding: 2424 2424 99
Width: 596
GlyphClass: 2
Flags: W
AnchorPoint: "Anchor-6" 284 0 basechar 0
AnchorPoint: "Anchor-5" 411 -20 basechar 0
AnchorPoint: "Anchor-1" 391 627 basechar 0
AnchorPoint: "Anchor-0" 391 627 basechar 0
LayerCount: 2
Fore
SplineSet
323 -48 m 1,0,-1
 199 69 l 1,1,2
 262 96 262 96 312.5 124.5 c 128,-1,3
 363 153 363 153 393 182 c 128,-1,4
 423 211 423 211 423 239 c 0,5,6
 423 259 423 259 408.5 271 c 128,-1,7
 394 283 394 283 360 283 c 0,8,9
 335 283 335 283 309.5 275 c 128,-1,10
 284 267 284 267 262 254 c 1,11,-1
 262 227 l 2,12,13
 262 187 262 187 247.5 164 c 128,-1,14
 233 141 233 141 197 141 c 0,15,16
 172 141 172 141 145 153.5 c 128,-1,17
 118 166 118 166 94.5 187.5 c 128,-1,18
 71 209 71 209 56.5 235 c 128,-1,19
 42 261 42 261 42 288 c 0,20,21
 42 317 42 317 59 338.5 c 128,-1,22
 76 360 76 360 106 375 c 1,23,-1
 106 502 l 1,24,-1
 -8 502 l 1,25,-1
 -74 611 l 1,26,-1
 -74 627 l 1,27,-1
 604 627 l 1,28,-1
 670 518 l 1,29,-1
 670 502 l 1,30,-1
 262 502 l 1,31,-1
 262 402 l 1,32,33
 319 401 319 401 369.5 382 c 128,-1,34
 420 363 420 363 456 331 c 0,35,36
 492 301 492 301 512.5 260.5 c 128,-1,37
 533 220 533 220 533 175 c 0,38,39
 533 111 533 111 478 55.5 c 128,-1,40
 423 0 423 0 323 -48 c 1,0,-1
EndSplineSet
EndChar

StartChar: uni091D.NEP
Encoding: 65542 -1 100
Width: 942
GlyphClass: 2
Flags: W
AnchorPoint: "Anchor-7" 302 2 basechar 0
AnchorPoint: "Anchor-6" 574 -10 basechar 0
AnchorPoint: "Anchor-5" 654 20 basechar 0
AnchorPoint: "Anchor-1" 654 627 basechar 0
AnchorPoint: "Anchor-0" 654 627 basechar 0
LayerCount: 2
Fore
SplineSet
327 104 m 0,0,1
 297 104 297 104 266 120 c 128,-1,2
 235 136 235 136 209 161.5 c 128,-1,3
 183 187 183 187 167 217 c 128,-1,4
 151 247 151 247 151 275 c 0,5,6
 151 310 151 310 172 325 c 128,-1,7
 193 340 193 340 235 343 c 1,8,-1
 235 368 l 1,9,10
 182 372 182 372 133 392.5 c 128,-1,11
 84 413 84 413 52.5 447.5 c 128,-1,12
 21 482 21 482 21 530 c 0,13,14
 21 579 21 579 57 609 c 128,-1,15
 93 639 93 639 157 639 c 0,16,17
 205 639 205 639 247 619.5 c 128,-1,18
 289 600 289 600 320 567 c 128,-1,19
 351 534 351 534 368.5 492 c 128,-1,20
 386 450 386 450 386 406 c 2,21,-1
 386 337 l 1,22,23
 414 334 414 334 442 329.5 c 128,-1,24
 470 325 470 325 494 321 c 1,25,-1
 494 502 l 1,26,-1
 433 502 l 1,27,-1
 367 611 l 1,28,-1
 367 627 l 1,29,-1
 951 627 l 1,30,-1
 1017 518 l 1,31,-1
 1017 502 l 1,32,-1
 654 502 l 1,33,-1
 654 413 l 1,34,35
 682 420 682 420 709 420 c 0,36,37
 743 420 743 420 774.5 406.5 c 128,-1,38
 806 393 806 393 834 362 c 0,39,40
 866 328 866 328 882 294 c 128,-1,41
 898 260 898 260 898 221 c 0,42,43
 898 169 898 169 875 114 c 128,-1,44
 852 59 852 59 818 15 c 1,45,-1
 694 89 l 1,46,47
 743 142 743 142 767.5 185.5 c 128,-1,48
 792 229 792 229 792 258 c 0,49,50
 792 277 792 277 780.5 291 c 128,-1,51
 769 305 769 305 743 305 c 0,52,53
 701 305 701 305 654 266 c 1,54,-1
 654 -10 l 1,55,-1
 637 -10 l 1,56,-1
 494 82 l 1,57,-1
 494 212 l 1,58,-1
 386 212 l 1,59,-1
 386 178 l 2,60,61
 386 147 386 147 373.5 125.5 c 128,-1,62
 361 104 361 104 327 104 c 0,0,1
171 511 m 0,63,64
 171 486 171 486 189 467.5 c 128,-1,65
 207 449 207 449 235 436 c 1,66,-1
 235 517 l 2,67,68
 235 545 235 545 207 545 c 0,69,70
 191 545 191 545 181 535.5 c 128,-1,71
 171 526 171 526 171 511 c 0,63,64
EndSplineSet
EndChar

StartChar: uni0902
Encoding: 2306 2306 101
Width: 0
GlyphClass: 4
Flags: W
AnchorPoint: "Anchor-12" 0 627 mark 0
AnchorPoint: "Anchor-3" 0 627 mark 0
AnchorPoint: "Anchor-0" 0 627 mark 0
LayerCount: 2
Fore
SplineSet
-80 697 m 0,0,1
 -161 697 -161 697 -161 779 c 0,2,3
 -161 819 -161 819 -140.5 840.5 c 128,-1,4
 -120 862 -120 862 -80 862 c 0,5,6
 -41 862 -41 862 -20.5 840.5 c 128,-1,7
 0 819 0 819 0 779 c 0,8,9
 0 697 0 697 -80 697 c 0,0,1
EndSplineSet
Substitution2: "Single Substitution lookup 37 subtable" NullMark
Substitution2: "Single Substitution lookup 17 subtable" uni0930094D0902
Substitution2: "Single Substitution lookup 13 subtable" uni09460902
Substitution2: "Single Substitution lookup 12 subtable" uni09450902
Substitution2: "Single Substitution lookup 10 subtable" uni09480902
Substitution2: "Single Substitution lookup 8 subtable" uni09470902
Substitution2: "Single Substitution lookup 6 subtable" uni093A0902
EndChar

StartChar: uni0901
Encoding: 2305 2305 102
Width: 0
GlyphClass: 4
Flags: WO
AnchorPoint: "Anchor-13" 0 627 mark 0
AnchorPoint: "Anchor-2" 0 627 mark 0
AnchorPoint: "Anchor-1" 0 627 mark 0
LayerCount: 2
Fore
SplineSet
-106 811 m 260,0,1
 -164 811 -164 811 -164 870 c 4,2,3
 -164 930 -164 930 -106 930 c 260,4,5
 -48 930 -48 930 -48 870 c 4,6,7
 -48 811 -48 811 -106 811 c 260,0,1
-76 666 m 4,8,9
 -145 666 -145 666 -193 692 c 132,-1,10
 -241 718 -241 718 -271.5 762 c 132,-1,11
 -302 806 -302 806 -320 858 c 5,12,-1
 -238 889 l 5,13,14
 -219 833 -219 833 -188 804 c 132,-1,15
 -157 775 -157 775 -106 775 c 4,16,17
 -52 775 -52 775 -20.5 807.5 c 132,-1,18
 11 840 11 840 22 901 c 5,19,-1
 165 862 l 5,20,21
 152 807 152 807 122 762.5 c 132,-1,22
 92 718 92 718 43.5 692 c 132,-1,23
 -5 666 -5 666 -76 666 c 4,8,9
EndSplineSet
Substitution2: "Single Substitution lookup 787 subtable" uni0901.alt
Substitution2: "Single Substitution lookup 786 subtable" uni0901.alt
Substitution2: "Single Substitution lookup 38 subtable" NullMark
Substitution2: "Single Substitution lookup 18 subtable" uni0930094D0901
Substitution2: "Single Substitution lookup 14 subtable" uni09460901
Substitution2: "Single Substitution lookup 11 subtable" uni09480901
Substitution2: "Single Substitution lookup 9 subtable" uni09470901
Substitution2: "Single Substitution lookup 7 subtable" oeMatra_candrabindudeva
EndChar

StartChar: uni0903
Encoding: 2307 2307 103
Width: 288
Flags: W
LayerCount: 2
Fore
SplineSet
146 362 m 0,0,1
 113 362 113 362 90 379 c 128,-1,2
 67 396 67 396 67 439 c 0,3,4
 67 484 67 484 90 500.5 c 128,-1,5
 113 517 113 517 146 517 c 0,6,7
 178 517 178 517 202 500.5 c 128,-1,8
 226 484 226 484 226 439 c 0,9,10
 226 396 226 396 202 379 c 128,-1,11
 178 362 178 362 146 362 c 0,0,1
146 43 m 0,12,13
 113 43 113 43 89.5 60 c 128,-1,14
 66 77 66 77 66 120 c 0,15,16
 66 165 66 165 89.5 181.5 c 128,-1,17
 113 198 113 198 146 198 c 0,18,19
 178 198 178 198 202 181.5 c 128,-1,20
 226 165 226 165 226 120 c 0,21,22
 226 77 226 77 202 60 c 128,-1,23
 178 43 178 43 146 43 c 0,12,13
EndSplineSet
Substitution2: "Single Substitution lookup 209 subtable" NullMark
EndChar

StartChar: uni094D
Encoding: 2381 2381 104
Width: 0
GlyphClass: 4
Flags: W
AnchorPoint: "Anchor-11" 0 0 mark 0
AnchorPoint: "Anchor-8" 0 0 mark 0
AnchorPoint: "Anchor-5" 0 0 mark 0
LayerCount: 2
Fore
SplineSet
125 -299 m 1,0,1
 85 -252 85 -252 54.5 -219.5 c 128,-1,2
 24 -187 24 -187 -5 -170 c 128,-1,3
 -34 -153 -34 -153 -71 -153 c 0,4,5
 -96 -153 -96 -153 -114 -157 c 128,-1,6
 -132 -161 -132 -161 -149 -166 c 1,7,-1
 -194 -36 l 1,8,9
 -151 -23 -151 -23 -102 -23 c 0,10,11
 -65 -23 -65 -23 -35 -34 c 128,-1,12
 -5 -45 -5 -45 26 -71 c 128,-1,13
 57 -97 57 -97 95 -142.5 c 128,-1,14
 133 -188 133 -188 186 -258 c 1,15,-1
 125 -299 l 1,0,1
EndSplineSet
Substitution2: "Single Substitution lookup 243 subtable" uni094D0930094D
EndChar

StartChar: uni093C
Encoding: 2364 2364 105
Width: 0
GlyphClass: 4
Flags: W
AnchorPoint: "Anchor-15" -254 -126 mark 0
AnchorPoint: "Anchor-10" -253 -260 basemark 0
AnchorPoint: "Anchor-10" -254 -126 mark 0
AnchorPoint: "Anchor-7" -254 -126 mark 0
LayerCount: 2
Fore
SplineSet
-254 -200 m 0,0,1
 -329 -200 -329 -200 -329 -126 c 0,2,3
 -329 -54 -329 -54 -254 -54 c 0,4,5
 -178 -54 -178 -54 -178 -126 c 0,6,7
 -178 -200 -178 -200 -254 -200 c 0,0,1
EndSplineSet
Substitution2: "Single Substitution lookup 244 subtable" uni094D0930093C
EndChar

StartChar: uni093D
Encoding: 2365 2365 106
Width: 522
Flags: W
LayerCount: 2
Fore
SplineSet
308 20 m 0,0,1
 217 20 217 20 144.5 77 c 128,-1,2
 72 134 72 134 10 242 c 1,3,-1
 74 284 l 1,4,5
 124 214 124 214 165 185.5 c 128,-1,6
 206 157 206 157 252 157 c 0,7,8
 284 157 284 157 302 172.5 c 128,-1,9
 320 188 320 188 320 216 c 0,10,11
 320 247 320 247 297 273 c 128,-1,12
 274 299 274 299 240 323.5 c 128,-1,13
 206 348 206 348 172 375.5 c 128,-1,14
 138 403 138 403 115 436.5 c 128,-1,15
 92 470 92 470 92 513 c 0,16,17
 92 565 92 565 131.5 596.5 c 128,-1,18
 171 628 171 628 238 628 c 2,19,-1
 389 628 l 1,20,-1
 455 519 l 1,21,-1
 455 501 l 1,22,-1
 300 501 l 2,23,24
 253 501 253 501 253 465 c 0,25,26
 253 443 253 443 276 421 c 128,-1,27
 299 399 299 399 333 374 c 128,-1,28
 367 349 367 349 401 319 c 128,-1,29
 435 289 435 289 458 252.5 c 128,-1,30
 481 216 481 216 481 170 c 0,31,32
 481 101 481 101 432.5 60.5 c 128,-1,33
 384 20 384 20 308 20 c 0,0,1
EndSplineSet
EndChar

StartChar: uni097D
Encoding: 2429 2429 107
Width: 530
Flags: W
LayerCount: 2
Fore
SplineSet
322 -10 m 1,0,-1
 179 80 l 1,1,-1
 179 237 l 2,2,3
 179 259 179 259 181 281 c 128,-1,4
 183 303 183 303 194 325.5 c 128,-1,5
 205 348 205 348 233 372 c 2,6,-1
 318 443 l 2,7,8
 332 456 332 456 337.5 463.5 c 128,-1,9
 343 471 343 471 343 478 c 0,10,11
 343 488 343 488 335 494.5 c 128,-1,12
 327 501 327 501 310 501 c 0,13,14
 258 501 258 501 164 426 c 1,15,-1
 61 576 l 1,16,17
 108 610 108 610 153 625 c 128,-1,18
 198 640 198 640 240 640 c 0,19,20
 291 640 291 640 328 617.5 c 128,-1,21
 365 595 365 595 396 563 c 0,22,23
 425 532 425 532 444 496.5 c 128,-1,24
 463 461 463 461 463 417 c 0,25,26
 463 383 463 383 450.5 358 c 128,-1,27
 438 333 438 333 407 304 c 2,28,-1
 373 274 l 2,29,30
 353 255 353 255 346 238 c 128,-1,31
 339 221 339 221 339 195 c 2,32,-1
 339 -10 l 1,33,-1
 322 -10 l 1,0,-1
EndSplineSet
EndChar

StartChar: uni0971
Encoding: 2417 2417 108
Width: 384
Flags: W
LayerCount: 2
Fore
SplineSet
192 484 m 0,0,1
 152 484 152 484 131 505 c 128,-1,2
 110 526 110 526 110 564 c 256,3,4
 110 602 110 602 131 622.5 c 128,-1,5
 152 643 152 643 192 643 c 0,6,7
 233 643 233 643 253.5 622.5 c 128,-1,8
 274 602 274 602 274 564 c 256,9,10
 274 526 274 526 253.5 505 c 128,-1,11
 233 484 233 484 192 484 c 0,0,1
EndSplineSet
EndChar

StartChar: uni0951
Encoding: 2385 2385 109
Width: 0
GlyphClass: 4
Flags: W
AnchorPoint: "Anchor-12" -64 627 mark 0
AnchorPoint: "Anchor-3" -64 627 mark 0
AnchorPoint: "Anchor-0" -64 627 mark 0
LayerCount: 2
Fore
SplineSet
-209 670 m 1,0,-1
 -209 877 l 1,1,-1
 -79 877 l 1,2,-1
 -79 670 l 1,3,-1
 -209 670 l 1,0,-1
EndSplineSet
Substitution2: "Single Substitution lookup 853 subtable" uni0951.iirephc
Substitution2: "Single Substitution lookup 852 subtable" uni0951.iireph
Substitution2: "Single Substitution lookup 851 subtable" uni0951.iicandra
Substitution2: "Single Substitution lookup 850 subtable" uni0951.iireph
Substitution2: "Single Substitution lookup 849 subtable" uni0951.ii
Substitution2: "Single Substitution lookup 814 subtable" uni0951.iirephc
Substitution2: "Single Substitution lookup 813 subtable" uni0951.iicandra
Substitution2: "Single Substitution lookup 812 subtable" uni0951.alt
Substitution2: "Single Substitution lookup 811 subtable" uni0951.alt2
Substitution2: "Single Substitution lookup 810 subtable" uni0951.alt2
Substitution2: "Single Substitution lookup 809 subtable" uni0951.alt
Substitution2: "Single Substitution lookup 808 subtable" uni0951.alt
Substitution2: "Single Substitution lookup 807 subtable" uni0951.alt
Substitution2: "Single Substitution lookup 806 subtable" uni0951.alt
Substitution2: "Single Substitution lookup 805 subtable" uni0951.iirephc
Substitution2: "Single Substitution lookup 804 subtable" uni0951.alt3
Substitution2: "Single Substitution lookup 803 subtable" uni0951.alt2
Substitution2: "Single Substitution lookup 802 subtable" uni0951.alt1
Substitution2: "Single Substitution lookup 801 subtable" uni0951.alt2
Substitution2: "Single Substitution lookup 800 subtable" uni0951.alt
Substitution2: "Single Substitution lookup 799 subtable" uni0951.alt
Substitution2: "Single Substitution lookup 798 subtable" uni0951.alt3
Substitution2: "Single Substitution lookup 797 subtable" uni0951.alt3
Substitution2: "Single Substitution lookup 796 subtable" uni0951.alt3
Substitution2: "Single Substitution lookup 795 subtable" uni0951.iicandra
Substitution2: "Single Substitution lookup 794 subtable" uni0951.alt3
Substitution2: "Single Substitution lookup 793 subtable" uni0951.alt1
Substitution2: "Single Substitution lookup 792 subtable" uni0951.alt1
MultipleSubs2: "Multiple Substitution lookup 208 subtable" uni0951 uni0903
EndChar

StartChar: uni0952
Encoding: 2386 2386 110
Width: 0
GlyphClass: 4
Flags: W
AnchorPoint: "Anchor-14" -283 0 mark 0
AnchorPoint: "Anchor-9" -283 0 mark 0
AnchorPoint: "Anchor-6" -283 0 mark 0
LayerCount: 2
Fore
SplineSet
-535 -182 m 1,0,-1
 -535 -64 l 1,1,-1
 -32 -64 l 1,2,-1
 -32 -182 l 1,3,-1
 -535 -182 l 1,0,-1
EndSplineSet
Substitution2: "Single Substitution lookup 839 subtable" uni0952.alt3
Substitution2: "Single Substitution lookup 838 subtable" uni0952.alt3
Substitution2: "Single Substitution lookup 836 subtable" uni0952.alt2
Substitution2: "Single Substitution lookup 835 subtable" uni0952.alt2
Substitution2: "Single Substitution lookup 833 subtable" uni0952.alt1
Substitution2: "Single Substitution lookup 832 subtable" uni0952.alt1
Substitution2: "Single Substitution lookup 830 subtable" uni0952.alt
Substitution2: "Single Substitution lookup 829 subtable" uni0952.alt
Substitution2: "Single Substitution lookup 828 subtable" uni0952.alt
Substitution2: "Single Substitution lookup 827 subtable" uni0952.alt
MultipleSubs2: "Multiple Substitution lookup 208 subtable" uni0952 uni0903
EndChar

StartChar: uni0953
Encoding: 2387 2387 111
Width: 0
GlyphClass: 4
Flags: W
LayerCount: 2
Fore
SplineSet
-146 652 m 1,0,-1
 -305 804 l 1,1,-1
 -219 889 l 1,2,-1
 -60 737 l 1,3,-1
 -146 652 l 1,0,-1
EndSplineSet
EndChar

StartChar: uni0954
Encoding: 2388 2388 112
Width: 0
GlyphClass: 4
Flags: W
LayerCount: 2
Fore
SplineSet
-144 652 m 1,0,-1
 -229 737 l 1,1,-1
 -71 889 l 1,2,-1
 15 804 l 1,3,-1
 -144 652 l 1,0,-1
EndSplineSet
EndChar

StartChar: uni0900
Encoding: 2304 2304 113
Width: 0
GlyphClass: 4
Flags: W
AnchorPoint: "Anchor-13" 0 627 mark 0
AnchorPoint: "Anchor-2" 0 627 mark 0
AnchorPoint: "Anchor-1" 0 627 mark 0
LayerCount: 2
Fore
SplineSet
-76 930 m 0,0,1
 -5 930 -5 930 43.5 904 c 128,-1,2
 92 878 92 878 122 834 c 128,-1,3
 152 790 152 790 165 734 c 1,4,-1
 22 695 l 1,5,6
 11 756 11 756 -20.5 788.5 c 128,-1,7
 -52 821 -52 821 -106 821 c 0,8,9
 -157 821 -157 821 -188 792 c 128,-1,10
 -219 763 -219 763 -238 707 c 1,11,-1
 -320 738 l 1,12,13
 -302 791 -302 791 -271.5 834.5 c 128,-1,14
 -241 878 -241 878 -193 904 c 128,-1,15
 -145 930 -145 930 -76 930 c 0,0,1
-106 785 m 256,16,17
 -48 785 -48 785 -48 725 c 0,18,19
 -48 664 -48 664 -106 664 c 256,20,21
 -164 664 -164 664 -164 725 c 0,22,23
 -164 785 -164 785 -106 785 c 256,16,17
EndSplineSet
EndChar

StartChar: uni0966
Encoding: 2406 2406 114
Width: 519
GlyphClass: 2
Flags: W
AnchorPoint: "Anchor-6" 259 0 basechar 0
AnchorPoint: "Anchor-0" 339 627 basechar 0
LayerCount: 2
Fore
SplineSet
274 88 m 0,0,1
 226 88 226 88 181.5 108 c 128,-1,2
 137 128 137 128 102 161.5 c 128,-1,3
 67 195 67 195 46.5 238.5 c 128,-1,4
 26 282 26 282 26 328 c 0,5,6
 26 378 26 378 54 422.5 c 128,-1,7
 82 467 82 467 132 494.5 c 128,-1,8
 182 522 182 522 247 522 c 0,9,10
 295 522 295 522 339 502 c 128,-1,11
 383 482 383 482 417.5 448.5 c 128,-1,12
 452 415 452 415 472.5 372 c 128,-1,13
 493 329 493 329 493 282 c 0,14,15
 493 232 493 232 465 187.5 c 128,-1,16
 437 143 437 143 387.5 115.5 c 128,-1,17
 338 88 338 88 274 88 c 0,0,1
220 205 m 0,18,19
 258 205 258 205 292.5 224.5 c 128,-1,20
 327 244 327 244 348.5 274.5 c 128,-1,21
 370 305 370 305 370 339 c 0,22,23
 370 367 370 367 351.5 386 c 128,-1,24
 333 405 333 405 301 405 c 0,25,26
 263 405 263 405 228 386 c 128,-1,27
 193 367 193 367 171 336.5 c 128,-1,28
 149 306 149 306 149 273 c 0,29,30
 149 243 149 243 168.5 224 c 128,-1,31
 188 205 188 205 220 205 c 0,18,19
EndSplineSet
EndChar

StartChar: uni0967
Encoding: 2407 2407 115
Width: 466
GlyphClass: 2
Flags: W
AnchorPoint: "Anchor-6" 232 -70 basechar 0
AnchorPoint: "Anchor-0" 312 627 basechar 0
LayerCount: 2
Fore
SplineSet
348 -78 m 1,0,-1
 202 16 l 1,1,2
 213 28 213 28 219 40 c 128,-1,3
 225 52 225 52 225 68 c 0,4,5
 225 92 225 92 209 116 c 128,-1,6
 193 140 193 140 155 170.5 c 128,-1,7
 117 201 117 201 52 247 c 1,8,9
 81 268 81 268 107.5 286.5 c 128,-1,10
 134 305 134 305 157 322 c 1,11,12
 108 359 108 359 74 403 c 128,-1,13
 40 447 40 447 40 496 c 0,14,15
 40 561 40 561 84.5 598 c 128,-1,16
 129 635 129 635 194 635 c 0,17,18
 238 635 238 635 278.5 617.5 c 128,-1,19
 319 600 319 600 350 571 c 0,20,21
 384 540 384 540 404 500 c 128,-1,22
 424 460 424 460 424 416 c 0,23,24
 424 376 424 376 402 340.5 c 128,-1,25
 380 305 380 305 338 268 c 128,-1,26
 296 231 296 231 236 184 c 1,27,28
 296 150 296 150 329.5 124.5 c 128,-1,29
 363 99 363 99 376.5 75 c 128,-1,30
 390 51 390 51 390 21 c 0,31,32
 390 -7 390 -7 376.5 -34 c 128,-1,33
 363 -61 363 -61 348 -78 c 1,0,-1
170 456 m 0,34,35
 170 405 170 405 224 375 c 1,36,37
 259 405 259 405 279 432 c 128,-1,38
 299 459 299 459 299 485 c 0,39,40
 299 508 299 508 285.5 522.5 c 128,-1,41
 272 537 272 537 248 537 c 0,42,43
 216 537 216 537 193 514 c 128,-1,44
 170 491 170 491 170 456 c 0,34,35
EndSplineSet
EndChar

StartChar: uni0968
Encoding: 2408 2408 116
Width: 500
GlyphClass: 2
Flags: W
AnchorPoint: "Anchor-6" 246 -70 basechar 0
AnchorPoint: "Anchor-0" 326 627 basechar 0
LayerCount: 2
Fore
SplineSet
268 -63 m 1,0,-1
 187 165 l 1,1,2
 181 165 181 165 174 165 c 0,3,4
 137 165 137 165 106 179.5 c 128,-1,5
 75 194 75 194 56.5 219 c 128,-1,6
 38 244 38 244 38 274 c 0,7,8
 38 308 38 308 59.5 329.5 c 128,-1,9
 81 351 81 351 118 351 c 0,10,11
 143 351 143 351 162.5 341 c 128,-1,12
 182 331 182 331 199 313 c 1,13,14
 257 334 257 334 297 367 c 128,-1,15
 337 400 337 400 337 442 c 0,16,17
 337 479 337 479 314 500.5 c 128,-1,18
 291 522 291 522 257 522 c 0,19,20
 228 522 228 522 194.5 505 c 128,-1,21
 161 488 161 488 134 462 c 1,22,-1
 49 572 l 1,23,24
 82 599 82 599 123 617 c 128,-1,25
 164 635 164 635 214 635 c 0,26,27
 268 635 268 635 312.5 610.5 c 128,-1,28
 357 586 357 586 387 552 c 0,29,30
 416 519 416 519 435 473 c 128,-1,31
 454 427 454 427 454 386 c 0,32,33
 454 318 454 318 407.5 264.5 c 128,-1,34
 361 211 361 211 289 185 c 1,35,36
 315 145 315 145 344 96.5 c 128,-1,37
 373 48 373 48 408 -14 c 1,38,-1
 268 -63 l 1,0,-1
EndSplineSet
EndChar

StartChar: uni0969
Encoding: 2409 2409 117
Width: 489
GlyphClass: 2
Flags: W
AnchorPoint: "Anchor-6" 243 -90 basechar 0
AnchorPoint: "Anchor-0" 323 627 basechar 0
LayerCount: 2
Fore
SplineSet
234 -118 m 1,0,1
 224 -83 224 -83 210 -37 c 128,-1,2
 196 9 196 9 185 45 c 1,3,4
 113 55 113 55 75.5 88.5 c 128,-1,5
 38 122 38 122 38 160 c 0,6,7
 38 190 38 190 59 209.5 c 128,-1,8
 80 229 80 229 111 229 c 0,9,10
 145 229 145 229 171 210 c 128,-1,11
 197 191 197 191 220 157 c 1,12,13
 268 162 268 162 298.5 186.5 c 128,-1,14
 329 211 329 211 329 249 c 0,15,16
 329 274 329 274 318 295 c 1,17,18
 270 273 270 273 202 262 c 1,19,-1
 112 376 l 1,20,21
 206 393 206 393 263.5 424 c 128,-1,22
 321 455 321 455 321 483 c 0,23,24
 321 495 321 495 310 503 c 128,-1,25
 299 511 299 511 279 511 c 0,26,27
 247 511 247 511 211.5 497.5 c 128,-1,28
 176 484 176 484 142 464 c 1,29,-1
 55 578 l 1,30,31
 90 601 90 601 133 617.5 c 128,-1,32
 176 634 176 634 231 634 c 0,33,34
 272 634 272 634 310 615.5 c 128,-1,35
 348 597 348 597 375 568 c 0,36,37
 398 543 398 543 411.5 511.5 c 128,-1,38
 425 480 425 480 425 445 c 0,39,40
 425 411 425 411 412 381 c 128,-1,41
 399 351 399 351 370 326 c 1,42,43
 372 324 372 324 374 322 c 0,44,45
 405 295 405 295 427 263.5 c 128,-1,46
 449 232 449 232 449 196 c 0,47,48
 449 153 449 153 427 122.5 c 128,-1,49
 405 92 405 92 368 73 c 128,-1,50
 331 54 331 54 288 46 c 1,51,52
 303 22 303 22 318.5 -4 c 128,-1,53
 334 -30 334 -30 359 -73 c 1,54,-1
 234 -118 l 1,0,1
EndSplineSet
EndChar

StartChar: uni096A
Encoding: 2410 2410 118
Width: 582
GlyphClass: 2
Flags: W
AnchorPoint: "Anchor-6" 291 0 basechar 0
AnchorPoint: "Anchor-0" 371 627 basechar 0
LayerCount: 2
Fore
SplineSet
348 -10 m 0,0,1
 308 -10 308 -10 265.5 2.5 c 128,-1,2
 223 15 223 15 185 37 c 0,3,4
 139 65 139 65 105.5 108 c 128,-1,5
 72 151 72 151 72 203 c 0,6,7
 72 246 72 246 97 280.5 c 128,-1,8
 122 315 122 315 160 343 c 1,9,10
 107 374 107 374 68.5 413 c 128,-1,11
 30 452 30 452 30 507 c 0,12,13
 30 541 30 541 49 568.5 c 128,-1,14
 68 596 68 596 98.5 617.5 c 128,-1,15
 129 639 129 639 162 653 c 1,16,-1
 245 563 l 1,17,18
 202 547 202 547 177.5 526 c 128,-1,19
 153 505 153 505 153 475 c 0,20,21
 153 452 153 452 174 430.5 c 128,-1,22
 195 409 195 409 228 388 c 1,23,24
 276 416 276 416 322 441.5 c 128,-1,25
 368 467 368 467 398 491.5 c 128,-1,26
 428 516 428 516 428 544 c 0,27,28
 428 558 428 558 422.5 566 c 128,-1,29
 417 574 417 574 406 582 c 1,30,-1
 459 622 l 1,31,32
 494 602 494 602 523 571.5 c 128,-1,33
 552 541 552 541 552 491 c 0,34,35
 552 449 552 449 524.5 416.5 c 128,-1,36
 497 384 497 384 454.5 357.5 c 128,-1,37
 412 331 412 331 366 306 c 1,38,39
 404 282 404 282 437 254 c 128,-1,40
 470 226 470 226 490 192.5 c 128,-1,41
 510 159 510 159 510 119 c 0,42,43
 510 64 510 64 466 27 c 128,-1,44
 422 -10 422 -10 348 -10 c 0,0,1
198 158 m 256,45,46
 198 125 198 125 225.5 105 c 128,-1,47
 253 85 253 85 290 85 c 0,48,49
 331 85 331 85 359 108.5 c 128,-1,50
 387 132 387 132 387 167 c 0,51,52
 387 198 387 198 361.5 222.5 c 128,-1,53
 336 247 336 247 298 269 c 1,54,55
 256 244 256 244 227 217.5 c 128,-1,56
 198 191 198 191 198 158 c 256,45,46
EndSplineSet
EndChar

StartChar: uni096B
Encoding: 2411 2411 119
Width: 552
GlyphClass: 2
Flags: W
AnchorPoint: "Anchor-6" 324 0 basechar 0
AnchorPoint: "Anchor-0" 404 627 basechar 0
LayerCount: 2
Fore
SplineSet
313 163 m 0,0,1
 258 163 258 163 213 186 c 128,-1,2
 168 209 168 209 131 245 c 0,3,4
 92 284 92 284 67.5 327.5 c 128,-1,5
 43 371 43 371 43 421 c 0,6,7
 43 487 43 487 71 542.5 c 128,-1,8
 99 598 99 598 143 647 c 1,9,-1
 297 561 l 1,10,11
 244 509 244 509 208.5 459.5 c 128,-1,12
 173 410 173 410 173 363 c 0,13,14
 173 322 173 322 200.5 303 c 128,-1,15
 228 284 228 284 263 284 c 0,16,17
 283 284 283 284 299 288.5 c 128,-1,18
 315 293 315 293 328 300 c 1,19,20
 322 313 322 313 320 324 c 128,-1,21
 318 335 318 335 318 348 c 0,22,23
 318 382 318 382 340 407 c 128,-1,24
 362 432 362 432 402 432 c 0,25,26
 446 432 446 432 472.5 397 c 128,-1,27
 499 362 499 362 499 314 c 0,28,29
 499 263 499 263 463 222 c 1,30,31
 490 179 490 179 526 129.5 c 128,-1,32
 562 80 562 80 605 26 c 1,33,-1
 481 -46 l 1,34,35
 453 15 453 15 428.5 69.5 c 128,-1,36
 404 124 404 124 385 174 c 1,37,38
 352 163 352 163 313 163 c 0,0,1
EndSplineSet
Substitution2: "'locl' Localized Forms lookup 746 subtable" uni096B.NEP
EndChar

StartChar: uni096C
Encoding: 2412 2412 120
Width: 548
GlyphClass: 2
Flags: W
AnchorPoint: "Anchor-6" 313 -90 basechar 0
AnchorPoint: "Anchor-0" 373 627 basechar 0
LayerCount: 2
Fore
SplineSet
450 -120 m 1,0,1
 440 -101 440 -101 427.5 -71.5 c 128,-1,2
 415 -42 415 -42 402 -10 c 128,-1,3
 389 22 389 22 381 48 c 1,4,5
 356 43 356 43 330 43 c 0,6,7
 287 43 287 43 242 61.5 c 128,-1,8
 197 80 197 80 159 110 c 0,9,10
 117 143 117 143 89.5 186 c 128,-1,11
 62 229 62 229 62 269 c 0,12,13
 62 303 62 303 76.5 330 c 128,-1,14
 91 357 91 357 117 376 c 1,15,16
 88 401 88 401 69.5 430.5 c 128,-1,17
 51 460 51 460 51 495 c 0,18,19
 51 557 51 557 104 595 c 128,-1,20
 157 633 157 633 245 633 c 0,21,22
 272 633 272 633 303.5 629.5 c 128,-1,23
 335 626 335 626 369 620 c 1,24,-1
 413 496 l 1,25,26
 388 503 388 503 358.5 506.5 c 128,-1,27
 329 510 329 510 300 510 c 0,28,29
 241 510 241 510 206.5 493.5 c 128,-1,30
 172 477 172 477 172 442 c 0,31,32
 172 425 172 425 180 410 c 1,33,34
 217 423 217 423 260.5 429 c 128,-1,35
 304 435 304 435 349 434 c 1,36,-1
 393 310 l 1,37,38
 333 308 333 308 285.5 296 c 128,-1,39
 238 284 238 284 210.5 262 c 128,-1,40
 183 240 183 240 183 209 c 0,41,42
 183 182 183 182 204.5 164.5 c 128,-1,43
 226 147 226 147 260 147 c 0,44,45
 286 147 286 147 307 153.5 c 128,-1,46
 328 160 328 160 344 171 c 1,47,48
 341 182 341 182 341 196 c 0,49,50
 341 228 341 228 363.5 251 c 128,-1,51
 386 274 386 274 421 274 c 0,52,53
 449 274 449 274 472.5 258 c 128,-1,54
 496 242 496 242 510.5 217 c 128,-1,55
 525 192 525 192 525 165 c 0,56,57
 525 134 525 134 505 111.5 c 128,-1,58
 485 89 485 89 459 75 c 1,59,60
 482 39 482 39 513.5 4.5 c 128,-1,61
 545 -30 545 -30 575 -54 c 1,62,-1
 450 -120 l 1,0,1
EndSplineSet
EndChar

StartChar: uni096D
Encoding: 2413 2413 121
Width: 639
GlyphClass: 2
Flags: W
AnchorPoint: "Anchor-6" 316 0 basechar 0
AnchorPoint: "Anchor-0" 396 627 basechar 0
LayerCount: 2
Fore
SplineSet
369 13 m 0,0,1
 250 13 250 13 176 83 c 128,-1,2
 102 153 102 153 67.5 289 c 128,-1,3
 33 425 33 425 30 623 c 1,4,-1
 118 636 l 1,5,6
 120 529 120 529 135.5 438.5 c 128,-1,7
 151 348 151 348 179 281 c 128,-1,8
 207 214 207 214 247 177 c 128,-1,9
 287 140 287 140 338 140 c 0,10,11
 380 140 380 140 408 167 c 128,-1,12
 436 194 436 194 449 245 c 1,13,14
 428 247 428 247 409 251 c 0,15,16
 350 264 350 264 304 293.5 c 128,-1,17
 258 323 258 323 232.5 364 c 128,-1,18
 207 405 207 405 207 453 c 0,19,20
 207 508 207 508 247 543.5 c 128,-1,21
 287 579 287 579 348 579 c 0,22,23
 408 579 408 579 464 543 c 0,24,25
 505 517 505 517 536 474.5 c 128,-1,26
 567 432 567 432 585 379.5 c 128,-1,27
 603 327 603 327 603 269 c 0,28,29
 603 193 603 193 573.5 135 c 128,-1,30
 544 77 544 77 491.5 45 c 128,-1,31
 439 13 439 13 369 13 c 0,0,1
359 437 m 0,32,33
 359 390 359 390 386.5 355.5 c 128,-1,34
 414 321 414 321 457 306 c 1,35,36
 458 318 458 318 458 332 c 0,37,38
 458 488 458 488 398 488 c 0,39,40
 381 488 381 488 370 474 c 128,-1,41
 359 460 359 460 359 437 c 0,32,33
EndSplineSet
EndChar

StartChar: uni096E
Encoding: 2414 2414 122
Width: 550
GlyphClass: 2
Flags: W
AnchorPoint: "Anchor-6" 281 0 basechar 0
AnchorPoint: "Anchor-0" 351 627 basechar 0
LayerCount: 2
Fore
SplineSet
294 13 m 0,0,1
 243 13 243 13 198.5 34 c 128,-1,2
 154 55 154 55 116 89 c 0,3,4
 78 122 78 122 52 161.5 c 128,-1,5
 26 201 26 201 26 246 c 0,6,7
 26 285 26 285 40.5 320.5 c 128,-1,8
 55 356 55 356 91.5 398.5 c 128,-1,9
 128 441 128 441 193.5 499 c 128,-1,10
 259 557 259 557 361 642 c 1,11,-1
 469 526 l 1,12,13
 374 445 374 445 313 391.5 c 128,-1,14
 252 338 252 338 218 303 c 128,-1,15
 184 268 184 268 170.5 243.5 c 128,-1,16
 157 219 157 219 157 195 c 0,17,18
 157 166 157 166 179 146 c 128,-1,19
 201 126 201 126 232 126 c 0,20,21
 261 126 261 126 288 137.5 c 128,-1,22
 315 149 315 149 349 177 c 128,-1,23
 383 205 383 205 432 253 c 1,24,-1
 536 147 l 1,25,26
 493 98 493 98 454.5 68.5 c 128,-1,27
 416 39 416 39 377.5 26 c 128,-1,28
 339 13 339 13 294 13 c 0,0,1
EndSplineSet
Substitution2: "'locl' Localized Forms lookup 746 subtable" uni096E.NEP
EndChar

StartChar: uni096F
Encoding: 2415 2415 123
Width: 517
GlyphClass: 2
Flags: W
AnchorPoint: "Anchor-6" 248 0 basechar 0
AnchorPoint: "Anchor-0" 328 627 basechar 0
LayerCount: 2
Fore
SplineSet
373 -55 m 1,0,-1
 242 34 l 1,1,2
 262 52 262 52 276 70 c 128,-1,3
 290 88 290 88 290 111 c 0,4,5
 290 135 290 135 277 156 c 128,-1,6
 264 177 264 177 234 206.5 c 128,-1,7
 204 236 204 236 151 283 c 0,8,9
 109 320 109 320 76.5 363 c 128,-1,10
 44 406 44 406 44 461 c 0,11,12
 44 509 44 509 68.5 547 c 128,-1,13
 93 585 93 585 136 606.5 c 128,-1,14
 179 628 179 628 233 628 c 0,15,16
 274 628 274 628 312 611.5 c 128,-1,17
 350 595 350 595 381 566 c 0,18,19
 413 537 413 537 433 497.5 c 128,-1,20
 453 458 453 458 453 417 c 0,21,22
 453 369 453 369 410 332 c 128,-1,23
 367 295 367 295 288 278 c 1,24,25
 293 274 293 274 298 269.5 c 128,-1,26
 303 265 303 265 308 261 c 0,27,28
 364 215 364 215 404 171 c 128,-1,29
 444 127 444 127 444 76 c 0,30,31
 444 33 444 33 423 3.5 c 128,-1,32
 402 -26 402 -26 373 -55 c 1,0,-1
184 436 m 0,33,34
 184 407 184 407 193 384 c 1,35,36
 332 401 332 401 332 475 c 0,37,38
 332 498 332 498 318 513 c 128,-1,39
 304 528 304 528 277 528 c 0,40,41
 237 528 237 528 210.5 502.5 c 128,-1,42
 184 477 184 477 184 436 c 0,33,34
EndSplineSet
Substitution2: "'locl' Localized Forms lookup 746 subtable" uni096F.NEP
EndChar

StartChar: uni096B.NEP
Encoding: 65543 -1 124
Width: 555
GlyphClass: 2
Flags: W
AnchorPoint: "Anchor-6" 282 -100 basechar 0
AnchorPoint: "Anchor-0" 282 627 basechar 0
LayerCount: 2
Fore
SplineSet
253 -115 m 1,0,-1
 211 41 l 1,1,2
 162 45 162 45 123.5 64 c 128,-1,3
 85 83 85 83 62 111.5 c 128,-1,4
 39 140 39 140 39 176 c 0,5,6
 39 207 39 207 61 228.5 c 128,-1,7
 83 250 83 250 118 250 c 0,8,9
 159 250 159 250 188.5 224.5 c 128,-1,10
 218 199 218 199 253 152 c 1,11,12
 332 167 332 167 343 259 c 2,13,-1
 344 266 l 1,14,15
 323 257 323 257 305 257 c 0,16,17
 261 257 261 257 216.5 278.5 c 128,-1,18
 172 300 172 300 136 334 c 0,19,20
 97 372 97 372 75 411.5 c 128,-1,21
 53 451 53 451 53 499 c 2,22,-1
 53 627 l 1,23,-1
 197 627 l 1,24,-1
 197 411 l 2,25,26
 197 367 197 367 240 367 c 0,27,28
 266 367 266 367 299.5 384.5 c 128,-1,29
 333 402 333 402 363 435 c 1,30,-1
 385 627 l 1,31,-1
 525 627 l 1,32,-1
 486 263 l 2,33,34
 478 183 478 183 439 127 c 128,-1,35
 400 71 400 71 328 50 c 1,36,-1
 412 -63 l 1,37,-1
 253 -115 l 1,0,-1
EndSplineSet
EndChar

StartChar: uni096E.NEP
Encoding: 65544 -1 125
Width: 628
GlyphClass: 2
Flags: W
AnchorPoint: "Anchor-6" 304 0 basechar 0
AnchorPoint: "Anchor-0" 304 627 basechar 0
LayerCount: 2
Fore
SplineSet
442 -30 m 1,0,-1
 346 90 l 1,1,2
 390 109 390 109 416.5 131.5 c 128,-1,3
 443 154 443 154 443 174 c 0,4,5
 443 197 443 197 417 197 c 0,6,7
 397 197 397 197 366.5 189.5 c 128,-1,8
 336 182 336 182 309 182 c 0,9,10
 238 182 238 182 170 252 c 0,11,12
 139 284 139 284 125 317 c 128,-1,13
 111 350 111 350 111 386 c 0,14,15
 111 427 111 427 128 473 c 1,16,-1
 70 473 l 1,17,-1
 5 582 l 1,18,-1
 5 598 l 1,19,-1
 538 598 l 1,20,-1
 603 489 l 1,21,-1
 603 473 l 1,22,-1
 304 473 l 1,23,24
 234 381 234 381 234 323 c 0,25,26
 234 306 234 306 244.5 295 c 128,-1,27
 255 284 255 284 272 284 c 0,28,29
 292 284 292 284 325 295 c 128,-1,30
 358 306 358 306 391 306 c 0,31,32
 423 306 423 306 452.5 291 c 128,-1,33
 482 276 482 276 512 243 c 0,34,35
 541 212 541 212 553.5 184 c 128,-1,36
 566 156 566 156 566 126 c 0,37,38
 566 84 566 84 536.5 47 c 128,-1,39
 507 10 507 10 442 -30 c 1,0,-1
EndSplineSet
EndChar

StartChar: uni096F.NEP
Encoding: 65545 -1 126
Width: 533
GlyphClass: 2
Flags: W
AnchorPoint: "Anchor-6" 268 0 basechar 0
AnchorPoint: "Anchor-0" 268 627 basechar 0
LayerCount: 2
Fore
SplineSet
370 -30 m 1,0,-1
 273 90 l 1,1,2
 315 109 315 109 340 131.5 c 128,-1,3
 365 154 365 154 365 174 c 0,4,5
 365 182 365 182 359.5 188 c 128,-1,6
 354 194 354 194 342 194 c 0,7,8
 323 194 323 194 290.5 186 c 128,-1,9
 258 178 258 178 231 178 c 0,10,11
 159 178 159 178 90 252 c 0,12,13
 59 284 59 284 45 317 c 128,-1,14
 31 350 31 350 31 385 c 0,15,16
 31 429 31 429 52 478 c 128,-1,17
 73 527 73 527 111 573 c 1,18,19
 169 540 169 540 223.5 521.5 c 128,-1,20
 278 503 278 503 315 503 c 0,21,22
 402 503 402 503 402 565 c 0,23,24
 402 586 402 586 392 608 c 1,25,-1
 448 627 l 1,26,27
 465 614 465 614 485.5 581.5 c 128,-1,28
 506 549 506 549 506 502 c 0,29,30
 506 449 506 449 470.5 415.5 c 128,-1,31
 435 382 435 382 375 382 c 0,32,33
 340 382 340 382 298 396.5 c 128,-1,34
 256 411 256 411 213 437 c 1,35,36
 160 369 160 369 160 320 c 0,37,38
 160 307 160 307 169 297.5 c 128,-1,39
 178 288 178 288 194 288 c 0,40,41
 208 288 208 288 229 293.5 c 128,-1,42
 250 299 250 299 273.5 304.5 c 128,-1,43
 297 310 297 310 319 310 c 0,44,45
 351 310 351 310 380 294 c 128,-1,46
 409 278 409 278 440 243 c 0,47,48
 467 212 467 212 480.5 184 c 128,-1,49
 494 156 494 156 494 126 c 0,50,51
 494 84 494 84 464.5 47 c 128,-1,52
 435 10 435 10 370 -30 c 1,0,-1
EndSplineSet
EndChar

StartChar: uni0950
Encoding: 2384 2384 127
Width: 971
Flags: W
LayerCount: 2
Fore
SplineSet
575 741 m 256,0,1
 517 741 517 741 517 801 c 0,2,3
 517 862 517 862 575 862 c 256,4,5
 633 862 633 862 633 801 c 0,6,7
 633 741 633 741 575 741 c 256,0,1
605 596 m 0,8,9
 536 596 536 596 488.5 622.5 c 128,-1,10
 441 649 441 649 410.5 693 c 128,-1,11
 380 737 380 737 362 789 c 1,12,-1
 444 819 l 1,13,14
 462 764 462 764 493.5 735 c 128,-1,15
 525 706 525 706 576 706 c 0,16,17
 630 706 630 706 661 738 c 128,-1,18
 692 770 692 770 704 831 c 1,19,-1
 846 792 l 1,20,21
 833 737 833 737 803 692.5 c 128,-1,22
 773 648 773 648 724.5 622 c 128,-1,23
 676 596 676 596 605 596 c 0,8,9
358 -1 m 0,24,25
 256 -1 256 -1 182 70 c 128,-1,26
 108 141 108 141 46 300 c 1,27,-1
 118 330 l 1,28,29
 160 236 160 236 206.5 193 c 128,-1,30
 253 150 253 150 311 150 c 0,31,32
 352 150 352 150 377.5 171.5 c 128,-1,33
 403 193 403 193 403 228 c 0,34,35
 403 253 403 253 390 275 c 1,36,37
 357 258 357 258 310 240 c 1,38,-1
 234 382 l 1,39,40
 322 408 322 408 363.5 429 c 128,-1,41
 405 450 405 450 405 470 c 0,42,43
 405 494 405 494 371 494 c 0,44,45
 349 494 349 494 315 482.5 c 128,-1,46
 281 471 281 471 240 451 c 1,47,-1
 163 600 l 1,48,49
 198 617 198 617 235 625.5 c 128,-1,50
 272 634 272 634 308 634 c 0,51,52
 354 634 354 634 394 612.5 c 128,-1,53
 434 591 434 591 462 556 c 0,54,55
 483 529 483 529 495 496 c 128,-1,56
 507 463 507 463 507 427 c 0,57,58
 507 386 507 386 487 354 c 1,59,60
 513 365 513 365 530.5 388 c 128,-1,61
 548 411 548 411 563.5 438.5 c 128,-1,62
 579 466 579 466 596.5 491 c 128,-1,63
 614 516 614 516 640 532.5 c 128,-1,64
 666 549 666 549 706 549 c 0,65,66
 752 549 752 549 793.5 522.5 c 128,-1,67
 835 496 835 496 866 452 c 0,68,69
 893 414 893 414 909 367.5 c 128,-1,70
 925 321 925 321 925 271 c 0,71,72
 925 183 925 183 883 130 c 128,-1,73
 841 77 841 77 772 77 c 0,74,75
 712 77 712 77 664 112 c 128,-1,76
 616 147 616 147 578 204 c 1,77,-1
 636 253 l 1,78,79
 656 234 656 234 674 224.5 c 128,-1,80
 692 215 692 215 714 215 c 0,81,82
 757 215 757 215 781.5 251 c 128,-1,83
 806 287 806 287 806 336 c 0,84,85
 806 368 806 368 792 390.5 c 128,-1,86
 778 413 778 413 754 413 c 0,87,88
 731 413 731 413 715.5 397 c 128,-1,89
 700 381 700 381 686 357 c 128,-1,90
 672 333 672 333 654.5 309 c 128,-1,91
 637 285 637 285 610 269 c 128,-1,92
 583 253 583 253 542 253 c 0,93,94
 516 253 516 253 490 261 c 1,95,96
 497 251 497 251 504 240 c 0,97,98
 532 195 532 195 532 142 c 0,99,100
 532 101 532 101 509.5 68.5 c 128,-1,101
 487 36 487 36 448 17.5 c 128,-1,102
 409 -1 409 -1 358 -1 c 0,24,25
EndSplineSet
EndChar

StartChar: uni0970
Encoding: 2416 2416 128
Width: 522
Flags: W
LayerCount: 2
Fore
SplineSet
248 270 m 0,0,1
 183 270 183 270 141.5 309.5 c 128,-1,2
 100 349 100 349 100 412 c 0,3,4
 100 444 100 444 114.5 473 c 128,-1,5
 129 502 129 502 153 524 c 0,6,7
 176 545 176 545 206 557 c 128,-1,8
 236 569 236 569 270 569 c 0,9,10
 338 569 338 569 380 530 c 128,-1,11
 422 491 422 491 422 428 c 0,12,13
 422 400 422 400 410.5 374.5 c 128,-1,14
 399 349 399 349 379 328 c 0,15,16
 354 302 354 302 320 286 c 128,-1,17
 286 270 286 270 248 270 c 0,0,1
265 345 m 0,18,19
 294 345 294 345 308 363 c 128,-1,20
 322 381 322 381 322 410 c 0,21,22
 322 448 322 448 304.5 472 c 128,-1,23
 287 496 287 496 257 496 c 0,24,25
 229 496 229 496 214.5 477.5 c 128,-1,26
 200 459 200 459 200 430 c 0,27,28
 200 393 200 393 217.5 369 c 128,-1,29
 235 345 235 345 265 345 c 0,18,19
EndSplineSet
EndChar

StartChar: uni0964
Encoding: 2404 2404 129
Width: 400
Flags: W
LayerCount: 2
Fore
SplineSet
306 -10 m 1,0,-1
 173 74 l 1,1,-1
 173 627 l 1,2,-1
 190 627 l 1,3,-1
 323 543 l 1,4,-1
 323 -10 l 1,5,-1
 306 -10 l 1,0,-1
EndSplineSet
EndChar

StartChar: uni1CD0
Encoding: 7376 7376 131
Width: 0
GlyphClass: 4
Flags: W
LayerCount: 2
Fore
SplineSet
-289 969 m 1,0,-1
 -411 1059 l 1,1,-1
 -199 1290 l 1,2,-1
 36 1025 l 1,3,-1
 -18 972 l 1,4,-1
 -154 1126 l 1,5,-1
 -289 969 l 1,0,-1
EndSplineSet
EndChar

StartChar: uni1CD1
Encoding: 7377 7377 132
Width: 0
GlyphClass: 4
Flags: W
LayerCount: 2
Fore
SplineSet
-129 902 m 1,0,-1
 -217 939 l 1,1,-1
 -217 1073 l 1,2,-1
 -300 976 l 1,3,-1
 -405 1054 l 1,4,-1
 -194 1285 l 1,5,-1
 30 1033 l 1,6,-1
 -25 981 l 1,7,-1
 -163 1136 l 1,8,-1
 -213 1078 l 1,9,-1
 -197 1078 l 1,10,-1
 -108 1040 l 1,11,-1
 -108 902 l 1,12,-1
 -129 902 l 1,0,-1
EndSplineSet
EndChar

StartChar: uni1CD2
Encoding: 7378 7378 133
Width: 0
GlyphClass: 4
Flags: W
LayerCount: 2
Fore
SplineSet
-345 1056 m 1,0,-1
 -411 1165 l 1,1,-1
 -411 1182 l 1,2,-1
 -28 1182 l 1,3,-1
 38 1073 l 1,4,-1
 38 1056 l 1,5,-1
 -345 1056 l 1,0,-1
EndSplineSet
EndChar

StartChar: uni1CD3
Encoding: 7379 7379 134
Width: 416
Flags: W
LayerCount: 2
Fore
SplineSet
217 659 m 1,0,-1
 248 896 l 1,1,-1
 352 896 l 1,2,-1
 321 659 l 1,3,-1
 217 659 l 1,0,-1
64 659 m 1,4,-1
 95 896 l 1,5,-1
 199 896 l 1,6,-1
 168 659 l 1,7,-1
 64 659 l 1,4,-1
EndSplineSet
EndChar

StartChar: uni1CD4
Encoding: 7380 7380 135
Width: 0
GlyphClass: 4
Flags: W
LayerCount: 2
Fore
SplineSet
-134 311 m 1,0,-1
 -200 420 l 1,1,-1
 -200 436 l 1,2,-1
 134 436 l 1,3,-1
 200 327 l 1,4,-1
 200 311 l 1,5,-1
 -134 311 l 1,0,-1
EndSplineSet
EndChar

StartChar: uni1CD5
Encoding: 7381 7381 136
Width: 0
GlyphClass: 4
Flags: W
AnchorPoint: "Anchor-14" -264 0 mark 0
AnchorPoint: "Anchor-9" -264 0 mark 0
AnchorPoint: "Anchor-6" -264 0 mark 0
LayerCount: 2
Fore
SplineSet
-125 -293 m 0,0,1
 -154 -293 -154 -293 -180 -283.5 c 128,-1,2
 -206 -274 -206 -274 -228 -257 c 1,3,4
 -262 -293 -262 -293 -326 -293 c 0,5,6
 -365 -293 -365 -293 -399.5 -277 c 128,-1,7
 -434 -261 -434 -261 -460.5 -235 c 128,-1,8
 -487 -209 -487 -209 -502.5 -179 c 128,-1,9
 -518 -149 -518 -149 -518 -121 c 0,10,11
 -518 -98 -518 -98 -506.5 -75 c 128,-1,12
 -495 -52 -495 -52 -476 -32 c 1,13,-1
 -369 -101 l 1,14,15
 -385 -121 -385 -121 -394.5 -138 c 128,-1,16
 -404 -155 -404 -155 -404 -170 c 256,17,18
 -404 -185 -404 -185 -394 -194 c 128,-1,19
 -384 -203 -384 -203 -368 -203 c 0,20,21
 -337 -203 -337 -203 -324.5 -184 c 128,-1,22
 -312 -165 -312 -165 -312 -137 c 2,23,-1
 -312 -59 l 1,24,-1
 -198 -102 l 1,25,-1
 -198 -173 l 2,26,27
 -198 -182 -198 -182 -199 -190 c 1,28,29
 -184 -197 -184 -197 -167 -197 c 0,30,31
 -143 -197 -143 -197 -127.5 -184.5 c 128,-1,32
 -112 -172 -112 -172 -112 -149 c 0,33,34
 -112 -128 -112 -128 -121 -111.5 c 128,-1,35
 -130 -95 -130 -95 -143 -79 c 1,36,-1
 -85 -35 l 1,37,38
 -44 -74 -44 -74 -27 -109 c 128,-1,39
 -10 -144 -10 -144 -10 -179 c 0,40,41
 -10 -231 -10 -231 -42.5 -262 c 128,-1,42
 -75 -293 -75 -293 -125 -293 c 0,0,1
EndSplineSet
Substitution2: "Single Substitution lookup 839 subtable" uni1CD5.alt3
Substitution2: "Single Substitution lookup 838 subtable" uni1CD5.alt3
Substitution2: "Single Substitution lookup 836 subtable" uni1CD5.alt2
Substitution2: "Single Substitution lookup 835 subtable" uni1CD5.alt2
Substitution2: "Single Substitution lookup 833 subtable" uni1CD5.alt1
Substitution2: "Single Substitution lookup 832 subtable" uni1CD5.alt1
Substitution2: "Single Substitution lookup 830 subtable" uni1CD5.alt
Substitution2: "Single Substitution lookup 829 subtable" uni1CD5.alt
Substitution2: "Single Substitution lookup 828 subtable" uni1CD5.alt
Substitution2: "Single Substitution lookup 827 subtable" uni1CD5.alt
EndChar

StartChar: uni1CD6
Encoding: 7382 7382 137
Width: 0
GlyphClass: 4
Flags: W
AnchorPoint: "Anchor-14" -269 0 mark 0
AnchorPoint: "Anchor-9" -269 0 mark 0
AnchorPoint: "Anchor-6" -269 0 mark 0
LayerCount: 2
Fore
SplineSet
-428 -265 m 1,0,-1
 -500 -156 l 1,1,-1
 -500 -17 l 1,2,-1
 -483 -17 l 1,3,-1
 -373 -74 l 1,4,-1
 -373 -146 l 1,5,-1
 -107 -146 l 1,6,-1
 -38 -248 l 1,7,-1
 -38 -265 l 1,8,-1
 -428 -265 l 1,0,-1
EndSplineSet
Substitution2: "Single Substitution lookup 839 subtable" uni1CD6.alt3
Substitution2: "Single Substitution lookup 838 subtable" uni1CD6.alt3
Substitution2: "Single Substitution lookup 836 subtable" uni1CD6.alt2
Substitution2: "Single Substitution lookup 835 subtable" uni1CD6.alt2
Substitution2: "Single Substitution lookup 833 subtable" uni1CD6.alt1
Substitution2: "Single Substitution lookup 832 subtable" uni1CD6.alt1
Substitution2: "Single Substitution lookup 830 subtable" uni1CD6.alt
Substitution2: "Single Substitution lookup 829 subtable" uni1CD6.alt
Substitution2: "Single Substitution lookup 828 subtable" uni1CD6.alt
Substitution2: "Single Substitution lookup 827 subtable" uni1CD6.alt
EndChar

StartChar: uni1CD7
Encoding: 7383 7383 138
Width: 0
GlyphClass: 4
Flags: W
AnchorPoint: "Anchor-14" -276 0 mark 0
AnchorPoint: "Anchor-9" -276 0 mark 0
AnchorPoint: "Anchor-6" -276 0 mark 0
LayerCount: 2
Fore
SplineSet
-111 -186 m 1,0,-1
 -42 -288 l 1,1,-1
 -42 -305 l 1,2,-1
 -335 -305 l 2,3,4
 -383 -305 -383 -305 -422.5 -279.5 c 128,-1,5
 -462 -254 -462 -254 -486 -215 c 128,-1,6
 -510 -176 -510 -176 -510 -138 c 0,7,8
 -510 -82 -510 -82 -463.5 -46.5 c 128,-1,9
 -417 -11 -417 -11 -336 -10 c 1,10,-1
 -297 -130 l 1,11,12
 -345 -132 -345 -132 -377 -143 c 128,-1,13
 -409 -154 -409 -154 -409 -169 c 0,14,15
 -409 -186 -409 -186 -387 -186 c 2,16,-1
 -111 -186 l 1,0,-1
EndSplineSet
Substitution2: "Single Substitution lookup 839 subtable" uni1CD7.alt3
Substitution2: "Single Substitution lookup 838 subtable" uni1CD7.alt3
Substitution2: "Single Substitution lookup 836 subtable" uni1CD7.alt2
Substitution2: "Single Substitution lookup 835 subtable" uni1CD7.alt2
Substitution2: "Single Substitution lookup 833 subtable" uni1CD7.alt1
Substitution2: "Single Substitution lookup 832 subtable" uni1CD7.alt1
Substitution2: "Single Substitution lookup 830 subtable" uni1CD7.alt
Substitution2: "Single Substitution lookup 829 subtable" uni1CD7.alt
Substitution2: "Single Substitution lookup 828 subtable" uni1CD7.alt
Substitution2: "Single Substitution lookup 827 subtable" uni1CD7.alt
EndChar

StartChar: uni1CD8
Encoding: 7384 7384 139
Width: 0
GlyphClass: 4
Flags: W
AnchorPoint: "Anchor-14" -120 0 mark 0
AnchorPoint: "Anchor-9" -120 0 mark 0
AnchorPoint: "Anchor-6" -120 0 mark 0
LayerCount: 2
Fore
SplineSet
-104 -297 m 0,0,1
 -208 -297 -208 -297 -274.5 -240 c 128,-1,2
 -341 -183 -341 -183 -360 -83 c 1,3,-1
 -278 -61 l 1,4,5
 -269 -116 -269 -116 -234.5 -150.5 c 128,-1,6
 -200 -185 -200 -185 -146 -185 c 0,7,8
 -91 -185 -91 -185 -61 -150.5 c 128,-1,9
 -31 -116 -31 -116 -23 -61 c 1,10,-1
 119 -98 l 1,11,12
 103 -190 103 -190 44 -243.5 c 128,-1,13
 -15 -297 -15 -297 -104 -297 c 0,0,1
EndSplineSet
Substitution2: "Single Substitution lookup 839 subtable" uni1CD8.alt3
Substitution2: "Single Substitution lookup 838 subtable" uni1CD8.alt3
Substitution2: "Single Substitution lookup 836 subtable" uni1CD8.alt2
Substitution2: "Single Substitution lookup 835 subtable" uni1CD8.alt2
Substitution2: "Single Substitution lookup 833 subtable" uni1CD8.alt1
Substitution2: "Single Substitution lookup 832 subtable" uni1CD8.alt1
Substitution2: "Single Substitution lookup 830 subtable" uni1CD8.alt
Substitution2: "Single Substitution lookup 829 subtable" uni1CD8.alt
Substitution2: "Single Substitution lookup 828 subtable" uni1CD8.alt
Substitution2: "Single Substitution lookup 827 subtable" uni1CD8.alt
EndChar

StartChar: uni1CD9
Encoding: 7385 7385 140
Width: 0
GlyphClass: 4
Flags: W
AnchorPoint: "Anchor-14" -251 0 mark 0
AnchorPoint: "Anchor-9" -251 0 mark 0
AnchorPoint: "Anchor-6" -251 0 mark 0
LayerCount: 2
Fore
SplineSet
-353 -330 m 1,0,-1
 -475 -245 l 1,1,-1
 -263 -27 l 1,2,-1
 -28 -277 l 1,3,-1
 -83 -326 l 1,4,-1
 -218 -183 l 1,5,-1
 -353 -330 l 1,0,-1
EndSplineSet
Substitution2: "Single Substitution lookup 839 subtable" uni1CD9.alt3
Substitution2: "Single Substitution lookup 838 subtable" uni1CD9.alt3
Substitution2: "Single Substitution lookup 836 subtable" uni1CD9.alt2
Substitution2: "Single Substitution lookup 835 subtable" uni1CD9.alt2
Substitution2: "Single Substitution lookup 833 subtable" uni1CD9.alt1
Substitution2: "Single Substitution lookup 832 subtable" uni1CD9.alt1
Substitution2: "Single Substitution lookup 830 subtable" uni1CD9.alt
Substitution2: "Single Substitution lookup 829 subtable" uni1CD9.alt
Substitution2: "Single Substitution lookup 828 subtable" uni1CD9.alt
Substitution2: "Single Substitution lookup 827 subtable" uni1CD9.alt
EndChar

StartChar: uni1CDA
Encoding: 7386 7386 141
Width: 0
GlyphClass: 4
Flags: W
AnchorPoint: "Anchor-12" -70 627 mark 0
AnchorPoint: "Anchor-3" -70 627 mark 0
AnchorPoint: "Anchor-0" -70 627 mark 0
LayerCount: 2
Fore
SplineSet
-283 670 m 1,0,-1
 -283 877 l 1,1,-1
 -173 877 l 1,2,-1
 -173 670 l 1,3,-1
 -283 670 l 1,0,-1
-127 670 m 1,4,-1
 -127 877 l 1,5,-1
 -17 877 l 1,6,-1
 -17 670 l 1,7,-1
 -127 670 l 1,4,-1
EndSplineSet
Substitution2: "Single Substitution lookup 853 subtable" uni1CDA.iirephc
Substitution2: "Single Substitution lookup 852 subtable" uni1CDA.iireph
Substitution2: "Single Substitution lookup 851 subtable" uni1CDA.iicandra
Substitution2: "Single Substitution lookup 850 subtable" uni1CDA.iireph
Substitution2: "Single Substitution lookup 849 subtable" uni1CDA.ii
Substitution2: "Single Substitution lookup 814 subtable" uni1CDA.iirephc
Substitution2: "Single Substitution lookup 813 subtable" uni1CDA.iicandra
Substitution2: "Single Substitution lookup 812 subtable" uni1CDA.alt
Substitution2: "Single Substitution lookup 811 subtable" uni1CDA.alt2
Substitution2: "Single Substitution lookup 810 subtable" uni1CDA.alt2
Substitution2: "Single Substitution lookup 809 subtable" uni1CDA.alt
Substitution2: "Single Substitution lookup 808 subtable" uni1CDA.alt
Substitution2: "Single Substitution lookup 807 subtable" uni1CDA.alt
Substitution2: "Single Substitution lookup 806 subtable" uni1CDA.alt
Substitution2: "Single Substitution lookup 805 subtable" uni1CDA.iirephc
Substitution2: "Single Substitution lookup 804 subtable" uni1CDA.alt3
Substitution2: "Single Substitution lookup 803 subtable" uni1CDA.alt2
Substitution2: "Single Substitution lookup 802 subtable" uni1CDA.alt1
Substitution2: "Single Substitution lookup 801 subtable" uni1CDA.alt2
Substitution2: "Single Substitution lookup 800 subtable" uni1CDA.alt
Substitution2: "Single Substitution lookup 799 subtable" uni1CDA.alt
Substitution2: "Single Substitution lookup 798 subtable" uni1CDA.alt3
Substitution2: "Single Substitution lookup 797 subtable" uni1CDA.alt3
Substitution2: "Single Substitution lookup 796 subtable" uni1CDA.alt3
Substitution2: "Single Substitution lookup 795 subtable" uni1CDA.iicandra
Substitution2: "Single Substitution lookup 794 subtable" uni1CDA.alt3
Substitution2: "Single Substitution lookup 793 subtable" uni1CDA.alt1
Substitution2: "Single Substitution lookup 792 subtable" uni1CDA.alt1
EndChar

StartChar: uni1CDB
Encoding: 7387 7387 142
Width: 0
GlyphClass: 4
Flags: W
AnchorPoint: "Anchor-12" -50 627 mark 0
AnchorPoint: "Anchor-3" -50 627 mark 0
AnchorPoint: "Anchor-0" -50 627 mark 0
LayerCount: 2
Fore
SplineSet
-339 670 m 1,0,-1
 -339 877 l 1,1,-1
 -233 877 l 1,2,-1
 -233 670 l 1,3,-1
 -339 670 l 1,0,-1
-192 670 m 1,4,-1
 -192 877 l 1,5,-1
 -86 877 l 1,6,-1
 -86 670 l 1,7,-1
 -192 670 l 1,4,-1
-45 670 m 1,8,-1
 -45 877 l 1,9,-1
 61 877 l 1,10,-1
 61 670 l 1,11,-1
 -45 670 l 1,8,-1
EndSplineSet
EndChar

StartChar: uni1CDC
Encoding: 7388 7388 143
Width: 0
GlyphClass: 4
Flags: W
AnchorPoint: "Anchor-14" -140 0 mark 0
AnchorPoint: "Anchor-9" -140 0 mark 0
AnchorPoint: "Anchor-6" -140 0 mark 0
LayerCount: 2
Fore
SplineSet
-76 -293 m 1,0,-1
 -220 -202 l 1,1,-1
 -220 -3 l 1,2,-1
 -204 -3 l 1,3,-1
 -60 -94 l 1,4,-1
 -60 -293 l 1,5,-1
 -76 -293 l 1,0,-1
EndSplineSet
Substitution2: "Single Substitution lookup 839 subtable" uni1CDC.alt3
Substitution2: "Single Substitution lookup 838 subtable" uni1CDC.alt3
Substitution2: "Single Substitution lookup 836 subtable" uni1CDC.alt2
Substitution2: "Single Substitution lookup 835 subtable" uni1CDC.alt2
Substitution2: "Single Substitution lookup 833 subtable" uni1CDC.alt1
Substitution2: "Single Substitution lookup 832 subtable" uni1CDC.alt1
Substitution2: "Single Substitution lookup 830 subtable" uni1CDC.alt
Substitution2: "Single Substitution lookup 829 subtable" uni1CDC.alt
Substitution2: "Single Substitution lookup 828 subtable" uni1CDC.alt
Substitution2: "Single Substitution lookup 827 subtable" uni1CDC.alt
EndChar

StartChar: uni1CDD
Encoding: 7389 7389 144
Width: 0
GlyphClass: 4
Flags: W
AnchorPoint: "Anchor-14" -140 0 mark 0
AnchorPoint: "Anchor-9" -140 0 mark 0
AnchorPoint: "Anchor-6" -140 0 mark 0
LayerCount: 2
Fore
SplineSet
-140 -268 m 1,0,-1
 -240 -170 l 1,1,-1
 -140 -71 l 1,2,-1
 -41 -170 l 1,3,-1
 -140 -268 l 1,0,-1
EndSplineSet
Substitution2: "Single Substitution lookup 839 subtable" uni1CDD.alt3
Substitution2: "Single Substitution lookup 838 subtable" uni1CDD.alt3
Substitution2: "Single Substitution lookup 836 subtable" uni1CDD.alt2
Substitution2: "Single Substitution lookup 835 subtable" uni1CDD.alt2
Substitution2: "Single Substitution lookup 833 subtable" uni1CDD.alt1
Substitution2: "Single Substitution lookup 832 subtable" uni1CDD.alt1
Substitution2: "Single Substitution lookup 830 subtable" uni1CDD.alt
Substitution2: "Single Substitution lookup 829 subtable" uni1CDD.alt
Substitution2: "Single Substitution lookup 828 subtable" uni1CDD.alt
Substitution2: "Single Substitution lookup 827 subtable" uni1CDD.alt
EndChar

StartChar: uni1CE0
Encoding: 7392 7392 147
Width: 519
Flags: W
LayerCount: 2
Fore
SplineSet
214 656 m 1,0,1
 134 658 134 658 87.5 693 c 128,-1,2
 41 728 41 728 41 783 c 0,3,4
 41 822 41 822 64.5 860.5 c 128,-1,5
 88 899 88 899 128 925 c 128,-1,6
 168 951 168 951 215 951 c 2,7,-1
 509 951 l 1,8,-1
 509 934 l 1,9,-1
 439 831 l 1,10,-1
 163 831 l 2,11,12
 141 831 141 831 141 815 c 0,13,14
 141 800 141 800 173 789 c 128,-1,15
 205 778 205 778 253 775 c 1,16,-1
 214 656 l 1,0,1
EndSplineSet
EndChar

StartChar: uni1CE1
Encoding: 7393 7393 148
Width: 496
Flags: W
LayerCount: 2
Fore
SplineSet
158 -175 m 0,0,1
 100 -175 100 -175 50 -151.5 c 128,-1,2
 0 -128 0 -128 -46 -89 c 1,3,-1
 2 -13 l 1,4,5
 22 -25 22 -25 45.5 -32.5 c 128,-1,6
 69 -40 69 -40 94 -40 c 0,7,8
 144 -40 144 -40 170 -9.5 c 128,-1,9
 196 21 196 21 196 87 c 0,10,11
 196 150 196 150 186 222.5 c 128,-1,12
 176 295 176 295 163 371.5 c 128,-1,13
 150 448 150 448 140 522 c 128,-1,14
 130 596 130 596 130 660 c 0,15,16
 130 765 130 765 181.5 822.5 c 128,-1,17
 233 880 233 880 319 880 c 0,18,19
 401 880 401 880 449.5 827.5 c 128,-1,20
 498 775 498 775 526 677 c 1,21,-1
 454 651 l 1,22,23
 439 683 439 683 420 697 c 128,-1,24
 401 711 401 711 375 711 c 0,25,26
 338 711 338 711 316 684.5 c 128,-1,27
 294 658 294 658 294 610 c 0,28,29
 294 549 294 549 304 477 c 128,-1,30
 314 405 314 405 327.5 330 c 128,-1,31
 341 255 341 255 351 182.5 c 128,-1,32
 361 110 361 110 361 47 c 0,33,34
 361 -57 361 -57 307 -116 c 128,-1,35
 253 -175 253 -175 158 -175 c 0,0,1
EndSplineSet
EndChar

StartChar: uni1CE4
Encoding: 7396 7396 151
Width: 232
Flags: W
LayerCount: 2
Fore
SplineSet
268 216 m 2,0,1
 234 216 234 216 194.5 236.5 c 128,-1,2
 155 257 155 257 120 290 c 128,-1,3
 85 323 85 323 62.5 361 c 128,-1,4
 40 399 40 399 40 433 c 0,5,6
 40 482 40 482 75.5 526.5 c 128,-1,7
 111 571 111 571 170 606 c 1,8,-1
 278 483 l 1,9,10
 232 451 232 451 206 421 c 128,-1,11
 180 391 180 391 180 368 c 0,12,13
 180 342 180 342 217 342 c 2,14,-1
 356 342 l 1,15,-1
 422 233 l 1,16,-1
 422 216 l 1,17,-1
 268 216 l 2,0,1
EndSplineSet
MultipleSubs2: "Multiple Substitution lookup 208 subtable" uni1CE4 uni0903
EndChar

StartChar: uni1CE5
Encoding: 7397 7397 152
Width: 224
Flags: W
LayerCount: 2
Fore
SplineSet
219 -49 m 1,0,1
 136 10 136 10 88 76 c 128,-1,2
 40 142 40 142 40 209 c 0,3,4
 40 268 40 268 85 304.5 c 128,-1,5
 130 341 130 341 202 341 c 2,6,-1
 365 341 l 1,7,-1
 430 232 l 1,8,-1
 430 216 l 1,9,-1
 262 216 l 2,10,11
 224 216 224 216 202 197.5 c 128,-1,12
 180 179 180 179 180 147 c 0,13,14
 180 80 180 80 275 14 c 1,15,-1
 219 -49 l 1,0,1
EndSplineSet
MultipleSubs2: "Multiple Substitution lookup 208 subtable" uni1CE5 uni0903
EndChar

StartChar: uni1CE8
Encoding: 7400 7400 155
Width: 280
Flags: W
LayerCount: 2
Fore
SplineSet
237 -203 m 0,0,1
 155 -203 155 -203 89 -151.5 c 128,-1,2
 23 -100 23 -100 -30 -3 c 1,3,-1
 30 35 l 1,4,5
 73 -26 73 -26 109 -50 c 128,-1,6
 145 -74 145 -74 185 -74 c 0,7,8
 211 -74 211 -74 226 -61 c 128,-1,9
 241 -48 241 -48 241 -25 c 0,10,11
 241 -1 241 -1 221 22.5 c 128,-1,12
 201 46 201 46 171 70 c 128,-1,13
 141 94 141 94 111 119.5 c 128,-1,14
 81 145 81 145 61 174 c 128,-1,15
 41 203 41 203 41 237 c 0,16,17
 41 283 41 283 76.5 311 c 128,-1,18
 112 339 112 339 172 339 c 2,19,-1
 398 339 l 1,20,-1
 460 237 l 1,21,-1
 460 221 l 1,22,-1
 242 221 l 2,23,24
 204 221 204 221 204 194 c 0,25,26
 204 176 204 176 223 156 c 128,-1,27
 242 136 242 136 270.5 113 c 128,-1,28
 299 90 299 90 327 62.5 c 128,-1,29
 355 35 355 35 374 2.5 c 128,-1,30
 393 -30 393 -30 393 -70 c 0,31,32
 393 -131 393 -131 349.5 -167 c 128,-1,33
 306 -203 306 -203 237 -203 c 0,0,1
EndSplineSet
MultipleSubs2: "Multiple Substitution lookup 208 subtable" uni1CE8 uni0903
EndChar

StartChar: uni1CE9
Encoding: 7401 7401 156
Width: 896
GlyphClass: 2
Flags: W
AnchorPoint: "Anchor-6" 448 -6 basechar 0
AnchorPoint: "Anchor-1" 530 627 basechar 0
AnchorPoint: "Anchor-0" 530 627 basechar 0
LayerCount: 2
Fore
SplineSet
474 -15 m 0,0,1
 389 -15 389 -15 313.5 19.5 c 128,-1,2
 238 54 238 54 180 111 c 128,-1,3
 122 168 122 168 89 238.5 c 128,-1,4
 56 309 56 309 56 381 c 0,5,6
 56 463 56 463 87.5 519.5 c 128,-1,7
 119 576 119 576 168.5 605.5 c 128,-1,8
 218 635 218 635 273 635 c 0,9,10
 323 635 323 635 361.5 611.5 c 128,-1,11
 400 588 400 588 422 550.5 c 128,-1,12
 444 513 444 513 444 469 c 0,13,14
 444 401 444 401 389.5 362.5 c 128,-1,15
 335 324 335 324 234 311 c 1,16,-1
 193 435 l 1,17,18
 185 408 185 408 180 375 c 128,-1,19
 175 342 175 342 175 303 c 0,20,21
 175 216 175 216 228.5 160 c 128,-1,22
 282 104 282 104 389 104 c 0,23,24
 455 104 455 104 515.5 126.5 c 128,-1,25
 576 149 576 149 623.5 191 c 128,-1,26
 671 233 671 233 698 291 c 128,-1,27
 725 349 725 349 725 419 c 0,28,29
 725 459 725 459 706 488 c 128,-1,30
 687 517 687 517 649 517 c 0,31,32
 626 517 626 517 612.5 505.5 c 128,-1,33
 599 494 599 494 599 476 c 0,34,35
 599 451 599 451 626.5 433.5 c 128,-1,36
 654 416 654 416 703 411 c 1,37,-1
 697 325 l 1,38,39
 595 335 595 335 531.5 382 c 128,-1,40
 468 429 468 429 468 506 c 0,41,42
 468 564 468 564 506 599.5 c 128,-1,43
 544 635 544 635 605 635 c 0,44,45
 664 635 664 635 708.5 606 c 128,-1,46
 753 577 753 577 782.5 530 c 128,-1,47
 812 483 812 483 826.5 427 c 128,-1,48
 841 371 841 371 841 318 c 0,49,50
 841 220 841 220 795.5 145 c 128,-1,51
 750 70 750 70 667.5 27.5 c 128,-1,52
 585 -15 585 -15 474 -15 c 0,0,1
306 545 m 0,53,54
 272 545 272 545 243.5 519.5 c 128,-1,55
 215 494 215 494 197 446 c 1,56,57
 266 452 266 452 303.5 468.5 c 128,-1,58
 341 485 341 485 341 514 c 0,59,60
 341 528 341 528 331.5 536.5 c 128,-1,61
 322 545 322 545 306 545 c 0,53,54
EndSplineSet
EndChar

StartChar: uni1CEA
Encoding: 7402 7402 157
Width: 915
GlyphClass: 2
Flags: W
AnchorPoint: "Anchor-6" 483 -6 basechar 0
AnchorPoint: "Anchor-1" 565 627 basechar 0
AnchorPoint: "Anchor-0" 565 627 basechar 0
LayerCount: 2
Fore
SplineSet
512 -10 m 0,0,1
 425 -10 425 -10 358 10.5 c 128,-1,2
 291 31 291 31 245 65.5 c 128,-1,3
 199 100 199 100 175 141 c 128,-1,4
 151 182 151 182 151 222 c 0,5,6
 151 257 151 257 171 285 c 128,-1,7
 191 313 191 313 221 337 c 128,-1,8
 251 361 251 361 280.5 383 c 128,-1,9
 310 405 310 405 330 429 c 128,-1,10
 350 453 350 453 350 482 c 0,11,12
 350 496 350 496 340 506 c 128,-1,13
 330 516 330 516 310 516 c 0,14,15
 286 516 286 516 265.5 500.5 c 128,-1,16
 245 485 245 485 245 462 c 256,17,18
 245 439 245 439 277 418 c 1,19,-1
 234 359 l 1,20,21
 171 394 171 394 136 436 c 128,-1,22
 101 478 101 478 101 526 c 0,23,24
 101 570 101 570 136 602.5 c 128,-1,25
 171 635 171 635 232 635 c 0,26,27
 283 635 283 635 325 614.5 c 128,-1,28
 367 594 367 594 397.5 560.5 c 128,-1,29
 428 527 428 527 444.5 486 c 128,-1,30
 461 445 461 445 461 404 c 0,31,32
 461 369 461 369 444 341.5 c 128,-1,33
 427 314 427 314 402 291 c 128,-1,34
 377 268 377 268 351.5 248 c 128,-1,35
 326 228 326 228 309 208 c 128,-1,36
 292 188 292 188 292 166 c 0,37,38
 292 140 292 140 326.5 124.5 c 128,-1,39
 361 109 361 109 444 109 c 0,40,41
 499 109 499 109 544 123.5 c 128,-1,42
 589 138 589 138 616 164.5 c 128,-1,43
 643 191 643 191 643 227 c 0,44,45
 643 257 643 257 629 283.5 c 128,-1,46
 615 310 615 310 594.5 336 c 128,-1,47
 574 362 574 362 553.5 388 c 128,-1,48
 533 414 533 414 519 443 c 128,-1,49
 505 472 505 472 505 505 c 0,50,51
 505 562 505 562 550 598.5 c 128,-1,52
 595 635 595 635 668 635 c 0,53,54
 726 635 726 635 770 608 c 128,-1,55
 814 581 814 581 839.5 539.5 c 128,-1,56
 865 498 865 498 865 455 c 0,57,58
 865 402 865 402 825 376.5 c 128,-1,59
 785 351 785 351 723 340 c 1,60,-1
 666 463 l 1,61,62
 707 470 707 470 733 482 c 128,-1,63
 759 494 759 494 759 513 c 0,64,65
 759 535 759 535 729 535 c 0,66,67
 695 535 695 535 667 512 c 128,-1,68
 639 489 639 489 639 447 c 0,69,70
 639 419 639 419 655.5 392.5 c 128,-1,71
 672 366 672 366 696 339.5 c 128,-1,72
 720 313 720 313 743.5 284.5 c 128,-1,73
 767 256 767 256 783.5 224.5 c 128,-1,74
 800 193 800 193 800 157 c 0,75,76
 800 107 800 107 764.5 69.5 c 128,-1,77
 729 32 729 32 664.5 11 c 128,-1,78
 600 -10 600 -10 512 -10 c 0,0,1
EndSplineSet
EndChar

StartChar: uni1CEB
Encoding: 7403 7403 158
Width: 881
GlyphClass: 2
Flags: W
AnchorPoint: "Anchor-6" 475 -6 basechar 0
AnchorPoint: "Anchor-1" 557 627 basechar 0
AnchorPoint: "Anchor-0" 557 627 basechar 0
LayerCount: 2
Fore
SplineSet
502 -10 m 0,0,1
 434 -10 434 -10 373.5 9.5 c 128,-1,2
 313 29 313 29 267 63 c 128,-1,3
 221 97 221 97 194.5 142 c 128,-1,4
 168 187 168 187 168 238 c 0,5,6
 168 270 168 270 184.5 298.5 c 128,-1,7
 201 327 201 327 225.5 352.5 c 128,-1,8
 250 378 250 378 274.5 401 c 128,-1,9
 299 424 299 424 315.5 445.5 c 128,-1,10
 332 467 332 467 332 487 c 0,11,12
 332 515 332 515 301 515 c 0,13,14
 274 515 274 515 253 499.5 c 128,-1,15
 232 484 232 484 232 463 c 0,16,17
 232 443 232 443 264 426 c 1,18,-1
 232 368 l 1,19,20
 173 396 173 396 142 434 c 128,-1,21
 111 472 111 472 111 522 c 0,22,23
 111 569 111 569 147.5 602 c 128,-1,24
 184 635 184 635 239 635 c 0,25,26
 279 635 279 635 315 616.5 c 128,-1,27
 351 598 351 598 378.5 568 c 128,-1,28
 406 538 406 538 421.5 502 c 128,-1,29
 437 466 437 466 437 431 c 0,30,31
 437 391 437 391 422 360.5 c 128,-1,32
 407 330 407 330 385.5 305.5 c 128,-1,33
 364 281 364 281 342 259.5 c 128,-1,34
 320 238 320 238 305 217 c 128,-1,35
 290 196 290 196 290 172 c 0,36,37
 290 141 290 141 323.5 124.5 c 128,-1,38
 357 108 357 108 420 108 c 0,39,40
 484 108 484 108 539 131.5 c 128,-1,41
 594 155 594 155 636 195.5 c 128,-1,42
 678 236 678 236 701.5 289.5 c 128,-1,43
 725 343 725 343 725 403 c 0,44,45
 725 460 725 460 686 460 c 0,46,47
 663 460 663 460 644 443.5 c 128,-1,48
 625 427 625 427 625 407 c 0,49,50
 625 388 625 388 642.5 377.5 c 128,-1,51
 660 367 660 367 694 362 c 1,52,-1
 676 291 l 1,53,54
 586 303 586 303 533 343 c 128,-1,55
 480 383 480 383 480 450 c 0,56,57
 480 506 480 506 520.5 542.5 c 128,-1,58
 561 579 561 579 625 579 c 0,59,60
 696 579 696 579 743.5 540 c 128,-1,61
 791 501 791 501 815.5 438.5 c 128,-1,62
 840 376 840 376 840 306 c 0,63,64
 840 216 840 216 800 144.5 c 128,-1,65
 760 73 760 73 684.5 31.5 c 128,-1,66
 609 -10 609 -10 502 -10 c 0,0,1
EndSplineSet
EndChar

StartChar: uni1CEC
Encoding: 7404 7404 159
Width: 907
GlyphClass: 2
Flags: W
AnchorPoint: "Anchor-6" 557 -6 basechar 0
AnchorPoint: "Anchor-1" 557 627 basechar 0
AnchorPoint: "Anchor-0" 557 627 basechar 0
LayerCount: 2
Fore
SplineSet
481 -10 m 0,0,1
 417 -10 417 -10 360.5 9.5 c 128,-1,2
 304 29 304 29 260.5 63 c 128,-1,3
 217 97 217 97 192.5 142 c 128,-1,4
 168 187 168 187 168 238 c 0,5,6
 168 270 168 270 184.5 298.5 c 128,-1,7
 201 327 201 327 225.5 352.5 c 128,-1,8
 250 378 250 378 274.5 401 c 128,-1,9
 299 424 299 424 315.5 445.5 c 128,-1,10
 332 467 332 467 332 487 c 0,11,12
 332 515 332 515 301 515 c 0,13,14
 274 515 274 515 253 499.5 c 128,-1,15
 232 484 232 484 232 463 c 0,16,17
 232 443 232 443 264 426 c 1,18,-1
 232 368 l 1,19,20
 173 396 173 396 142 434 c 128,-1,21
 111 472 111 472 111 522 c 0,22,23
 111 569 111 569 147.5 602 c 128,-1,24
 184 635 184 635 239 635 c 0,25,26
 279 635 279 635 315 616.5 c 128,-1,27
 351 598 351 598 378.5 568 c 128,-1,28
 406 538 406 538 421.5 502 c 128,-1,29
 437 466 437 466 437 431 c 0,30,31
 437 391 437 391 422 360.5 c 128,-1,32
 407 330 407 330 385.5 305.5 c 128,-1,33
 364 281 364 281 342 259.5 c 128,-1,34
 320 238 320 238 305 217 c 128,-1,35
 290 196 290 196 290 172 c 0,36,37
 290 141 290 141 318.5 124.5 c 128,-1,38
 347 108 347 108 400 108 c 0,39,40
 488 108 488 108 559.5 155 c 128,-1,41
 631 202 631 202 669 275 c 1,42,43
 585 311 585 311 532.5 352 c 128,-1,44
 480 393 480 393 480 449 c 0,45,46
 480 506 480 506 519.5 542.5 c 128,-1,47
 559 579 559 579 620 579 c 0,48,49
 686 579 686 579 730.5 542 c 128,-1,50
 775 505 775 505 797.5 446.5 c 128,-1,51
 820 388 820 388 820 321 c 0,52,53
 820 304 820 304 819 288 c 1,54,55
 901 248 901 248 934.5 203 c 128,-1,56
 968 158 968 158 968 99 c 0,57,58
 968 54 968 54 947.5 20 c 128,-1,59
 927 -14 927 -14 892 -50 c 1,60,-1
 756 61 l 1,61,62
 788 81 788 81 806 103 c 128,-1,63
 824 125 824 125 824 156 c 0,64,65
 824 186 824 186 803 208 c 1,66,67
 773 111 773 111 690 50.5 c 128,-1,68
 607 -10 607 -10 481 -10 c 0,0,1
625 406 m 0,69,70
 625 386 625 386 641.5 371 c 128,-1,71
 658 356 658 356 694 340 c 1,72,73
 704 378 704 378 704 418 c 0,74,75
 704 460 704 460 676 460 c 0,76,77
 657 460 657 460 641 443.5 c 128,-1,78
 625 427 625 427 625 406 c 0,69,70
EndSplineSet
EndChar

StartChar: uni1CED
Encoding: 7405 7405 160
Width: 0
GlyphClass: 4
Flags: W
AnchorPoint: "Anchor-14" -30 0 mark 0
AnchorPoint: "Anchor-9" -30 0 mark 0
AnchorPoint: "Anchor-6" -30 0 mark 0
LayerCount: 2
Fore
SplineSet
-227 -88 m 1,0,-1
 -152 -1 l 1,1,-1
 167 -259 l 1,2,-1
 100 -339 l 1,3,-1
 -227 -88 l 1,0,-1
EndSplineSet
Substitution2: "Single Substitution lookup 839 subtable" uni1CED.alt3
Substitution2: "Single Substitution lookup 838 subtable" uni1CED.alt3
Substitution2: "Single Substitution lookup 836 subtable" uni1CED.alt2
Substitution2: "Single Substitution lookup 835 subtable" uni1CED.alt2
Substitution2: "Single Substitution lookup 833 subtable" uni1CED.alt1
Substitution2: "Single Substitution lookup 832 subtable" uni1CED.alt1
Substitution2: "Single Substitution lookup 830 subtable" uni1CED.alt
Substitution2: "Single Substitution lookup 829 subtable" uni1CED.alt
Substitution2: "Single Substitution lookup 828 subtable" uni1CED.alt
Substitution2: "Single Substitution lookup 827 subtable" uni1CED.alt
EndChar

StartChar: uni1CEE
Encoding: 7406 7406 161
Width: 670
Flags: W
LayerCount: 2
Fore
SplineSet
368 -10 m 0,0,1
 295 -10 295 -10 237 22 c 128,-1,2
 179 54 179 54 145 105 c 128,-1,3
 111 156 111 156 111 214 c 0,4,5
 111 289 111 289 177 341 c 1,6,7
 143 372 143 372 122 408 c 128,-1,8
 101 444 101 444 101 488 c 0,9,10
 101 550 101 550 153.5 592 c 128,-1,11
 206 634 206 634 300 634 c 0,12,13
 329 634 329 634 358 630.5 c 128,-1,14
 387 627 387 627 414 621 c 1,15,-1
 464 490 l 1,16,17
 416 504 416 504 358 504 c 0,18,19
 303 504 303 504 268 483.5 c 128,-1,20
 233 463 233 463 233 423 c 0,21,22
 233 400 233 400 249 379 c 1,23,24
 278 390 278 390 313 396 c 128,-1,25
 348 402 348 402 389 402 c 1,26,-1
 436 257 l 1,27,28
 339 254 339 254 291 223 c 128,-1,29
 243 192 243 192 243 154 c 0,30,31
 243 130 243 130 261 114 c 128,-1,32
 279 98 279 98 308 98 c 0,33,34
 349 98 349 98 386 120 c 1,35,36
 384 130 384 130 384 139 c 0,37,38
 384 177 384 177 409.5 202.5 c 128,-1,39
 435 228 435 228 478 228 c 0,40,41
 522 228 522 228 546.5 199.5 c 128,-1,42
 571 171 571 171 571 129 c 0,43,44
 571 89 571 89 544.5 57.5 c 128,-1,45
 518 26 518 26 472 8 c 128,-1,46
 426 -10 426 -10 368 -10 c 0,0,1
537 261 m 1,47,-1
 445 351 l 1,48,-1
 537 442 l 1,49,-1
 629 351 l 1,50,-1
 537 261 l 1,47,-1
EndSplineSet
EndChar

StartChar: uni1CEF
Encoding: 7407 7407 162
Width: 502
Flags: W
LayerCount: 2
Fore
SplineSet
306 -20 m 0,0,1
 258 -20 258 -20 217.5 -1.5 c 128,-1,2
 177 17 177 17 147.5 47.5 c 128,-1,3
 118 78 118 78 101.5 115 c 128,-1,4
 85 152 85 152 85 189 c 0,5,6
 85 230 85 230 101.5 264 c 128,-1,7
 118 298 118 298 146 322 c 1,8,9
 107 353 107 353 83.5 392 c 128,-1,10
 60 431 60 431 60 470 c 0,11,12
 60 534 60 534 100 570.5 c 128,-1,13
 140 607 140 607 211 622.5 c 128,-1,14
 282 638 282 638 376 638 c 1,15,-1
 434 515 l 1,16,17
 359 515 359 515 297 507 c 128,-1,18
 235 499 235 499 198 481.5 c 128,-1,19
 161 464 161 464 161 435 c 0,20,21
 161 411 161 411 187 398 c 128,-1,22
 213 385 213 385 256 385 c 0,23,24
 297 385 297 385 339.5 394 c 128,-1,25
 382 403 382 403 429 424 c 1,26,-1
 467 290 l 1,27,28
 434 279 434 279 403.5 273 c 128,-1,29
 373 267 373 267 345 264 c 1,30,-1
 345 264 l 1,31,32
 326 260 326 260 309 256 c 1,33,34
 349 248 349 248 380.5 223 c 128,-1,35
 412 198 412 198 430 164 c 128,-1,36
 448 130 448 130 448 94 c 0,37,38
 448 45 448 45 411 12.5 c 128,-1,39
 374 -20 374 -20 306 -20 c 0,0,1
319 398 m 1,40,-1
 265 450 l 1,41,-1
 319 501 l 1,42,-1
 373 450 l 1,43,-1
 319 398 l 1,40,-1
180 159 m 0,44,45
 180 136 180 136 205 118.5 c 128,-1,46
 230 101 230 101 270 101 c 0,47,48
 303 101 303 101 328.5 109.5 c 128,-1,49
 354 118 354 118 354 131 c 0,50,51
 354 143 354 143 333 143 c 0,52,53
 318 143 318 143 297.5 137 c 128,-1,54
 277 131 277 131 257 122 c 1,55,-1
 227 224 l 1,56,57
 205 211 205 211 192.5 194.5 c 128,-1,58
 180 178 180 178 180 159 c 0,44,45
EndSplineSet
EndChar

StartChar: uni1CF0
Encoding: 7408 7408 163
Width: 581
Flags: W
LayerCount: 2
Fore
SplineSet
321 -10 m 0,0,1
 264 -10 264 -10 212.5 8.5 c 128,-1,2
 161 27 161 27 121.5 58 c 128,-1,3
 82 89 82 89 59 129 c 128,-1,4
 36 169 36 169 36 212 c 0,5,6
 36 257 36 257 62 293 c 128,-1,7
 88 329 88 329 134 350.5 c 128,-1,8
 180 372 180 372 240 375 c 1,9,10
 231 396 231 396 212 413 c 128,-1,11
 193 430 193 430 172.5 447 c 128,-1,12
 152 464 152 464 138 486 c 128,-1,13
 124 508 124 508 124 538 c 0,14,15
 124 585 124 585 159.5 611 c 128,-1,16
 195 637 195 637 250 637 c 0,17,18
 302 637 302 637 339 616 c 128,-1,19
 376 595 376 595 403.5 562 c 128,-1,20
 431 529 431 529 452 492 c 1,21,-1
 394 461 l 1,22,23
 375 490 375 490 355.5 507 c 128,-1,24
 336 524 336 524 310 524 c 0,25,26
 291 524 291 524 280 515 c 128,-1,27
 269 506 269 506 269 489 c 0,28,29
 269 469 269 469 281.5 453.5 c 128,-1,30
 294 438 294 438 309.5 418.5 c 128,-1,31
 325 399 325 399 332 366 c 1,32,33
 391 352 391 352 438.5 319.5 c 128,-1,34
 486 287 486 287 514 243.5 c 128,-1,35
 542 200 542 200 542 153 c 256,36,37
 542 106 542 106 513.5 69 c 128,-1,38
 485 32 485 32 435 11 c 128,-1,39
 385 -10 385 -10 321 -10 c 0,0,1
494 326 m 1,40,-1
 416 401 l 1,41,-1
 494 477 l 1,42,-1
 573 401 l 1,43,-1
 494 326 l 1,40,-1
234 108 m 0,44,45
 281 108 281 108 323.5 122.5 c 128,-1,46
 366 137 366 137 393 161.5 c 128,-1,47
 420 186 420 186 420 215 c 0,48,49
 420 239 420 239 400 248 c 128,-1,50
 380 257 380 257 343 257 c 0,51,52
 295 257 295 257 252.5 242.5 c 128,-1,53
 210 228 210 228 183.5 204 c 128,-1,54
 157 180 157 180 157 152 c 0,55,56
 157 129 157 129 177 118.5 c 128,-1,57
 197 108 197 108 234 108 c 0,44,45
EndSplineSet
EndChar

StartChar: uni1CF1
Encoding: 7409 7409 164
Width: 580
Flags: W
LayerCount: 2
Fore
SplineSet
374 -77 m 1,0,-1
 264 44 l 1,1,2
 326 83 326 83 362.5 121 c 128,-1,3
 399 159 399 159 399 188 c 0,4,5
 399 215 399 215 359 215 c 2,6,-1
 242 215 l 2,7,8
 207 215 207 215 171.5 234 c 128,-1,9
 136 253 136 253 106.5 283 c 128,-1,10
 77 313 77 313 59 348.5 c 128,-1,11
 41 384 41 384 41 417 c 0,12,13
 41 477 41 477 86 532.5 c 128,-1,14
 131 588 131 588 205 632 c 1,15,-1
 315 511 l 1,16,17
 253 471 253 471 217 433.5 c 128,-1,18
 181 396 181 396 181 367 c 0,19,20
 181 340 181 340 221 340 c 2,21,-1
 338 340 l 2,22,23
 373 340 373 340 408.5 321 c 128,-1,24
 444 302 444 302 473.5 271.5 c 128,-1,25
 503 241 503 241 521 205.5 c 128,-1,26
 539 170 539 170 539 137 c 0,27,28
 539 79 539 79 494 23 c 128,-1,29
 449 -33 449 -33 374 -77 c 1,0,-1
407 358 m 1,30,-1
 313 451 l 1,31,-1
 407 543 l 1,32,-1
 501 451 l 1,33,-1
 407 358 l 1,30,-1
173 12 m 1,34,-1
 79 104 l 1,35,-1
 173 196 l 1,36,-1
 267 104 l 1,37,-1
 173 12 l 1,34,-1
EndSplineSet
EndChar

StartChar: uni1CF2
Encoding: 7410 7410 165
Width: 580
GlyphClass: 4
Flags: W
LayerCount: 2
Fore
SplineSet
289 291 m 0,0,1
 187 291 187 291 122 348 c 128,-1,2
 57 405 57 405 39 505 c 1,3,-1
 121 527 l 1,4,5
 131 471 131 471 167 437 c 128,-1,6
 203 403 203 403 259 403 c 0,7,8
 321 403 321 403 355 437.5 c 128,-1,9
 389 472 389 472 399 527 c 1,10,-1
 541 490 l 1,11,12
 523 397 523 397 456.5 344 c 128,-1,13
 390 291 390 291 289 291 c 0,0,1
181 29 m 1,14,-1
 39 66 l 1,15,16
 57 159 57 159 124 212 c 128,-1,17
 191 265 191 265 291 265 c 0,18,19
 393 265 393 265 458 208.5 c 128,-1,20
 523 152 523 152 541 51 c 1,21,-1
 459 29 l 1,22,23
 450 85 450 85 415.5 119 c 128,-1,24
 381 153 381 153 327 153 c 0,25,26
 263 153 263 153 227.5 119 c 128,-1,27
 192 85 192 85 181 29 c 1,14,-1
EndSplineSet
EndChar

StartChar: uni1CF3
Encoding: 7411 7411 166
Width: 597
GlyphClass: 4
Flags: W
LayerCount: 2
Fore
SplineSet
285 275 m 0,0,1
 285 173 285 173 225.5 110.5 c 128,-1,2
 166 48 166 48 63 33 c 1,3,-1
 41 117 l 1,4,5
 100 124 100 124 135.5 157 c 128,-1,6
 171 190 171 190 171 245 c 0,7,8
 171 305 171 305 135.5 336.5 c 128,-1,9
 100 368 100 368 41 375 c 1,10,-1
 78 518 l 1,11,12
 173 504 173 504 229 440 c 128,-1,13
 285 376 285 376 285 275 c 0,0,1
556 176 m 1,14,-1
 519 33 l 1,15,16
 423 48 423 48 367.5 112 c 128,-1,17
 312 176 312 176 312 276 c 0,18,19
 312 379 312 379 371.5 441 c 128,-1,20
 431 503 431 503 534 518 c 1,21,-1
 556 434 l 1,22,23
 497 428 497 428 461.5 396 c 128,-1,24
 426 364 426 364 426 311 c 0,25,26
 426 250 426 250 461.5 217 c 128,-1,27
 497 184 497 184 556 176 c 1,14,-1
EndSplineSet
EndChar

StartChar: uni1CF4
Encoding: 7412 7412 167
Width: 0
GlyphClass: 4
Flags: W
LayerCount: 2
Fore
SplineSet
-223 981 m 0,0,1
 -327 981 -327 981 -393.5 1038 c 128,-1,2
 -460 1095 -460 1095 -479 1195 c 1,3,-1
 -397 1217 l 1,4,5
 -388 1162 -388 1162 -353.5 1127.5 c 128,-1,6
 -319 1093 -319 1093 -265 1093 c 0,7,8
 -209 1093 -209 1093 -179 1127.5 c 128,-1,9
 -149 1162 -149 1162 -141 1217 c 1,10,-1
 1 1180 l 1,11,12
 -15 1088 -15 1088 -74.5 1034.5 c 128,-1,13
 -134 981 -134 981 -223 981 c 0,0,1
EndSplineSet
EndChar

StartChar: uni1CF5
Encoding: 7413 7413 168
Width: 700
Flags: W
LayerCount: 2
Fore
SplineSet
46 0 m 1,0,-1
 46 45 l 1,1,-1
 275 299 l 1,2,-1
 56 583 l 1,3,-1
 56 627 l 1,4,-1
 644 627 l 1,5,-1
 644 583 l 1,6,-1
 426 344 l 1,7,-1
 654 45 l 1,8,-1
 654 0 l 1,9,-1
 46 0 l 1,0,-1
254 568 m 1,10,-1
 375 409 l 1,11,-1
 519 568 l 1,12,13
 506 567 506 567 488.5 566 c 128,-1,14
 471 565 471 565 456 565 c 2,15,-1
 317 565 l 2,16,17
 301 565 301 565 284.5 566 c 128,-1,18
 268 567 268 567 254 568 c 1,10,-1
171 65 m 1,19,20
 187 67 187 67 209 67.5 c 128,-1,21
 231 68 231 68 245 68 c 2,22,-1
 382 68 l 2,23,24
 396 68 396 68 418 67.5 c 128,-1,25
 440 67 440 67 456 65 c 1,26,-1
 325 234 l 1,27,-1
 171 65 l 1,19,20
EndSplineSet
EndChar

StartChar: uni1CF6
Encoding: 7414 7414 169
Width: 596
Flags: W
LayerCount: 2
Fore
SplineSet
233 180 m 0,0,1
 195 180 195 180 160.5 196 c 128,-1,2
 126 212 126 212 99 238 c 128,-1,3
 72 264 72 264 56.5 294 c 128,-1,4
 41 324 41 324 41 352 c 0,5,6
 41 375 41 375 52.5 398 c 128,-1,7
 64 421 64 421 83 441 c 1,8,-1
 190 372 l 1,9,10
 174 352 174 352 165 335.5 c 128,-1,11
 156 319 156 319 156 303 c 0,12,13
 156 288 156 288 165.5 279.5 c 128,-1,14
 175 271 175 271 191 271 c 0,15,16
 222 271 222 271 234.5 290 c 128,-1,17
 247 309 247 309 247 337 c 2,18,-1
 247 414 l 1,19,-1
 361 371 l 1,20,-1
 361 301 l 2,21,22
 361 291 361 291 360 283 c 1,23,24
 375 276 375 276 392 276 c 0,25,26
 416 276 416 276 432 289 c 128,-1,27
 448 302 448 302 448 325 c 0,28,29
 448 345 448 345 438.5 361.5 c 128,-1,30
 429 378 429 378 416 394 c 1,31,-1
 474 438 l 1,32,33
 515 399 515 399 532 364.5 c 128,-1,34
 549 330 549 330 549 294 c 0,35,36
 549 242 549 242 516.5 211.5 c 128,-1,37
 484 181 484 181 434 181 c 0,38,39
 377 181 377 181 332 216 c 1,40,41
 298 180 298 180 233 180 c 0,0,1
EndSplineSet
EndChar

StartChar: uni1CF8
Encoding: 7416 7416 170
Width: 0
GlyphClass: 4
Flags: W
AnchorPoint: "Anchor-12" -53 627 mark 0
AnchorPoint: "Anchor-3" -53 627 mark 0
AnchorPoint: "Anchor-0" -53 627 mark 0
LayerCount: 2
Fore
SplineSet
-132 670 m 0,0,1
 -152 670 -152 670 -172 679.5 c 128,-1,2
 -192 689 -192 689 -208 704 c 256,3,4
 -224 719 -224 719 -234 739.5 c 128,-1,5
 -244 760 -244 760 -244 780 c 0,6,7
 -244 823 -244 823 -212 852 c 128,-1,8
 -180 881 -180 881 -130 881 c 0,9,10
 -108 881 -108 881 -88 871.5 c 128,-1,11
 -68 862 -68 862 -52 846 c 0,12,13
 -37 830 -37 830 -28 811 c 128,-1,14
 -19 792 -19 792 -19 772 c 0,15,16
 -19 730 -19 730 -50.5 700 c 128,-1,17
 -82 670 -82 670 -132 670 c 0,0,1
-153 730 m 0,18,19
 -136 730 -136 730 -119 739.5 c 128,-1,20
 -102 749 -102 749 -90.5 764 c 128,-1,21
 -79 779 -79 779 -79 795 c 0,22,23
 -79 820 -79 820 -109 820 c 0,24,25
 -126 820 -126 820 -143 811 c 128,-1,26
 -160 802 -160 802 -171.5 787.5 c 128,-1,27
 -183 773 -183 773 -183 757 c 0,28,29
 -183 730 -183 730 -153 730 c 0,18,19
EndSplineSet
Substitution2: "Single Substitution lookup 853 subtable" uni1CF8.iirephc
Substitution2: "Single Substitution lookup 852 subtable" uni1CF8.iireph
Substitution2: "Single Substitution lookup 851 subtable" uni1CF8.iicandra
Substitution2: "Single Substitution lookup 850 subtable" uni1CF8.iireph
Substitution2: "Single Substitution lookup 849 subtable" uni1CF8.ii
Substitution2: "Single Substitution lookup 814 subtable" uni1CF8.iirephc
Substitution2: "Single Substitution lookup 813 subtable" uni1CF8.iicandra
Substitution2: "Single Substitution lookup 812 subtable" uni1CF8.alt
Substitution2: "Single Substitution lookup 811 subtable" uni1CF8.alt2
Substitution2: "Single Substitution lookup 810 subtable" uni1CF8.alt2
Substitution2: "Single Substitution lookup 809 subtable" uni1CF8.alt
Substitution2: "Single Substitution lookup 808 subtable" uni1CF8.alt
Substitution2: "Single Substitution lookup 807 subtable" uni1CF8.alt
Substitution2: "Single Substitution lookup 806 subtable" uni1CF8.alt
Substitution2: "Single Substitution lookup 805 subtable" uni1CF8.iirephc
Substitution2: "Single Substitution lookup 804 subtable" uni1CF8.alt3
Substitution2: "Single Substitution lookup 803 subtable" uni1CF8.alt2
Substitution2: "Single Substitution lookup 802 subtable" uni1CF8.alt1
Substitution2: "Single Substitution lookup 801 subtable" uni1CF8.alt2
Substitution2: "Single Substitution lookup 800 subtable" uni1CF8.alt
Substitution2: "Single Substitution lookup 799 subtable" uni1CF8.alt
Substitution2: "Single Substitution lookup 798 subtable" uni1CF8.alt3
Substitution2: "Single Substitution lookup 797 subtable" uni1CF8.alt3
Substitution2: "Single Substitution lookup 796 subtable" uni1CF8.alt3
Substitution2: "Single Substitution lookup 795 subtable" uni1CF8.iicandra
Substitution2: "Single Substitution lookup 794 subtable" uni1CF8.alt3
Substitution2: "Single Substitution lookup 793 subtable" uni1CF8.alt1
Substitution2: "Single Substitution lookup 792 subtable" uni1CF8.alt1
EndChar

StartChar: uniA830
Encoding: 43056 43056 172
Width: 273
Flags: W
LayerCount: 2
Fore
SplineSet
194 -15 m 1,0,-1
 61 70 l 1,1,-1
 61 627 l 1,2,-1
 78 627 l 1,3,-1
 212 542 l 1,4,-1
 212 -15 l 1,5,-1
 194 -15 l 1,0,-1
EndSplineSet
EndChar

StartChar: uniA833
Encoding: 43059 43059 175
Width: 781
Flags: W
LayerCount: 2
Fore
SplineSet
743 520 m 1,0,-1
 159 368 l 1,1,-1
 38 489 l 1,2,-1
 630 632 l 1,3,-1
 743 520 l 1,0,-1
EndSplineSet
EndChar

StartChar: uniA836
Encoding: 43062 43062 178
Width: 428
Flags: W
LayerCount: 2
Fore
SplineSet
230 144 m 0,0,1
 177 144 177 144 130 172 c 128,-1,2
 83 200 83 200 54.5 245.5 c 128,-1,3
 26 291 26 291 26 343 c 0,4,5
 26 378 26 378 47.5 411.5 c 128,-1,6
 69 445 69 445 108 466.5 c 128,-1,7
 147 488 147 488 199 488 c 0,8,9
 238 488 238 488 274 471.5 c 128,-1,10
 310 455 310 455 338.5 427 c 128,-1,11
 367 399 367 399 384 363.5 c 128,-1,12
 401 328 401 328 401 290 c 0,13,14
 401 254 401 254 379.5 220.5 c 128,-1,15
 358 187 358 187 319.5 165.5 c 128,-1,16
 281 144 281 144 230 144 c 0,0,1
178 258 m 0,17,18
 204 258 204 258 227.5 271 c 128,-1,19
 251 284 251 284 266 304.5 c 128,-1,20
 281 325 281 325 281 346 c 0,21,22
 281 356 281 356 274 365 c 128,-1,23
 267 374 267 374 251 374 c 0,24,25
 226 374 226 374 201.5 361 c 128,-1,26
 177 348 177 348 161.5 328.5 c 128,-1,27
 146 309 146 309 146 288 c 0,28,29
 146 277 146 277 154 267.5 c 128,-1,30
 162 258 162 258 178 258 c 0,17,18
EndSplineSet
EndChar

StartChar: uniA837
Encoding: 43063 43063 179
Width: 569
Flags: W
LayerCount: 2
Fore
SplineSet
267 73 m 0,0,1
 229 73 229 73 192.5 89 c 128,-1,2
 156 105 156 105 126 132 c 128,-1,3
 96 159 96 159 78.5 193.5 c 128,-1,4
 61 228 61 228 61 265 c 0,5,6
 61 318 61 318 89 358.5 c 128,-1,7
 117 399 117 399 162 434 c 2,8,-1
 434 653 l 1,9,-1
 548 539 l 1,10,-1
 412 434 l 2,11,12
 392 419 392 419 372 405 c 128,-1,13
 352 391 352 391 325 376 c 1,14,15
 373 353 373 353 402 312 c 128,-1,16
 431 271 431 271 431 224 c 0,17,18
 431 185 431 185 411 150.5 c 128,-1,19
 391 116 391 116 354 94.5 c 128,-1,20
 317 73 317 73 267 73 c 0,0,1
194 170 m 0,21,22
 212 170 212 170 234 182 c 128,-1,23
 256 194 256 194 275.5 211.5 c 128,-1,24
 295 229 295 229 307.5 248.5 c 128,-1,25
 320 268 320 268 320 283 c 0,26,27
 320 296 320 296 312.5 304 c 128,-1,28
 305 312 305 312 290 312 c 0,29,30
 272 312 272 312 250.5 301 c 128,-1,31
 229 290 229 290 209 273 c 128,-1,32
 189 256 189 256 176.5 236 c 128,-1,33
 164 216 164 216 164 198 c 0,34,35
 164 185 164 185 172.5 177.5 c 128,-1,36
 181 170 181 170 194 170 c 0,21,22
EndSplineSet
EndChar

StartChar: uniA838
Encoding: 43064 43064 180
Width: 351
Flags: W
LayerCount: 2
Fore
SplineSet
-62 -207 m 0,0,1
 -86 -207 -86 -207 -112 -203.5 c 128,-1,2
 -138 -200 -138 -200 -164 -194 c 1,3,-1
 -136 -55 l 1,4,5
 -86 -68 -86 -68 -49.5 -74 c 128,-1,6
 -13 -80 -13 -80 19 -80 c 0,7,8
 170 -80 170 -80 170 120 c 0,9,10
 170 217 170 217 137.5 332.5 c 128,-1,11
 105 448 105 448 46 573 c 1,12,-1
 216 639 l 1,13,14
 254 524 254 524 273.5 420.5 c 128,-1,15
 293 317 293 317 293 221 c 0,16,17
 293 14 293 14 201.5 -96.5 c 128,-1,18
 110 -207 110 -207 -62 -207 c 0,0,1
EndSplineSet
EndChar

StartChar: uniA839
Encoding: 43065 43065 181
Width: 372
Flags: W
LayerCount: 2
Fore
SplineSet
-89 -263 m 0,0,1
 -112 -263 -112 -263 -135 -261.5 c 128,-1,2
 -158 -260 -158 -260 -181 -258 c 1,3,-1
 -157 -112 l 1,4,5
 -128 -119 -128 -119 -99 -122 c 128,-1,6
 -70 -125 -70 -125 -43 -125 c 0,7,8
 28 -125 28 -125 79.5 -99.5 c 128,-1,9
 131 -74 131 -74 159 -29.5 c 128,-1,10
 187 15 187 15 187 71 c 0,11,12
 187 116 187 116 167.5 157 c 128,-1,13
 148 198 148 198 122.5 238.5 c 128,-1,14
 97 279 97 279 77.5 323 c 128,-1,15
 58 367 58 367 58 418 c 0,16,17
 58 510 58 510 129.5 566 c 128,-1,18
 201 622 201 622 338 639 c 1,19,-1
 377 499 l 1,20,21
 262 489 262 489 206.5 456.5 c 128,-1,22
 151 424 151 424 151 371 c 0,23,24
 151 335 151 335 170 297.5 c 128,-1,25
 189 260 189 260 214 218.5 c 128,-1,26
 239 177 239 177 258 129 c 128,-1,27
 277 81 277 81 277 23 c 0,28,29
 277 -58 277 -58 230.5 -122.5 c 128,-1,30
 184 -187 184 -187 101.5 -225 c 128,-1,31
 19 -263 19 -263 -89 -263 c 0,0,1
EndSplineSet
EndChar

StartChar: uniA8E0
Encoding: 43232 43232 182
Width: 0
GlyphClass: 4
Flags: W
LayerCount: 2
Fore
SplineSet
-130 1023 m 0,0,1
 -150 1023 -150 1023 -170 1032.5 c 128,-1,2
 -190 1042 -190 1042 -206 1057 c 0,3,4
 -222 1073 -222 1073 -232 1092.5 c 128,-1,5
 -242 1112 -242 1112 -242 1132 c 0,6,7
 -242 1176 -242 1176 -210 1205 c 128,-1,8
 -178 1234 -178 1234 -128 1234 c 0,9,10
 -106 1234 -106 1234 -86.5 1224 c 128,-1,11
 -67 1214 -67 1214 -51 1198 c 0,12,13
 -36 1183 -36 1183 -27 1164 c 128,-1,14
 -18 1145 -18 1145 -18 1125 c 0,15,16
 -18 1082 -18 1082 -49.5 1052.5 c 128,-1,17
 -81 1023 -81 1023 -130 1023 c 0,0,1
-151 1082 m 0,18,19
 -134 1082 -134 1082 -117.5 1091.5 c 128,-1,20
 -101 1101 -101 1101 -89.5 1116.5 c 128,-1,21
 -78 1132 -78 1132 -78 1148 c 0,22,23
 -78 1159 -78 1159 -86 1165.5 c 128,-1,24
 -94 1172 -94 1172 -108 1172 c 0,25,26
 -124 1172 -124 1172 -141 1163 c 128,-1,27
 -158 1154 -158 1154 -169.5 1140 c 128,-1,28
 -181 1126 -181 1126 -181 1109 c 0,29,30
 -181 1097 -181 1097 -172.5 1089.5 c 128,-1,31
 -164 1082 -164 1082 -151 1082 c 0,18,19
EndSplineSet
Position2: "Single Positioning lookup 35 subtable" dx=-287 dy=0 dh=0 dv=0
Position2: "Single Positioning lookup 34 subtable" dx=-280 dy=0 dh=0 dv=0
Position2: "Single Positioning lookup 33 subtable" dx=-272 dy=0 dh=0 dv=0
Position2: "Single Positioning lookup 32 subtable" dx=-262 dy=0 dh=0 dv=0
Position2: "Single Positioning lookup 31 subtable" dx=-252 dy=0 dh=0 dv=0
Position2: "Single Positioning lookup 30 subtable" dx=-243 dy=0 dh=0 dv=0
Position2: "Single Positioning lookup 29 subtable" dx=-238 dy=0 dh=0 dv=0
Position2: "Single Positioning lookup 28 subtable" dx=-234 dy=0 dh=0 dv=0
Position2: "Single Positioning lookup 27 per glyph data 0" dx=-231 dy=0 dh=0 dv=0
Position2: "Single Positioning lookup 26 per glyph data 0" dx=-304 dy=0 dh=0 dv=0
Position2: "Single Positioning lookup 25 per glyph data 0" dx=-298 dy=0 dh=0 dv=0
Position2: "Single Positioning lookup 24 subtable" dx=-289 dy=0 dh=0 dv=0
Position2: "Single Positioning lookup 23 subtable" dx=-282 dy=0 dh=0 dv=0
Position2: "Single Positioning lookup 22 subtable" dx=-274 dy=0 dh=0 dv=0
Position2: "Single Positioning lookup 21 subtable" dx=-268 dy=0 dh=0 dv=0
Position2: "Single Positioning lookup 20 subtable" dx=-256 dy=0 dh=0 dv=0
Position2: "Single Positioning lookup 19 subtable" dx=-246 dy=0 dh=0 dv=0
Position2: "Single Positioning lookup 18 subtable" dx=-240 dy=0 dh=0 dv=0
Position2: "Single Positioning lookup 17 per glyph data 1" dx=-324 dy=0 dh=0 dv=0
Position2: "Single Positioning lookup 16 subtable" dx=-317 dy=0 dh=0 dv=0
Position2: "Single Positioning lookup 15 subtable" dx=-308 dy=0 dh=0 dv=0
Position2: "Single Positioning lookup 14 subtable" dx=-303 dy=0 dh=0 dv=0
Position2: "Single Positioning lookup 13 per glyph data 0" dx=-300 dy=0 dh=0 dv=0
Position2: "Single Positioning lookup 12 subtable" dx=-296 dy=0 dh=0 dv=0
Position2: "Single Positioning lookup 11 subtable" dx=-276 dy=0 dh=0 dv=0
Position2: "Single Positioning lookup 10 subtable" dx=-260 dy=0 dh=0 dv=0
Position2: "Single Positioning lookup 9 subtable" dx=-250 dy=0 dh=0 dv=0
Position2: "Single Positioning lookup 8 subtable" dx=-346 dy=0 dh=0 dv=0
Position2: "Single Positioning lookup 7 per glyph data 0" dx=-337 dy=0 dh=0 dv=0
Position2: "Single Positioning lookup 6 subtable" dx=-328 dy=0 dh=0 dv=0
Position2: "Single Positioning lookup 5 subtable" dx=-328 dy=0 dh=0 dv=0
Position2: "Single Positioning lookup 4 subtable" dx=-328 dy=0 dh=0 dv=0
Position2: "Single Positioning lookup 3 subtable" dx=-327 dy=0 dh=0 dv=0
Position2: "Single Positioning lookup 2 per glyph data 0" dx=-297 dy=0 dh=0 dv=0
Position2: "Single Positioning lookup 1 subtable" dx=-275 dy=0 dh=0 dv=0
Position2: "Single Positioning lookup 0 subtable" dx=-261 dy=0 dh=0 dv=0
EndChar

StartChar: uniA8E1
Encoding: 43233 43233 183
Width: 0
GlyphClass: 4
Flags: W
LayerCount: 2
Fore
SplineSet
-59 916 m 1,0,-1
 -124 961 l 1,1,2
 -108 973 -108 973 -108 986 c 0,3,4
 -108 1004 -108 1004 -128 1024.5 c 128,-1,5
 -148 1045 -148 1045 -198 1084 c 1,6,7
 -184 1095 -184 1095 -171 1105 c 128,-1,8
 -158 1115 -158 1115 -147 1123 c 1,9,10
 -173 1143 -173 1143 -188.5 1164.5 c 128,-1,11
 -204 1186 -204 1186 -204 1214 c 0,12,13
 -204 1244 -204 1244 -182 1265.5 c 128,-1,14
 -160 1287 -160 1287 -126 1287 c 0,15,16
 -102 1287 -102 1287 -81.5 1277.5 c 128,-1,17
 -61 1268 -61 1268 -46 1251 c 0,18,19
 -16 1218 -16 1218 -16 1172 c 0,20,21
 -16 1143 -16 1143 -40 1115.5 c 128,-1,22
 -64 1088 -64 1088 -109 1052 c 1,23,24
 -69 1026 -69 1026 -52.5 1005.5 c 128,-1,25
 -36 985 -36 985 -36 961 c 0,26,27
 -36 948 -36 948 -42.5 936.5 c 128,-1,28
 -49 925 -49 925 -59 916 c 1,0,-1
-138 1193 m 0,29,30
 -138 1184 -138 1184 -131.5 1173 c 128,-1,31
 -125 1162 -125 1162 -112 1154 c 1,32,33
 -79 1184 -79 1184 -79 1204 c 0,34,35
 -79 1215 -79 1215 -85 1222.5 c 128,-1,36
 -91 1230 -91 1230 -104 1230 c 0,37,38
 -118 1230 -118 1230 -128 1219.5 c 128,-1,39
 -138 1209 -138 1209 -138 1193 c 0,29,30
EndSplineSet
Position2: "Single Positioning lookup 35 subtable" dx=-273 dy=0 dh=0 dv=0
Position2: "Single Positioning lookup 34 subtable" dx=-263 dy=0 dh=0 dv=0
Position2: "Single Positioning lookup 33 subtable" dx=-251 dy=0 dh=0 dv=0
Position2: "Single Positioning lookup 32 subtable" dx=-243 dy=0 dh=0 dv=0
Position2: "Single Positioning lookup 31 subtable" dx=-235 dy=0 dh=0 dv=0
Position2: "Single Positioning lookup 30 subtable" dx=-228 dy=0 dh=0 dv=0
Position2: "Single Positioning lookup 29 subtable" dx=-218 dy=0 dh=0 dv=0
Position2: "Single Positioning lookup 28 subtable" dx=-210 dy=0 dh=0 dv=0
Position2: "Single Positioning lookup 27 per glyph data 0" dx=-204 dy=0 dh=0 dv=0
Position2: "Single Positioning lookup 26 per glyph data 0" dx=-289 dy=0 dh=0 dv=0
Position2: "Single Positioning lookup 25 per glyph data 0" dx=-280 dy=0 dh=0 dv=0
Position2: "Single Positioning lookup 24 subtable" dx=-268 dy=0 dh=0 dv=0
Position2: "Single Positioning lookup 23 subtable" dx=-260 dy=0 dh=0 dv=0
Position2: "Single Positioning lookup 22 subtable" dx=-251 dy=0 dh=0 dv=0
Position2: "Single Positioning lookup 21 subtable" dx=-245 dy=0 dh=0 dv=0
Position2: "Single Positioning lookup 20 subtable" dx=-229 dy=0 dh=0 dv=0
Position2: "Single Positioning lookup 19 subtable" dx=-216 dy=0 dh=0 dv=0
Position2: "Single Positioning lookup 18 subtable" dx=-208 dy=0 dh=0 dv=0
Position2: "Single Positioning lookup 17 per glyph data 0" dx=-307 dy=0 dh=0 dv=0
Position2: "Single Positioning lookup 16 subtable" dx=-299 dy=0 dh=0 dv=0
Position2: "Single Positioning lookup 15 subtable" dx=-288 dy=0 dh=0 dv=0
Position2: "Single Positioning lookup 14 subtable" dx=-278 dy=0 dh=0 dv=0
Position2: "Single Positioning lookup 13 per glyph data 0" dx=-271 dy=0 dh=0 dv=0
Position2: "Single Positioning lookup 12 subtable" dx=-264 dy=0 dh=0 dv=0
Position2: "Single Positioning lookup 11 subtable" dx=-241 dy=0 dh=0 dv=0
Position2: "Single Positioning lookup 10 subtable" dx=-224 dy=0 dh=0 dv=0
Position2: "Single Positioning lookup 9 subtable" dx=-213 dy=0 dh=0 dv=0
Position2: "Single Positioning lookup 8 subtable" dx=-328 dy=0 dh=0 dv=0
Position2: "Single Positioning lookup 7 per glyph data 0" dx=-318 dy=0 dh=0 dv=0
Position2: "Single Positioning lookup 6 subtable" dx=-308 dy=0 dh=0 dv=0
Position2: "Single Positioning lookup 5 subtable" dx=-299 dy=0 dh=0 dv=0
Position2: "Single Positioning lookup 4 subtable" dx=-292 dy=0 dh=0 dv=0
Position2: "Single Positioning lookup 3 subtable" dx=-285 dy=0 dh=0 dv=0
Position2: "Single Positioning lookup 2 per glyph data 0" dx=-255 dy=0 dh=0 dv=0
Position2: "Single Positioning lookup 1 subtable" dx=-233 dy=0 dh=0 dv=0
Position2: "Single Positioning lookup 0 subtable" dx=-218 dy=0 dh=0 dv=0
EndChar

StartChar: uniA8E2
Encoding: 43234 43234 184
Width: 0
GlyphClass: 4
Flags: W
LayerCount: 2
Fore
SplineSet
-92 952 m 1,0,-1
 -132 1062 l 1,1,2
 -137 1062 -137 1062 -143 1062 c 0,3,4
 -173 1062 -173 1062 -194 1078.5 c 128,-1,5
 -215 1095 -215 1095 -215 1118 c 0,6,7
 -215 1136 -215 1136 -203 1147.5 c 128,-1,8
 -191 1159 -191 1159 -172 1159 c 0,9,10
 -148 1159 -148 1159 -126 1132 c 1,11,12
 -95 1142 -95 1142 -77.5 1158.5 c 128,-1,13
 -60 1175 -60 1175 -60 1192 c 0,14,15
 -60 1208 -60 1208 -70 1218 c 128,-1,16
 -80 1228 -80 1228 -97 1228 c 0,17,18
 -112 1228 -112 1228 -128 1220.5 c 128,-1,19
 -144 1213 -144 1213 -165 1196 c 1,20,-1
 -208 1257 l 1,21,22
 -164 1286 -164 1286 -122 1286 c 0,23,24
 -96 1286 -96 1286 -74.5 1274.5 c 128,-1,25
 -53 1263 -53 1263 -37 1244 c 0,26,27
 -23 1228 -23 1228 -14 1207.5 c 128,-1,28
 -5 1187 -5 1187 -5 1165 c 0,29,30
 -5 1134 -5 1134 -28 1109 c 128,-1,31
 -51 1084 -51 1084 -85 1072 c 1,32,-1
 -22 974 l 1,33,-1
 -92 952 l 1,0,-1
EndSplineSet
Position2: "Single Positioning lookup 35 subtable" dx=-278 dy=0 dh=0 dv=0
Position2: "Single Positioning lookup 34 subtable" dx=-271 dy=0 dh=0 dv=0
Position2: "Single Positioning lookup 33 subtable" dx=-263 dy=0 dh=0 dv=0
Position2: "Single Positioning lookup 32 subtable" dx=-255 dy=0 dh=0 dv=0
Position2: "Single Positioning lookup 31 subtable" dx=-247 dy=0 dh=0 dv=0
Position2: "Single Positioning lookup 30 subtable" dx=-240 dy=0 dh=0 dv=0
Position2: "Single Positioning lookup 29 subtable" dx=-228 dy=0 dh=0 dv=0
Position2: "Single Positioning lookup 28 subtable" dx=-220 dy=0 dh=0 dv=0
Position2: "Single Positioning lookup 27 per glyph data 0" dx=-213 dy=0 dh=0 dv=0
Position2: "Single Positioning lookup 26 per glyph data 0" dx=-296 dy=0 dh=0 dv=0
Position2: "Single Positioning lookup 25 per glyph data 0" dx=-290 dy=0 dh=0 dv=0
Position2: "Single Positioning lookup 24 subtable" dx=-283 dy=0 dh=0 dv=0
Position2: "Single Positioning lookup 23 subtable" dx=-276 dy=0 dh=0 dv=0
Position2: "Single Positioning lookup 22 subtable" dx=-268 dy=0 dh=0 dv=0
Position2: "Single Positioning lookup 21 subtable" dx=-263 dy=0 dh=0 dv=0
Position2: "Single Positioning lookup 20 subtable" dx=-245 dy=0 dh=0 dv=0
Position2: "Single Positioning lookup 19 subtable" dx=-231 dy=0 dh=0 dv=0
Position2: "Single Positioning lookup 18 subtable" dx=-223 dy=0 dh=0 dv=0
Position2: "Single Positioning lookup 17 per glyph data 0" dx=-316 dy=0 dh=0 dv=0
Position2: "Single Positioning lookup 16 subtable" dx=-311 dy=0 dh=0 dv=0
Position2: "Single Positioning lookup 15 subtable" dx=-305 dy=0 dh=0 dv=0
Position2: "Single Positioning lookup 14 subtable" dx=-298 dy=0 dh=0 dv=0
Position2: "Single Positioning lookup 13 per glyph data 0" dx=-293 dy=0 dh=0 dv=0
Position2: "Single Positioning lookup 12 subtable" dx=-288 dy=0 dh=0 dv=0
Position2: "Single Positioning lookup 11 subtable" dx=-264 dy=0 dh=0 dv=0
Position2: "Single Positioning lookup 10 subtable" dx=-245 dy=0 dh=0 dv=0
Position2: "Single Positioning lookup 9 subtable" dx=-234 dy=0 dh=0 dv=0
Position2: "Single Positioning lookup 8 subtable" dx=-339 dy=0 dh=0 dv=0
Position2: "Single Positioning lookup 7 per glyph data 0" dx=-333 dy=0 dh=0 dv=0
Position2: "Single Positioning lookup 6 subtable" dx=-328 dy=0 dh=0 dv=0
Position2: "Single Positioning lookup 5 subtable" dx=-323 dy=0 dh=0 dv=0
Position2: "Single Positioning lookup 4 subtable" dx=-319 dy=0 dh=0 dv=0
Position2: "Single Positioning lookup 3 subtable" dx=-315 dy=0 dh=0 dv=0
Position2: "Single Positioning lookup 2 per glyph data 1" dx=-284 dy=0 dh=0 dv=0
Position2: "Single Positioning lookup 1 subtable" dx=-261 dy=0 dh=0 dv=0
Position2: "Single Positioning lookup 0 subtable" dx=-246 dy=0 dh=0 dv=0
EndChar

StartChar: uniA8E3
Encoding: 43235 43235 185
Width: 0
GlyphClass: 4
Flags: W
LayerCount: 2
Fore
SplineSet
-133 912 m 1,0,-1
 -156 990 l 1,1,2
 -191 995 -191 995 -213.5 1012 c 128,-1,3
 -236 1029 -236 1029 -236 1054 c 0,4,5
 -236 1070 -236 1070 -225.5 1080.5 c 128,-1,6
 -215 1091 -215 1091 -198 1091 c 0,7,8
 -180 1091 -180 1091 -166.5 1079.5 c 128,-1,9
 -153 1068 -153 1068 -141 1050 c 1,10,11
 -116 1052 -116 1052 -100 1063.5 c 128,-1,12
 -84 1075 -84 1075 -84 1091 c 256,13,14
 -84 1107 -84 1107 -98 1122 c 1,15,16
 -122 1113 -122 1113 -159 1106 c 1,17,-1
 -203 1163 l 1,18,19
 -155 1172 -155 1172 -124.5 1183 c 128,-1,20
 -94 1194 -94 1194 -94 1209 c 0,21,22
 -94 1228 -94 1228 -121 1228 c 0,23,24
 -147 1228 -147 1228 -184 1204 c 1,25,-1
 -225 1262 l 1,26,27
 -191 1286 -191 1286 -155 1286 c 0,28,29
 -131 1286 -131 1286 -107 1274 c 128,-1,30
 -83 1262 -83 1262 -66 1243 c 0,31,32
 -54 1230 -54 1230 -46.5 1214 c 128,-1,33
 -39 1198 -39 1198 -39 1181 c 0,34,35
 -39 1156 -39 1156 -63 1139 c 1,36,37
 -56 1132 -56 1132 -49 1125 c 0,38,39
 -35 1111 -35 1111 -29.5 1095.5 c 128,-1,40
 -24 1080 -24 1080 -24 1064 c 0,41,42
 -24 1036 -24 1036 -46.5 1017 c 128,-1,43
 -69 998 -69 998 -103 992 c 1,44,-1
 -64 932 l 1,45,-1
 -133 912 l 1,0,-1
EndSplineSet
Position2: "Single Positioning lookup 35 subtable" dx=-277 dy=0 dh=0 dv=0
Position2: "Single Positioning lookup 34 subtable" dx=-266 dy=0 dh=0 dv=0
Position2: "Single Positioning lookup 33 subtable" dx=-252 dy=0 dh=0 dv=0
Position2: "Single Positioning lookup 32 subtable" dx=-247 dy=0 dh=0 dv=0
Position2: "Single Positioning lookup 31 subtable" dx=-243 dy=0 dh=0 dv=0
Position2: "Single Positioning lookup 30 subtable" dx=-238 dy=0 dh=0 dv=0
Position2: "Single Positioning lookup 29 subtable" dx=-224 dy=0 dh=0 dv=0
Position2: "Single Positioning lookup 28 subtable" dx=-214 dy=0 dh=0 dv=0
Position2: "Single Positioning lookup 27 per glyph data 0" dx=-206 dy=0 dh=0 dv=0
Position2: "Single Positioning lookup 26 per glyph data 0" dx=-289 dy=0 dh=0 dv=0
Position2: "Single Positioning lookup 25 per glyph data 0" dx=-282 dy=0 dh=0 dv=0
Position2: "Single Positioning lookup 24 subtable" dx=-273 dy=0 dh=0 dv=0
Position2: "Single Positioning lookup 23 subtable" dx=-267 dy=0 dh=0 dv=0
Position2: "Single Positioning lookup 22 subtable" dx=-260 dy=0 dh=0 dv=0
Position2: "Single Positioning lookup 21 subtable" dx=-256 dy=0 dh=0 dv=0
Position2: "Single Positioning lookup 20 subtable" dx=-238 dy=0 dh=0 dv=0
Position2: "Single Positioning lookup 19 subtable" dx=-223 dy=0 dh=0 dv=0
Position2: "Single Positioning lookup 18 subtable" dx=-214 dy=0 dh=0 dv=0
Position2: "Single Positioning lookup 17 per glyph data 0" dx=-303 dy=0 dh=0 dv=0
Position2: "Single Positioning lookup 16 subtable" dx=-301 dy=0 dh=0 dv=0
Position2: "Single Positioning lookup 15 subtable" dx=-296 dy=0 dh=0 dv=0
Position2: "Single Positioning lookup 14 subtable" dx=-288 dy=0 dh=0 dv=0
Position2: "Single Positioning lookup 13 per glyph data 0" dx=-282 dy=0 dh=0 dv=0
Position2: "Single Positioning lookup 12 subtable" dx=-276 dy=0 dh=0 dv=0
Position2: "Single Positioning lookup 11 subtable" dx=-252 dy=0 dh=0 dv=0
Position2: "Single Positioning lookup 10 subtable" dx=-233 dy=0 dh=0 dv=0
Position2: "Single Positioning lookup 9 subtable" dx=-222 dy=0 dh=0 dv=0
Position2: "Single Positioning lookup 8 subtable" dx=-320 dy=0 dh=0 dv=0
Position2: "Single Positioning lookup 7 per glyph data 0" dx=-320 dy=0 dh=0 dv=0
Position2: "Single Positioning lookup 6 subtable" dx=-321 dy=0 dh=0 dv=0
Position2: "Single Positioning lookup 5 subtable" dx=-312 dy=0 dh=0 dv=0
Position2: "Single Positioning lookup 4 subtable" dx=-305 dy=0 dh=0 dv=0
Position2: "Single Positioning lookup 3 subtable" dx=-298 dy=0 dh=0 dv=0
Position2: "Single Positioning lookup 2 per glyph data 0" dx=-268 dy=0 dh=0 dv=0
Position2: "Single Positioning lookup 1 subtable" dx=-246 dy=0 dh=0 dv=0
Position2: "Single Positioning lookup 0 subtable" dx=-231 dy=0 dh=0 dv=0
EndChar

